<svg xmlns="http://www.w3.org/2000/svg" width="56" height="49" viewBox="0 0 56 49"><g><g><g/><g><g><path fill="#060f42" d="M54.39 11.251a.5.5 0 0 1 .582.514l-.567 13.614a.5.5 0 0 1-.075.243l-9.552 15.34a.5.5 0 0 1-.667.173l-.473-.263a.5.5 0 0 1-.183-.7l9.23-14.998a.5.5 0 0 0 .074-.244l.425-11.766c.01-.283-.217-.519-.498-.487-.473.052-.992.172-1.332.36a.332.332 0 0 0-.146.156c-.453 1.028-1.163 6.048-1.595 10.373v.079a.5.5 0 0 1-.163.368l-10.105 9.252a.5.5 0 0 1-.691-.016l-.345-.344a.5.5 0 0 1 .01-.718l4.862-4.583c.143-.143.287-.7.43-2.334a.499.499 0 0 0-.118-.367l-1.284-1.5a.5.5 0 0 0-.755-.004L34.18 31.65a.5.5 0 0 0-.125.33V43.26a.5.5 0 0 1-.5.5h-.496a.5.5 0 0 1-.5-.5V31.386a.5.5 0 0 1 .128-.334l8.917-9.908a.5.5 0 0 1 .75.007l.804.928a.506.506 0 0 0 .882-.283c.414-4.034.86-5.473 1.683-6.158.657-.526 2.124-.706 3.18-.741a.528.528 0 0 0 .496-.408c.295-1.281.703-2.17 1.11-2.442 1.296-.863 3.146-.757 3.55-.748a.43.43 0 0 0 .081-.006zm-6.412 12.14a.5.5 0 0 0 .162-.31c.265-2.116.53-4.227.794-6.125.042-.301-.192-.571-.495-.543-.785.073-1.488.274-1.77.399a.288.288 0 0 0-.087.056c-.72.7-1.01 4.485-1.158 6.249-.062.496-.098.941-.13 1.345-.038.48.594.81.952.488z"/><path fill="none" stroke="#060f42" stroke-miterlimit="20" stroke-width=".7" d="M54.39 11.251a.5.5 0 0 1 .582.514l-.567 13.614a.5.5 0 0 1-.075.243l-9.552 15.34a.5.5 0 0 1-.667.173l-.473-.263a.5.5 0 0 1-.183-.7l9.23-14.998a.5.5 0 0 0 .074-.244l.425-11.766c.01-.283-.217-.519-.498-.487-.473.052-.992.172-1.332.36a.332.332 0 0 0-.146.156c-.453 1.028-1.163 6.048-1.595 10.373v.079a.5.5 0 0 1-.163.368l-10.105 9.252a.5.5 0 0 1-.691-.016l-.345-.344a.5.5 0 0 1 .01-.718l4.862-4.583c.143-.143.287-.7.43-2.334a.499.499 0 0 0-.118-.367l-1.284-1.5a.5.5 0 0 0-.755-.004L34.18 31.65a.5.5 0 0 0-.125.33V43.26a.5.5 0 0 1-.5.5h-.496a.5.5 0 0 1-.5-.5V31.386a.5.5 0 0 1 .128-.334l8.917-9.908a.5.5 0 0 1 .75.007l.804.928a.506.506 0 0 0 .882-.283c.414-4.034.86-5.473 1.683-6.158.657-.526 2.124-.706 3.18-.741a.528.528 0 0 0 .496-.408c.295-1.281.703-2.17 1.11-2.442 1.296-.863 3.146-.757 3.55-.748a.43.43 0 0 0 .081-.006zm-6.412 12.14a.5.5 0 0 0 .162-.31c.265-2.116.53-4.227.794-6.125.042-.301-.192-.571-.495-.543-.785.073-1.488.274-1.77.399a.288.288 0 0 0-.087.056c-.72.7-1.01 4.485-1.158 6.249-.062.496-.098.941-.13 1.345-.038.48.594.81.952.488z"/></g><g><path fill="#060f42" d="M1.7 11.44c.032.006.063.01.096.009.42-.01 2.254-.11 3.542.749.407.271.815 1.16 1.11 2.44.054.233.258.4.496.409 1.057.035 2.523.215 3.18.74.823.686 1.269 2.125 1.683 6.159a.506.506 0 0 0 .882.283l.805-.928a.5.5 0 0 1 .749-.007l8.917 9.908a.5.5 0 0 1 .128.334V43.41a.5.5 0 0 1-.5.5h-.496a.5.5 0 0 1-.5-.5V32.132a.5.5 0 0 0-.125-.331l-7.273-8.252a.5.5 0 0 0-.754.005l-1.263 1.473a.5.5 0 0 0-.11.423c.214 1.07.342 1.723.385 2.085.016.14.074.273.178.368l4.838 4.435a.5.5 0 0 1 .015.722l-.34.34a.5.5 0 0 1-.69.015L6.547 24.163a.5.5 0 0 1-.162-.368v-.08c-.29-4.487-1.14-9.534-1.6-10.398a.3.3 0 0 0-.118-.117c-.339-.195-.871-.32-1.355-.373-.281-.032-.508.204-.498.487l.425 11.766a.5.5 0 0 0 .074.244l9.23 14.999a.5.5 0 0 1-.183.7l-.473.262a.5.5 0 0 1-.667-.173l-9.552-15.34a.5.5 0 0 1-.075-.244l-.566-13.592a.5.5 0 0 1 .597-.511zM9.602 24.95c.357.322.989-.009.951-.488a28.806 28.806 0 0 0-.13-1.346c-.15-1.795-.449-5.684-1.197-6.282-.24-.24-.96-.384-1.775-.431a.486.486 0 0 0-.495.588c.368 1.902.622 4.093.76 6.072.01.13.068.252.165.339z"/><path fill="none" stroke="#060f42" stroke-miterlimit="20" stroke-width=".7" d="M1.7 11.44c.032.006.063.01.096.009.42-.01 2.254-.11 3.542.749.407.271.815 1.16 1.11 2.44.054.233.258.4.496.409 1.057.035 2.523.215 3.18.74.823.686 1.269 2.125 1.683 6.159a.506.506 0 0 0 .882.283l.805-.928a.5.5 0 0 1 .749-.007l8.917 9.908a.5.5 0 0 1 .128.334V43.41a.5.5 0 0 1-.5.5h-.496a.5.5 0 0 1-.5-.5V32.132a.5.5 0 0 0-.125-.331l-7.273-8.252a.5.5 0 0 0-.754.005l-1.263 1.473a.5.5 0 0 0-.11.423c.214 1.07.342 1.723.385 2.085.016.14.074.273.178.368l4.838 4.435a.5.5 0 0 1 .015.722l-.34.34a.5.5 0 0 1-.69.015L6.547 24.163a.5.5 0 0 1-.162-.368v-.08c-.29-4.487-1.14-9.534-1.6-10.398a.3.3 0 0 0-.118-.117c-.339-.195-.871-.32-1.355-.373-.281-.032-.508.204-.498.487l.425 11.766a.5.5 0 0 0 .074.244l9.23 14.999a.5.5 0 0 1-.183.7l-.473.262a.5.5 0 0 1-.667-.173l-9.552-15.34a.5.5 0 0 1-.075-.244l-.566-13.592a.5.5 0 0 1 .597-.511zM9.602 24.95c.357.322.989-.009.951-.488a28.806 28.806 0 0 0-.13-1.346c-.15-1.795-.449-5.684-1.197-6.282-.24-.24-.96-.384-1.775-.431a.486.486 0 0 0-.495.588c.368 1.902.622 4.093.76 6.072.01.13.068.252.165.339z"/></g><g><g><path fill="#ffcd1b" d="M28.368 22.987c6.28 0 11.369-5.09 11.369-11.369C39.737 5.34 34.647.25 28.368.25 22.09.25 17 5.34 17 11.618c0 6.279 5.09 11.369 11.368 11.369z"/></g><g><path fill="#060f42" d="M28.988 19.25H28.2c-.193 0-.29-.101-.29-.303v-1.154a.29.29 0 0 0-.291-.29c-.81 0-1.45-.245-1.917-.732-.468-.5-.702-1.183-.702-2.051v-.41c0-.215.103-.322.308-.322h1.078c.194 0 .291.107.291.321v.268c0 .5.109.862.325 1.088.217.214.57.321 1.062.321h.89c.479 0 .827-.113 1.044-.339.216-.238.325-.618.325-1.141v-.571c0-.5-.149-.838-.445-1.017-.297-.19-.742-.303-1.335-.339-.845-.035-1.432-.1-1.763-.196a2.832 2.832 0 0 1-.907-.446c-.582-.416-.873-1.183-.873-2.3v-.839c0-.868.228-1.546.685-2.033.467-.5 1.112-.75 1.934-.75.16 0 .29-.13.29-.29V4.553c0-.202.098-.303.291-.303h.788c.194 0 .29.101.29.303V5.93c0 .047.039.086.086.086.776 0 1.387.25 1.832.749.456.5.684 1.177.684 2.033v.393c0 .214-.097.32-.29.32H30.51c-.205 0-.308-.106-.308-.32v-.232c0-.5-.108-.856-.325-1.07-.206-.226-.554-.34-1.044-.34h-.788c-.502 0-.855.12-1.06.357-.206.226-.309.619-.309 1.178v.606c0 .452.143.767.428.945.297.179.747.286 1.352.321l.873.036c.799.048 1.443.285 1.934.713.49.417.736 1.136.736 2.159v.856c0 .868-.24 1.551-.719 2.05-.468.488-1.107.732-1.917.732a.086.086 0 0 0-.085.086v1.359c0 .202-.097.303-.291.303z"/><path fill="none" stroke="#060f42" stroke-miterlimit="20" stroke-width=".5" d="M28.988 19.25v0H28.2c-.193 0-.29-.101-.29-.303v-1.154a.29.29 0 0 0-.291-.29v0c-.81 0-1.45-.245-1.917-.732-.468-.5-.702-1.183-.702-2.051v-.41c0-.215.103-.322.308-.322h1.078c.194 0 .291.107.291.321v.268c0 .5.109.862.325 1.088.217.214.57.321 1.062.321h.89c.479 0 .827-.113 1.044-.339.216-.238.325-.618.325-1.141v-.571c0-.5-.149-.838-.445-1.017-.297-.19-.742-.303-1.335-.339-.845-.035-1.432-.1-1.763-.196a2.832 2.832 0 0 1-.907-.446c-.582-.416-.873-1.183-.873-2.3v-.839c0-.868.228-1.546.685-2.033.467-.5 1.112-.75 1.934-.75v0c.16 0 .29-.13.29-.29V4.553c0-.202.098-.303.291-.303h.788c.194 0 .29.101.29.303V5.93c0 .047.039.086.086.086v0c.776 0 1.387.25 1.832.749.456.5.684 1.177.684 2.033v.393c0 .214-.097.32-.29.32H30.51c-.205 0-.308-.106-.308-.32v-.232c0-.5-.108-.856-.325-1.07-.206-.226-.554-.34-1.044-.34h-.788c-.502 0-.855.12-1.06.357-.206.226-.309.619-.309 1.178v.606c0 .452.143.767.428.945.297.179.747.286 1.352.321l.873.036c.799.048 1.443.285 1.934.713.49.417.736 1.136.736 2.159v.856c0 .868-.24 1.551-.719 2.05-.468.488-1.107.732-1.917.732v0a.086.086 0 0 0-.085.086v1.359c0 .202-.097.303-.291.303z"/></g></g><g><path fill="#01579b" d="M25.282 42.61H9.93a1 1 0 0 0-1 1v4.133a1 1 0 0 0 1 1h15.352a1 1 0 0 0 1-1V43.61a1 1 0 0 0-1-1z"/></g><g><path fill="#01579b" d="M45.622 42.61H30.27a1 1 0 0 0-1 1v4.133a1 1 0 0 0 1 1h15.352a1 1 0 0 0 1-1V43.61a1 1 0 0 0-1-1z"/></g></g></g></g></svg>