<svg xmlns="http://www.w3.org/2000/svg" width="60" height="41" viewBox="0 0 60 41"><g><g><g/><g><g/><g><path fill="#fff" d="M43.67 1.67h-40v26.471h40z"/></g><g><path fill="#060f42" d="M44.857 27.314a2 2 0 0 1-2 2H4.49a2 2 0 0 1-2-2V2.5a2 2 0 0 1 2-2h38.367a2 2 0 0 1 2 2zm-40-2.343a2 2 0 0 0 2 2H40.49a2 2 0 0 0 2-2V4.843a2 2 0 0 0-2-2H6.857a2 2 0 0 0-2 2z"/></g></g><g><g><path fill="#fff" d="M58.463 33.359H43.67V8.82h11.42l3.373 12.24v7.497z"/></g><g><path fill="#ffcd1b" d="M57.453 32.598h-5.207l-.355-.468s-.71-.937-1.953-.937c-1.302 0-2.012.937-2.012.937l-.355.527H44.79v-2.343h1.657a4.99 4.99 0 0 1 3.55-1.464c1.598 0 3.195.761 3.846 1.464h3.61z"/></g><g><path fill="#060f42" d="M59.65 32.531a2 2 0 0 1-2 2H44.49a2 2 0 0 1-2-2V9.65a2 2 0 0 1 2-2h9.968a2 2 0 0 1 1.928 1.468l3.192 11.565a2 2 0 0 1 .072.532zM44.857 30.19a2 2 0 0 0 2 2h8.426a2 2 0 0 0 2-2v-8.683a2 2 0 0 0-.071-.528l-2.603-9.513a2 2 0 0 0-1.93-1.472h-5.822a2 2 0 0 0-2 2z"/></g></g><g/><g><path fill="#ffcd1b" d="M15.162 7.53H11.47a2 2 0 0 0-2 2v.685a2 2 0 0 0 2 2h3.692a2 2 0 0 0 2-2V9.53a2 2 0 0 0-2-2z"/></g><g><g><path fill="#fff" d="M41.665 28.14H3.18a2 2 0 0 0-2 2v1.212a2 2 0 0 0 2 2h38.485a2 2 0 0 0 2-2V30.14a2 2 0 0 0-2-2z"/></g><g><path fill="#060f42" d="M44.852 32.525a2 2 0 0 1-2 2H2a2 2 0 0 1-2-2V28.97a2 2 0 0 1 2-2h40.852a2 2 0 0 1 2 2zM2.367 30.747c0 .793.642 1.435 1.435 1.435H41.05a1.435 1.435 0 0 0 0-2.87H3.802c-.793 0-1.435.643-1.435 1.435z"/></g></g><g><path fill="#01579b" d="M54.098 17.405a2 2 0 0 1-1.956 2.418H48.39a2 2 0 0 1-2-2V13.8a2 2 0 0 1 2-2h2.891a2 2 0 0 1 1.956 1.582z"/></g><g><g><path fill="#fff" d="M9.41 39.325c1.993 0 3.609-1.6 3.609-3.573 0-1.973-1.616-3.572-3.61-3.572-1.993 0-3.609 1.6-3.609 3.572 0 1.974 1.616 3.573 3.61 3.573z"/></g><g><path fill="#060f42" d="M9.413 40.498c-2.663 0-4.793-2.109-4.793-4.744 0-2.636 2.13-4.744 4.793-4.744 2.663 0 4.793 2.108 4.793 4.744 0 2.635-2.19 4.744-4.793 4.744zm0-7.145c-1.361 0-2.426 1.054-2.426 2.4 0 1.348 1.065 2.402 2.426 2.402 1.36 0 2.426-1.054 2.426-2.401 0-1.347-1.124-2.401-2.426-2.401z"/></g></g><g><g><path fill="#fff" d="M31.12 39.325c1.993 0 3.609-1.6 3.609-3.573 0-1.973-1.616-3.572-3.61-3.572-1.993 0-3.609 1.6-3.609 3.572 0 1.974 1.616 3.573 3.61 3.573z"/></g><g><path fill="#060f42" d="M31.123 40.498c-2.663 0-4.793-2.109-4.793-4.744 0-2.636 2.13-4.744 4.793-4.744 2.663 0 4.793 2.108 4.793 4.744 0 2.635-2.19 4.744-4.793 4.744zm0-7.145c-1.361 0-2.426 1.054-2.426 2.4 0 1.348 1.065 2.402 2.426 2.402 1.36 0 2.426-1.054 2.426-2.401 0-1.347-1.124-2.401-2.426-2.401z"/></g></g><g><g><path fill="#fff" d="M49.94 39.325c1.993 0 3.609-1.6 3.609-3.573 0-1.973-1.616-3.572-3.61-3.572-1.993 0-3.609 1.6-3.609 3.572 0 1.974 1.616 3.573 3.61 3.573z"/></g><g><path fill="#060f42" d="M49.943 40.498c-2.663 0-4.793-2.109-4.793-4.744 0-2.636 2.13-4.744 4.793-4.744 2.663 0 4.793 2.108 4.793 4.744 0 2.635-2.13 4.744-4.793 4.744zm0-7.145c-1.361 0-2.426 1.054-2.426 2.4 0 1.348 1.065 2.402 2.426 2.402 1.36 0 2.426-1.054 2.426-2.401 0-1.347-1.065-2.401-2.426-2.401z"/></g></g><g><path fill="#060f42" d="M58.83 23.11H56.97a1.171 1.171 0 0 0 0 2.343h1.859a1.171 1.171 0 0 0 0-2.343z"/></g><g><path fill="#060f42" d="M9.41 37.104c.753 0 1.362-.603 1.362-1.347s-.61-1.347-1.361-1.347c-.752 0-1.361.603-1.361 1.347s.61 1.347 1.36 1.347z"/></g><g><path fill="#060f42" d="M31.12 37.104c.753 0 1.362-.603 1.362-1.347s-.61-1.347-1.361-1.347c-.752 0-1.361.603-1.361 1.347s.61 1.347 1.361 1.347z"/></g><g><path fill="#060f42" d="M49.941 37.104c.752 0 1.36-.603 1.36-1.347s-.608-1.347-1.36-1.347c-.752 0-1.361.603-1.361 1.347s.61 1.347 1.361 1.347z"/></g></g></g></svg>