<svg xmlns="http://www.w3.org/2000/svg" width="60" height="44" viewBox="0 0 60 44"><g><g><g/><g><g/><g><g/><g><path fill="#01579b" d="M58.892 23.934a4 4 0 0 1-2.737 4.949l-32.802 9.451a4 4 0 0 1-3.347-.529l-11.39-7.694A4 4 0 0 1 7.188 25.2l5.502-12.637a4 4 0 0 1 2.561-2.248L48.096.866a4 4 0 0 1 4.95 2.739z"/></g><g><g><path fill="#fff" d="M57.982 38.81a4 4 0 0 1-4 4H19.876a4 4 0 0 1-3.073-1.439L7.99 30.795a4 4 0 0 1-.005-5.115l8.818-10.625a4 4 0 0 1 3.078-1.445h34.101a4 4 0 0 1 4 4z"/></g><g><path fill="#060f42" d="M59.218 40.052a4 4 0 0 1-4 3.948H19.288a4 4 0 0 1-3.077-1.444L6.45 30.807a4 4 0 0 1 .005-5.119l9.816-11.761a4 4 0 0 1 3.07-1.437h35.886a4 4 0 0 1 4 4v22.95zm-41.882.137a4 4 0 0 0 3.075 1.442h32.387a4 4 0 0 0 4-4V18.8a4 4 0 0 0-4-4H20.416a4 4 0 0 0-3.08 1.449l-7.818 9.44a4 4 0 0 0 .005 5.109z"/></g></g><g><g><path fill="#01579b" d="M22.625 32.45a4.205 4.205 0 1 0 0-8.41 4.205 4.205 0 0 0 0 8.41z"/></g><g><path fill="#060f42" d="M22.63 33.58c-2.962 0-5.39-2.429-5.39-5.39 0-2.962 2.428-5.39 5.39-5.39 2.961 0 5.39 2.428 5.39 5.39 0 2.961-2.429 5.39-5.39 5.39zm0-8.352a3.033 3.033 0 0 0-3.02 3.021 3.033 3.033 0 0 0 3.02 3.02 3.033 3.033 0 0 0 3.02-3.02 3.033 3.033 0 0 0-3.02-3.02z"/></g></g><g><path fill="#060f42" d="M21.441 27.06H1.185a1.185 1.185 0 1 0 0 2.37H21.44a1.185 1.185 0 0 0 0-2.37z"/></g><g><path fill="#ffcd1b" d="M42.522 37.304a9.062 9.062 0 1 0 0-18.124 9.062 9.062 0 0 0 0 18.124z"/></g><g><g><path fill="#fff" d="M42.53 20.13l2.605 5.33 5.864.83-4.265 4.146 1.007 5.864-5.212-2.784-5.271 2.784 1.007-5.864L34 26.29l5.864-.83z"/></g><g><path fill="#060f42" d="M49.009 36.434a1 1 0 0 1-1.456 1.047l-4.558-2.418a1 1 0 0 0-.937 0l-4.544 2.41a1 1 0 0 1-1.454-1.053l.87-5.057a1 1 0 0 0-.287-.884l-3.68-3.601a1 1 0 0 1 .56-1.705l5.046-.71a1 1 0 0 0 .757-.546l2.305-4.65a1 1 0 0 1 1.792 0l2.307 4.654a1 1 0 0 0 .75.545l5.128.755a1 1 0 0 1 .554 1.705l-3.695 3.615a1 1 0 0 0-.288.878zM42.06 32.45a1 1 0 0 1 .928.006l1.405.747a1 1 0 0 0 1.455-1.054l-.27-1.554a1 1 0 0 1 .285-.886l1.143-1.12a1 1 0 0 0-.557-1.704l-1.566-.227a1 1 0 0 1-.754-.548l-.706-1.436a1 1 0 0 0-1.794 0l-.707 1.436a1 1 0 0 1-.754.548l-1.566.227a1 1 0 0 0-.556 1.704l1.142 1.12a1 1 0 0 1 .285.887l-.269 1.52a1 1 0 0 0 1.444 1.063z"/></g></g></g></g></g></g></svg>