<svg xmlns="http://www.w3.org/2000/svg" width="52" height="49" viewBox="0 0 52 49"><g><g><g/><g><g><g><g><g><path fill="#fff" d="M48.314 16.06c1.443 0 2.618 1.16 2.618 2.585v26.268c0 1.424-1.176 2.584-2.618 2.584H3.689c-1.443-.052-2.619-1.213-2.619-2.637V18.645c0-1.425 1.176-2.585 2.619-2.585h13.948"/></g><g><path fill="#060f42" d="M48.312 48.505H3.688C1.657 48.505 0 46.868 0 44.864V18.65c0-2.005 1.657-3.64 3.688-3.64h13.948v2.11H3.688c-.856 0-1.55.686-1.55 1.53v26.268c0 .79.694 1.477 1.55 1.477h44.624c.855 0 1.55-.686 1.55-1.53V18.65c0-.844-.695-1.53-1.55-1.53v-2.11c2.031 0 3.688 1.635 3.688 3.64v26.268c0 1.951-1.657 3.586-3.688 3.586z"/></g></g><g><g/><g><path fill="#060f42" d="M12.307 32.52H5.545a1.055 1.055 0 0 0 0 2.11h6.762a1.055 1.055 0 0 0 0-2.11z"/></g></g><g><g/><g><path fill="#060f42" d="M22.354 38.37H5.544a1.055 1.055 0 0 0 0 2.11h16.81a1.055 1.055 0 0 0 0-2.11z"/></g></g><g><g/><g><path fill="#060f42" d="M23.427 32.52h-6.762a1.055 1.055 0 0 0 0 2.11h6.762a1.055 1.055 0 0 0 0-2.11z"/></g></g><g><g/><g><path fill="#060f42" d="M34.487 32.52h-6.762a1.055 1.055 0 0 0 0 2.11h6.762a1.055 1.055 0 0 0 0-2.11z"/></g></g><g><g/><g><path fill="#060f42" d="M45.597 32.52h-6.762a1.055 1.055 0 0 0 0 2.11h6.762a1.055 1.055 0 0 0 0-2.11z"/></g></g><g><path fill="#ffcd1b" d="M11.304 22.6H6.86a2 2 0 0 0-2 2v1.802a2 2 0 0 0 2 2h4.444a2 2 0 0 0 2-2V24.6a2 2 0 0 0-2-2z"/></g></g></g><g><g><path fill="#fff" d="M40.354 5.303c-2.993-.527-5.558-1.793-7.162-3.323-1.603 1.53-4.168 2.796-7.161 3.323-1.87.37-3.688.37-5.291.106v10.127c0 7.807 5.29 11.182 12.452 13.292 7.215-2.057 12.452-5.485 12.452-13.292V5.461c-1.55.211-3.42.211-5.29-.158z"/></g><g><path fill="#060f42" d="M33.191 29.933l-.32-.105c-6.147-1.741-13.201-4.959-13.201-14.242V4.192l1.23.211c1.549.211 3.26.211 4.97-.105 2.672-.475 5.076-1.635 6.626-3.06L33.191.5l.748.738c1.497 1.477 3.902 2.585 6.627 3.06 1.71.316 3.42.369 4.97.105l1.23-.21v11.393c0 9.283-7.055 12.5-13.254 14.294zM21.808 15.586c0 6.171 3.42 9.81 11.383 12.184 7.963-2.373 11.383-6.013 11.383-12.184V6.619c-1.443.105-2.939 0-4.435-.264-2.726-.475-5.184-1.582-6.948-2.954-1.764 1.424-4.275 2.48-6.948 2.954-1.496.264-2.992.37-4.435.264z"/></g></g><g><path fill="#01579b" d="M33.186 25.552c-6.627-2.057-9.246-4.905-9.246-9.97V8.727a21.751 21.751 0 0 0 2.672-.317c2.459-.475 4.703-1.319 6.574-2.479 1.87 1.16 4.115 2.004 6.573 2.48.909.157 1.817.263 2.672.316v6.804c.054 5.064-2.565 7.912-9.245 10.022z"/></g><g><path fill="#fff" d="M33.189 20.864c3.246 0 5.878-2.597 5.878-5.802 0-3.204-2.632-5.802-5.878-5.802-3.247 0-5.879 2.598-5.879 5.802 0 3.205 2.632 5.802 5.879 5.802z"/></g><g><g><path fill="#fff" d="M35.704 12.9l-2.993 3.745-2.031-1.266"/></g><g><path fill="#060f42" d="M34.043 16.641a2 2 0 0 1-2.617.422l-1.2-.76a1.055 1.055 0 0 1 1.134-1.78l.152.097a1.234 1.234 0 0 0 1.623-.26l1.047-1.286a1.077 1.077 0 1 1 1.669 1.363z"/></g></g></g></g></g></svg>