<svg width="60" height="60" viewBox="0 0 60 60" fill="none" xmlns="http://www.w3.org/2000/svg">
<path d="M43.4438 16.7104L42.9045 13.5517L47.9892 8.46698C45.2157 7.23431 41.8259 7.69654 39.4376 10.0848C37.3575 12.165 36.6641 15.1696 37.5116 17.712L17.7118 37.5117C15.0924 36.7412 12.1649 37.3576 10.0848 39.4377C7.7735 41.749 7.23421 45.2158 8.46688 47.9893L13.5516 42.9046L16.7103 43.4439L17.2496 46.6026L12.2419 51.6103C14.9384 52.7659 18.2512 52.2266 20.5624 49.9153C22.6425 47.8352 23.3359 44.8306 22.4884 42.2883L42.2882 22.4885C44.9076 23.259 47.8351 22.6426 49.9153 20.5625C52.1495 18.3283 52.7658 14.9384 51.6102 12.242L46.6025 17.2497L43.4438 16.7104Z" stroke="#060F42" stroke-width="2.3" stroke-miterlimit="10"/>
<path d="M15.7849 11.7025L15.4768 15.4005L11.7017 15.7857L7.92667 10.4698L10.469 7.92745L15.7849 11.7025Z" fill="#01579B" stroke="#01579B" stroke-width="2.3" stroke-miterlimit="10"/>
<path d="M15.4772 15.4007L29.884 30.2697" stroke="#01579B" stroke-width="2.3" stroke-miterlimit="10"/>
<path d="M31.4637 28.382L28.1509 31.6948C27.7893 32.0564 27.7893 32.6428 28.1509 33.0045C28.5126 33.3661 29.099 33.3661 29.4606 33.0045L32.7734 29.6917C33.1351 29.33 33.1351 28.7436 32.7734 28.382C32.4118 28.0203 31.8254 28.0203 31.4637 28.382Z" fill="#FFCD1B"/>
<path d="M34.4023 30.5283L30.297 34.6336C29.516 35.4147 29.516 36.681 30.297 37.4621L43.8785 51.0435C44.6595 51.8245 45.9258 51.8245 46.7069 51.0435L50.8122 46.9382C51.5933 46.1571 51.5933 44.8908 50.8122 44.1097L37.2308 30.5283C36.4497 29.7473 35.1834 29.7473 34.4023 30.5283Z" fill="#FFCD1B"/>
<path d="M33.5684 28.2802L28.0489 33.7997C27.6584 34.1903 27.6584 34.8234 28.0489 35.2139L28.1755 35.3406C28.566 35.7311 29.1992 35.7311 29.5897 35.3406L35.1093 29.821C35.4998 29.4305 35.4998 28.7973 35.1093 28.4068L34.9827 28.2802C34.5921 27.8897 33.959 27.8897 33.5684 28.2802Z" fill="#060F42"/>
<path d="M32.4277 34.9688L46.6034 49.1444" stroke="#060F42" stroke-width="2.3" stroke-miterlimit="10"/>
<path d="M34.7383 32.6572L48.9139 46.8329" stroke="#060F42" stroke-width="2.3" stroke-miterlimit="10"/>
</svg>
