<svg xmlns="http://www.w3.org/2000/svg" width="48" height="48" viewBox="0 0 48 48"><g><g><g/><g><g/><g/><g transform="rotate(135 5.5 5.5)"><path fill="#01579b" d="M3.43 4.307L6.263 1.91l2.942 2.397-1.09 6.428H4.52z"/><path fill="none" stroke="#01579b" stroke-miterlimit="20" stroke-width="2.3" d="M3.43 4.307v0L6.263 1.91v0l2.942 2.397v0l-1.09 6.428v0H4.52v0z"/></g><g/><g><path fill="#ffcd1b" d="M25.464 22.382l-3.313 3.313a.926.926 0 0 0 1.31 1.31l3.313-3.313a.926.926 0 0 0-1.31-1.31z"/></g><g transform="rotate(135 34.5 34.5)"><path fill="#ffcd1b" d="M31.65 46.387h5.806a2 2 0 0 0 2-2V25.18a2 2 0 0 0-2-2H31.65a2 2 0 0 0-2 2v19.207a2 2 0 0 0 2 2z"/></g><g><path fill="#060f42" d="M27.569 22.28l-5.52 5.52a1 1 0 0 0 0 1.414l.127.127a1 1 0 0 0 1.414 0l5.52-5.52a1 1 0 0 0 0-1.414l-.127-.127a1 1 0 0 0-1.414 0z"/></g><g><g/><g/></g></g></g></g></svg>