<svg width="60" height="45" viewBox="0 0 60 45" fill="none" xmlns="http://www.w3.org/2000/svg">
<g clip-path="url(#clip0_47:6974)">
<path d="M58.8948 24.9286C59.505 27.0509 58.28 29.2661 56.158 29.8775L23.3561 39.3289C22.2173 39.6571 20.9917 39.4633 20.0097 38.8L8.61953 31.1063C7.02209 30.0273 6.4215 27.9624 7.19101 26.1949L12.693 13.5576C13.1691 12.464 14.1083 11.64 15.2545 11.3102L48.0996 1.86097C50.2228 1.25012 52.4392 2.47637 53.0497 4.59972L58.8948 24.9286Z" fill="#01579B"/>
<path d="M57.9867 39.8146C57.9867 42.0238 56.1958 43.8146 53.9867 43.8146H19.8799C18.6928 43.8146 17.567 43.2874 16.807 42.3754L7.99389 31.7996C6.75966 30.3185 6.75751 28.1678 7.98878 26.6843L16.8068 16.0597C17.5667 15.144 18.6949 14.6143 19.8848 14.6143H53.9867C56.1958 14.6143 57.9867 16.4051 57.9867 18.6143V39.8146Z" fill="white"/>
<path d="M59.2225 41.0516C59.194 43.2403 57.4117 44.9996 55.2228 44.9996H19.2912C18.102 44.9996 16.9744 44.4705 16.2145 43.5558L6.45277 31.8064C5.21953 30.322 5.22192 28.1688 6.45845 26.6872L16.274 14.9262C17.034 14.0156 18.1589 13.4893 19.345 13.4893H55.2304C57.4396 13.4893 59.2304 15.2801 59.2304 17.4893V40.4389L59.2225 41.0516ZM17.3399 41.1885C18.0999 42.102 19.2267 42.6304 20.415 42.6304H52.802C55.0111 42.6304 56.802 40.8396 56.802 38.6304V19.7992C56.802 17.5901 55.0111 15.7992 52.802 15.7992H20.4203C19.229 15.7992 18.0996 16.3303 17.3397 17.2478L9.52189 26.6874C8.29401 28.17 8.29634 30.3169 9.52743 31.7969L17.3399 41.1885Z" fill="#060F42"/>
<path d="M22.6262 33.4497C24.9488 33.4497 26.8316 31.5669 26.8316 29.2444C26.8316 26.9219 24.9488 25.0391 22.6262 25.0391C20.3037 25.0391 18.4209 26.9219 18.4209 29.2444C18.4209 31.5669 20.3037 33.4497 22.6262 33.4497Z" fill="#01579B"/>
<path d="M22.6263 34.5748C19.6648 34.5748 17.2363 32.1464 17.2363 29.1849C17.2363 26.2234 19.6648 23.7949 22.6263 23.7949C25.5878 23.7949 28.0162 26.2234 28.0162 29.1849C28.0162 32.1464 25.5878 34.5748 22.6263 34.5748ZM22.6263 26.2234C20.9678 26.2234 19.6055 27.5856 19.6055 29.2441C19.6055 30.9025 20.9678 32.2648 22.6263 32.2648C24.2847 32.2648 25.647 30.9025 25.647 29.2441C25.647 27.5856 24.2847 26.2234 22.6263 26.2234Z" fill="#060F42"/>
<path d="M21.4413 28.0605H1.1846C0.530364 28.0605 0 28.5909 0 29.2451C0 29.8994 0.530364 30.4297 1.1846 30.4297H21.4413C22.0955 30.4297 22.6259 29.8994 22.6259 29.2451C22.6259 28.5909 22.0955 28.0605 21.4413 28.0605Z" fill="#060F42"/>
<path d="M42.527 38.306C47.5319 38.306 51.5892 34.2487 51.5892 29.2438C51.5892 24.2389 47.5319 20.1816 42.527 20.1816C37.5221 20.1816 33.4648 24.2389 33.4648 29.2438C33.4648 34.2487 37.5221 38.306 42.527 38.306Z" fill="#FFCD1B"/>
<path d="M42.5272 21.1299L45.1333 26.4606L50.9971 27.2898L46.7325 31.4359L47.7394 37.2997L42.5272 34.5159L37.2557 37.2997L38.2626 31.4359L33.998 27.2898L39.8618 26.4606L42.5272 21.1299Z" fill="white"/>
<path d="M49.0094 37.439C49.1444 38.2557 48.2854 38.8734 47.5542 38.4856L42.9961 36.0678C42.7031 35.9123 42.352 35.9123 42.0589 36.0678L37.5152 38.478C36.7813 38.8672 35.9203 38.2438 36.061 37.4252L36.9302 32.368C36.9859 32.0441 36.8789 31.7136 36.6441 31.4838L32.9639 27.8828C32.3706 27.3023 32.702 26.2934 33.524 26.1778L38.5698 25.4682C38.8967 25.4222 39.1799 25.2179 39.3265 24.9221L41.6316 20.2722C41.999 19.5311 43.0561 19.5311 43.4235 20.2722L45.7304 24.9258C45.876 25.2196 46.1563 25.4232 46.4806 25.471L51.6086 26.2263C52.4269 26.3468 52.7534 27.352 52.1623 27.9304L48.4673 31.5459C48.2341 31.7741 48.1269 32.1018 48.1801 32.4238L49.0094 37.439ZM42.0617 33.4535C42.3534 33.303 42.7005 33.3052 42.9902 33.4594L44.3943 34.2067C45.129 34.5978 45.9919 33.9726 45.8493 33.1526L45.5791 31.5986C45.5227 31.2744 45.6294 30.9433 45.8644 30.713L47.0076 29.5927C47.5988 29.0133 47.2703 28.0075 46.4511 27.8888L44.8849 27.6618C44.5587 27.6145 44.2767 27.4095 44.1311 27.1137L43.4248 25.6782C43.0584 24.9336 41.9967 24.9336 41.6303 25.6782L40.9239 27.1137C40.7784 27.4095 40.4964 27.6145 40.1701 27.6618L38.604 27.8888C37.7848 28.0075 37.4563 29.0133 38.0475 29.5927L39.1896 30.7119C39.4252 30.9428 39.5318 31.275 39.4744 31.5999L39.2062 33.12C39.0624 33.9349 39.9142 34.5619 40.6496 34.1824L42.0617 33.4535Z" fill="#060F42"/>
</g>
<defs>
<clipPath id="clip0_47:6974">
<rect width="60" height="44.2448" fill="white" transform="translate(0 0.754883)"/>
</clipPath>
</defs>
</svg>
