<svg xmlns="http://www.w3.org/2000/svg" width="44" height="60" viewBox="0 0 44 60"><g><g><g/><g><g><g><path fill="#060f42" d="M41.044 30.42h-2.395V19.041c0-9.162-7.485-16.647-16.647-16.647-9.162 0-16.647 7.485-16.647 16.647v11.377H2.96V19.042C2.96 8.562 11.523 0 22.002 0 32.48 0 41.044 8.563 41.044 19.042z"/></g></g><g><path fill="#01579b" d="M41.525 32.159a3.731 3.731 0 0 1-3.713 3.713h-.3a3.731 3.731 0 0 1-3.712-3.713v-6.766a3.731 3.731 0 0 1 3.713-3.713h.299a3.731 3.731 0 0 1 3.713 3.713z"/></g><g><path fill="#ffcd1b" d="M37.328 47.425c0 1.976-1.676 3.533-3.772 3.533H10.322c-2.095 0-3.772-1.557-3.772-3.533V23.533C6.55 21.557 8.227 20 10.322 20h23.234c2.096 0 3.772 1.557 3.772 3.533z"/></g><g><g><path fill="#fff" d="M36.253 21.795v8.623c0 7.844-6.347 14.251-14.252 14.251-7.844 0-14.251-6.347-14.251-14.251V24.43l6.467-10.18 22.036 2.994"/></g><g><path fill="#060f42" d="M22 45.864c-8.504 0-15.45-6.946-15.45-15.449v-6.347l7.066-11.138 22.754 3.114-.299 2.395-21.258-2.934-5.868 9.221v5.63c0 7.185 5.868 13.053 13.054 13.053s13.054-5.868 13.054-13.054v-8.563h2.395v8.623c0 8.503-6.946 15.45-15.449 15.45z"/></g></g><g><g><path fill="#ffcd1b" d="M7.75 19.045v5.449c5.03-.18 9.042-5.39 9.042-11.916 0-2.276-.48-4.372-1.377-6.168-4.551 2.335-7.665 7.126-7.665 12.635z"/></g><g><path fill="#ffcd1b" d="M6.55 25.688v-6.647c0-5.808 3.174-11.018 8.323-13.712l1.078-.599.54 1.138a15.921 15.921 0 0 1 1.496 6.706c0 7.186-4.49 12.934-10.24 13.114zm8.323-17.605c-3.652 2.395-5.928 6.467-5.928 10.898v4.072c3.773-.898 6.647-5.329 6.647-10.539.06-1.497-.24-2.994-.719-4.43z"/></g></g><g><g><path fill="#fff" d="M1.64 59.997v-5.868c0-3.114 2.874-5.629 6.347-5.629h27.964c3.533 0 6.348 2.515 6.348 5.629v5.868"/></g><g><path fill="#060f42" d="M43.498 58.781a1.17 1.17 0 0 1-2.34.053v-4.698c0-2.455-2.335-4.43-5.15-4.43H7.986c-2.814 0-5.15 2.035-5.15 4.43v4.671a1.198 1.198 0 0 1-2.395 0v-4.67c0-3.713 3.413-6.827 7.545-6.827h27.964c4.192 0 7.545 3.054 7.545 6.826v4.551z"/></g></g><g><g><path fill="#060f42" d="M22.208 52.4h-.06a1.168 1.168 0 0 0 0 2.335h.06a1.168 1.168 0 1 0 0-2.335z"/></g></g><g><g><path fill="#060f42" d="M22.208 57.66h-.06a1.168 1.168 0 0 0 0 2.335h.06a1.168 1.168 0 0 0 0-2.335z"/></g></g><g><path fill="#01579b" d="M9.604 32.159a3.731 3.731 0 0 1-3.712 3.713h-.36a3.731 3.731 0 0 1-3.712-3.713v-6.766a3.731 3.731 0 0 1 3.713-3.713h.299a3.731 3.731 0 0 1 3.713 3.713v6.766z"/></g><g><g><path fill="#060f42" d="M24.155 33.118v-4.97a1.198 1.198 0 0 0-2.395 0v4.97a1.198 1.198 0 0 0 2.395 0z"/></g></g><g><g><path fill="#060f42" d="M5.355 30.42H2.96V19.041C2.96 8.562 11.523 0 22.002 0v2.395c-9.162 0-16.647 7.485-16.647 16.647z"/></g></g><g><g><path fill="#ffcd1b" d="M22 4.79c-3.772 0-7.245 1.497-9.82 3.892.24 9.282 9.042 16.707 19.82 16.707 1.437 0 2.875-.12 4.252-.42v-5.928C36.252 11.137 29.845 4.79 22 4.79z"/></g><g><path fill="#ffcd1b" d="M31.998 26.584c-11.497 0-20.719-7.844-21.018-17.844V8.2l.36-.358c2.933-2.755 6.706-4.252 10.658-4.252 8.503 0 15.45 6.946 15.45 15.45v6.945l-.959.18c-1.497.24-2.994.419-4.491.419zM13.435 9.219c.539 8.263 8.802 14.97 18.623 14.97 1.018 0 2.036-.06 3.054-.24v-4.91c-.06-7.186-5.928-13.054-13.114-13.054-3.174 0-6.228 1.138-8.563 3.234z"/></g></g><g><g><path fill="#060f42" d="M36.136 41.737H25.478a1.198 1.198 0 0 1 0-2.395h10.658c.659 0 1.198-.54 1.198-1.198v-1.676a1.198 1.198 0 0 1 2.395 0v1.676a3.565 3.565 0 0 1-3.593 3.593z"/></g></g></g></g></g></svg>