<svg xmlns="http://www.w3.org/2000/svg" width="52" height="59" viewBox="0 0 52 59"><g><g><g/><g><g/><g><g><path fill="#01579b" d="M37.289 56.784a2 2 0 0 1-2.883 1.795l-7.547-3.713a2 2 0 0 0-1.77.002l-7.482 3.7a2 2 0 0 1-2.887-1.792V33.08a2 2 0 0 1 1.002-1.733l9.256-5.332a2 2 0 0 1 1.993-.003l9.312 5.336a2 2 0 0 1 1.006 1.735z"/></g><g><g><path fill="#fff" d="M25.968 50.578c-1.162 0-1.957-.856-2.63-1.59-.244-.245-.734-.734-.917-.795-.184 0-.734.305-1.101.489-.734.367-1.468.795-2.263.795-.245 0-.49-.061-.673-.122-1.1-.367-1.59-1.407-2.018-2.325-.184-.367-.428-.917-.612-1.04h-.183c-.306 0-.673.062-1.04.123-.49.061-.979.183-1.468.183-.611 0-1.162-.122-1.59-.489-.918-.673-1.101-1.835-1.223-2.813-.061-.367-.123-1.04-.245-1.223-.122-.123-.795-.184-1.162-.245-.979-.122-2.14-.306-2.814-1.223-.672-.918-.489-2.019-.305-3.058.06-.367.183-1.04.122-1.224-.122-.122-.673-.428-1.04-.611-.856-.428-1.957-.918-2.324-2.019-.367-1.04.184-2.08.673-2.935.183-.367.49-.918.49-1.163-.062-.183-.49-.611-.796-.856-.673-.55-1.529-1.407-1.529-2.569s.856-1.957 1.59-2.63c.306-.244.734-.734.795-.917 0-.184-.305-.734-.489-1.101-.49-.917-1.04-1.896-.673-2.936.367-1.1 1.407-1.59 2.324-2.018.367-.184.918-.428 1.04-.612.061-.183-.061-.795-.122-1.223-.184-.979-.367-2.14.306-3.058.672-.918 1.835-1.101 2.813-1.223.367-.061 1.04-.123 1.223-.245.123-.122.184-.795.245-1.162.122-.979.306-2.14 1.223-2.814.306-.305.857-.428 1.468-.428.49 0 .979.062 1.468.184.367.061.734.122 1.04.122h.183c.123-.122.428-.673.612-1.04.428-.856.917-1.957 2.018-2.324.245-.06.428-.122.673-.122.795 0 1.53.367 2.263.795.367.184.917.49 1.162.49.184-.062.612-.49.856-.796.673-.734 1.53-1.59 2.63-1.59 1.162 0 1.958.856 2.63 1.59.245.306.734.734.918.795.183 0 .734-.305 1.1-.489.735-.367 1.469-.795 2.264-.795.244 0 .489.061.672.122 1.101.367 1.59 1.407 2.019 2.324.183.367.428.918.611 1.04h.184c.306 0 .673-.061 1.04-.122a6.532 6.532 0 0 1 1.529-.184c.611 0 1.162.123 1.59.49.917.672 1.1 1.835 1.223 2.813.061.367.123 1.04.245 1.223.122.123.795.184 1.162.245.979.122 2.14.306 2.813 1.223.673.918.49 2.019.306 3.058-.061.367-.183 1.04-.122 1.224.122.122.673.428 1.04.611.856.428 1.957.918 2.324 2.018.367 1.04-.184 2.08-.673 2.936-.183.367-.49.918-.49 1.162.062.184.49.612.796.857.673.673 1.59 1.529 1.59 2.63 0 1.162-.856 1.957-1.59 2.63-.306.244-.734.734-.795.917 0 .183.306.734.489 1.101.49.917 1.04 1.896.673 2.936-.367 1.1-1.407 1.59-2.324 2.018-.367.184-.918.428-1.04.612-.061.183.061.795.122 1.223.184.979.367 2.14-.306 3.058-.672.918-1.834 1.101-2.813 1.223-.367.062-1.04.123-1.223.245-.123.122-.184.795-.245 1.162-.122.979-.306 2.14-1.223 2.814-.428.305-.918.489-1.59.489-.49 0-.98-.061-1.468-.184-.367-.06-.734-.122-1.04-.122h-.184c-.122.122-.428.673-.611 1.04-.428.856-.918 1.957-2.019 2.324-.244.061-.428.122-.672.122-.795 0-1.53-.367-2.263-.795-.367-.183-.918-.49-1.162-.49-.184.062-.612.49-.857.796-.611.55-1.468 1.468-2.63 1.468z"/></g><g><path fill="#060f42" d="M25.972 2.446c1.162 0 2.201 2.141 3.363 2.325h.184c1.04 0 2.385-1.285 3.425-1.285.122 0 .245 0 .306.061 1.1.367 1.407 2.753 2.446 3.242.184.122.49.122.734.122.795 0 1.713-.305 2.508-.305.306 0 .611.06.856.244.979.673.49 3.058 1.346 3.853.856.857 3.18.367 3.853 1.346.673.917-.49 3.058.061 4.098.55 1.04 2.875 1.345 3.242 2.446.367 1.101-1.407 2.753-1.224 3.915.184 1.162 2.325 2.14 2.325 3.364 0 1.223-2.141 2.201-2.324 3.364-.184 1.162 1.59 2.813 1.223 3.914-.367 1.1-2.753 1.407-3.242 2.446-.55 1.04.612 3.12-.061 4.098-.673.979-3.058.49-3.853 1.346-.857.856-.367 3.18-1.346 3.853-.245.183-.55.245-.856.245-.734 0-1.713-.306-2.508-.306-.305 0-.55.061-.734.122-1.04.55-1.345 2.875-2.446 3.242-.122.06-.184.06-.306.06-1.04 0-2.385-1.283-3.425-1.283h-.183c-1.163.183-2.141 2.324-3.364 2.324-1.224 0-2.202-2.141-3.364-2.324h-.184c-1.04 0-2.385 1.284-3.425 1.284-.122 0-.245 0-.306-.061-1.1-.367-1.407-2.753-2.446-3.242-.184-.122-.49-.122-.734-.122-.795 0-1.713.306-2.508.306-.306 0-.611-.061-.856-.245-.979-.673-.49-3.058-1.346-3.853-.856-.856-3.18-.367-3.853-1.346-.673-.917.49-3.058-.061-4.098-.55-1.04-2.936-1.345-3.242-2.446-.367-1.101 1.407-2.752 1.224-3.914-.184-1.163-2.325-2.141-2.325-3.364 0-1.163 2.141-2.202 2.325-3.364.183-1.162-1.59-2.814-1.224-3.915.367-1.1 2.753-1.407 3.242-2.446.55-1.04-.612-3.12.061-4.098.673-.979 3.058-.49 3.853-1.346.857-.856.367-3.18 1.346-3.853.245-.183.55-.245.856-.245.795 0 1.713.306 2.508.306.306 0 .55-.06.734-.122 1.04-.55 1.345-2.875 2.446-3.242.123-.06.184-.06.306-.06 1.04 0 2.385 1.284 3.425 1.284h.184c1.162-.184 2.202-2.325 3.364-2.325zm0-2.446c-1.652 0-2.814 1.162-3.548 1.957-.061.061-.122.184-.245.245-.122-.061-.244-.122-.305-.184-.795-.428-1.713-.917-2.814-.917-.367 0-.734.061-1.1.183-1.59.49-2.264 1.958-2.753 2.936a.468.468 0 0 0-.122.306c-.123 0-.245-.061-.367-.061a6.821 6.821 0 0 0-1.652-.184c-.917 0-1.651.245-2.324.673-1.345.979-1.529 2.569-1.712 3.609 0 .122-.062.244-.062.367-.122 0-.244.06-.366.06-1.04.123-2.63.368-3.609 1.713-.979 1.346-.673 2.936-.49 3.976 0 .122.062.245.062.367-.122.061-.184.122-.306.122-.979.49-2.446 1.162-2.936 2.752-.49 1.59.245 2.936.734 3.915.061.122.123.183.184.306l-.245.244C1.262 23.12.1 24.22.1 25.872c0 1.65 1.162 2.813 1.957 3.547.061.061.184.122.245.245-.061.122-.122.244-.184.305-.55.979-1.284 2.325-.734 3.915.49 1.59 1.958 2.263 2.936 2.752.061.061.184.122.306.184 0 .122-.061.244-.061.366-.184.98-.49 2.57.49 3.915.978 1.345 2.568 1.529 3.608 1.712.122 0 .244.062.367.062 0 .122.06.244.06.367.123 1.04.368 2.63 1.713 3.608.612.49 1.407.673 2.324.673.612 0 1.163-.122 1.652-.184.122 0 .244-.06.367-.06.061.122.122.183.122.305.49.979 1.162 2.447 2.752 2.936.367.122.734.183 1.101.183 1.101 0 2.08-.489 2.814-.917.122-.061.183-.122.306-.183l.244.244c.734.795 1.896 1.957 3.548 1.957 1.651 0 2.813-1.162 3.547-1.957.061-.061.122-.183.245-.244.122.06.244.122.306.183.795.428 1.712.917 2.813.917.367 0 .734-.06 1.101-.183 1.59-.49 2.263-1.957 2.752-2.936a.467.467 0 0 0 .123-.306c.122 0 .244.062.367.062.489.06 1.1.183 1.65.183.918 0 1.652-.245 2.325-.673 1.346-.978 1.53-2.569 1.713-3.608 0-.123.06-.245.06-.367.123 0 .245-.061.368-.061 1.04-.123 2.63-.368 3.608-1.713.979-1.346.673-2.936.49-3.976 0-.122-.062-.244-.062-.367.123-.06.184-.122.306-.122.979-.49 2.447-1.162 2.936-2.752.49-1.59-.245-2.936-.734-3.915-.061-.122-.122-.183-.183-.305.06-.062.183-.184.244-.245.795-.734 1.957-1.896 1.957-3.547 0-1.652-1.162-2.814-1.957-3.548-.06-.061-.183-.122-.244-.245.06-.122.122-.244.183-.305.55-.979 1.285-2.325.734-3.915-.49-1.59-1.957-2.263-2.936-2.752a.468.468 0 0 0-.306-.122c0-.123.062-.245.062-.367.183-1.04.489-2.63-.49-3.976-.978-1.345-2.568-1.529-3.608-1.712-.123 0-.245-.062-.367-.062 0-.122-.061-.244-.061-.366-.123-1.04-.367-2.63-1.713-3.609-.611-.49-1.407-.673-2.324-.673-.612 0-1.162.123-1.651.184-.123 0-.245.06-.367.06-.062-.06-.123-.183-.184-.244-.49-.978-1.162-2.446-2.752-2.936a3.464 3.464 0 0 0-1.101-.183c-1.101 0-2.08.49-2.814.917-.122.062-.183.123-.305.184a564.12 564.12 0 0 1-.245-.245C28.785 1.162 27.684 0 25.972 0z"/></g></g><g><g><path fill="#fff" d="M42.176 25.868c0 8.99-7.217 16.208-16.208 16.208-8.93 0-16.208-7.278-16.208-16.208S17.038 9.66 25.968 9.66c8.99 0 16.208 7.278 16.208 16.208z"/></g><g><path fill="#060f42" d="M25.971 43.302c-9.602 0-17.431-7.828-17.431-17.43 0-9.603 7.829-17.432 17.431-17.432 9.603 0 17.431 7.829 17.431 17.431 0 9.603-7.828 17.431-17.43 17.431zm0-32.416c-8.257 0-14.985 6.728-14.985 14.985s6.728 14.985 14.985 14.985 14.985-6.728 14.985-14.985-6.728-14.985-14.985-14.985z"/></g></g><g><g><path fill="#ffcd1b" d="M25.087 19.283a1 1 0 0 1 1.788-.008l1.557 3.078a1 1 0 0 0 .74.537l3.44.532a1 1 0 0 1 .545 1.705l-2.467 2.396a1 1 0 0 0-.29.88l.566 3.428a1 1 0 0 1-1.454 1.047l-3.072-1.624a1 1 0 0 0-.935 0l-3.049 1.612a1 1 0 0 1-1.452-1.057l.596-3.4a1 1 0 0 0-.288-.89l-2.462-2.392a1 1 0 0 1 .544-1.705l3.435-.532a1 1 0 0 0 .744-.545z"/></g><g><path fill="#060f42" d="M32.597 34.014a1 1 0 0 1-1.454 1.054l-4.64-2.463a1 1 0 0 0-.938 0l-4.637 2.462a1 1 0 0 1-1.454-1.055l.902-5.167a1 1 0 0 0-.293-.895l-3.815-3.65a1 1 0 0 1 .55-1.713l5.201-.737a1 1 0 0 0 .76-.556l2.305-4.773a1 1 0 0 1 1.797-.01l2.344 4.73a1 1 0 0 0 .756.547l5.22.74a1 1 0 0 1 .556 1.708L31.98 27.89a1 1 0 0 0-.29.89zm-10.563-9.719a1 1 0 0 0-.554 1.704l1.18 1.155a1 1 0 0 1 .284.89l-.278 1.55a1 1 0 0 0 1.455 1.058l1.381-.736a1 1 0 0 1 .941 0l1.414.754a1 1 0 0 0 1.458-1.044l-.261-1.59a1 1 0 0 1 .287-.876l1.19-1.165a1 1 0 0 0-.553-1.703l-1.59-.238a1 1 0 0 1-.75-.548l-.707-1.436a1 1 0 0 0-1.795 0l-.705 1.435a1 1 0 0 1-.752.548z"/></g></g></g></g></g></g></svg>