<svg width="100" height="100" viewBox="0 0 100 100" fill="none" xmlns="http://www.w3.org/2000/svg">
<path fill-rule="evenodd" clip-rule="evenodd" d="M65.4368 15.3549C57.9659 12.026 49.619 11.2013 41.6411 13.0038C33.6632 14.8063 26.4817 19.1394 21.1676 25.3569C15.8536 31.5743 12.6917 39.343 12.1535 47.5043C11.6154 55.6656 13.7298 63.7822 18.1814 70.6436C22.6331 77.505 29.1834 82.7435 36.8556 85.578C44.5277 88.4125 52.9106 88.6909 60.7539 86.3719C68.5973 84.0529 75.4809 79.2606 80.3781 72.7097C85.2753 66.1589 87.9237 58.2006 87.9284 50.0216V46.395C87.9284 45.5666 88.6 44.895 89.4284 44.895C90.2569 44.895 90.9284 45.5666 90.9284 46.395V50.0224C90.9234 58.8483 88.0655 67.437 82.7809 74.506C77.4963 81.575 70.0683 86.7463 61.6046 89.2488C53.1408 91.7513 44.0949 91.4507 35.8159 88.3921C27.5369 85.3334 20.4685 79.6805 15.6647 72.2764C10.861 64.8723 8.57929 56.1137 9.16001 47.3069C9.74073 38.5001 13.1527 30.117 18.8871 23.4077C24.6215 16.6985 32.371 12.0227 40.98 10.0776C49.5889 8.13253 58.5959 9.02242 66.6578 12.6146C67.4145 12.9517 67.7546 13.8385 67.4174 14.5952C67.0803 15.3519 66.1935 15.692 65.4368 15.3549ZM90.4891 19.3678C91.0749 19.9536 91.0749 20.9033 90.4891 21.4891L51.0605 60.9177C50.7792 61.199 50.3977 61.357 49.9999 61.357C49.602 61.357 49.2205 61.199 48.9392 60.9177L32.5106 44.4891C31.9248 43.9033 31.9248 42.9536 32.5106 42.3678C33.0964 41.782 34.0462 41.782 34.632 42.3678L49.9999 57.7357L88.3678 19.3678C88.9536 18.782 89.9033 18.782 90.4891 19.3678Z" fill="#06A56C"/>
</svg>
