<svg width="25" height="24" viewBox="0 0 25 24" fill="none" xmlns="http://www.w3.org/2000/svg">
<path fill-rule="evenodd" clip-rule="evenodd" d="M24.4998 12.2672C24.4998 11.4506 24.4318 10.634 24.2957 9.83398H12.7485V14.4505H19.3639C19.0918 15.9338 18.2075 17.2671 16.915 18.1004V21.1003H20.8605C23.1733 19.017 24.4998 15.9338 24.4998 12.2672Z" fill="#4285F4"/>
<path fill-rule="evenodd" clip-rule="evenodd" d="M12.7489 24C16.0481 24 18.8372 22.9334 20.8609 21.1001L16.9155 18.1002C15.8101 18.8335 14.3985 19.2501 12.7489 19.2501C9.55178 19.2501 6.84779 17.1335 5.87844 14.3003H1.81396V17.4002C3.88872 21.4501 8.12326 24 12.7489 24Z" fill="#34A853"/>
<path fill-rule="evenodd" clip-rule="evenodd" d="M5.87821 14.3003C5.36802 12.817 5.36802 11.2004 5.87821 9.70043V6.61719H1.81373C0.0620906 10.0004 0.0620906 14.0003 1.81373 17.3835L5.87821 14.3003Z" fill="#FBBC04"/>
<path fill-rule="evenodd" clip-rule="evenodd" d="M12.7489 4.75058C14.5006 4.71725 16.1842 5.36723 17.4426 6.55053L20.9459 3.1173C18.7181 1.08403 15.793 -0.032607 12.7489 0.000725328C8.12326 0.000725328 3.88872 2.56731 1.81396 6.61719L5.87844 9.7171C6.84779 6.86718 9.55178 4.75058 12.7489 4.75058Z" fill="#EA4335"/>
</svg>
