<svg xmlns="http://www.w3.org/2000/svg" width="39" height="16" viewBox="0 0 39 16"><g><g><g><g><path fill="#fff" d="M18.454 7.823v4.556H17.03V1.132h3.776a3.358 3.358 0 0 1 2.44.977 3.28 3.28 0 0 1 .16 4.593l-.16.162c-.662.637-1.476.96-2.44.96zm0-5.31V6.44h2.387a1.848 1.848 0 0 0 1.407-.583 2 2 0 0 0-.045-2.79 1.927 1.927 0 0 0-1.362-.556z"/></g><g><path fill="#fff" d="M27.558 4.43c1.052 0 1.884.287 2.494.852.61.565.91 1.355.91 2.35v4.746h-1.361V11.31h-.062c-.593.88-1.37 1.319-2.352 1.319-.832 0-1.54-.251-2.096-.754a2.394 2.394 0 0 1-.84-1.883c0-.799.3-1.427.893-1.902.592-.476 1.388-.709 2.379-.709.849 0 1.538.162 2.087.467v-.332c0-.494-.213-.96-.584-1.283-.38-.34-.867-.53-1.37-.53-.797 0-1.424.342-1.884 1.023l-1.256-.798c.672-.996 1.69-1.498 3.042-1.498zm-1.84 5.589c0 .376.178.726.47.941.318.252.707.386 1.105.377.601 0 1.176-.242 1.6-.673.47-.448.708-.977.708-1.587-.442-.36-1.061-.539-1.857-.53-.575 0-1.061.144-1.45.422-.38.278-.575.628-.575 1.05z"/></g><g><path fill="#fff" d="M38.779 4.69L34.02 15.768h-1.468l1.769-3.875L31.2 4.69h1.548l2.255 5.526h.026l2.202-5.526z"/></g></g><g><g><path fill="#4285f4" d="M12.7 6.84c0-.44-.035-.88-.105-1.31H6.59v2.485h3.44a2.994 2.994 0 0 1-1.273 1.964v1.615h2.051c1.203-1.121 1.893-2.78 1.893-4.754z"/></g><g><path fill="#34a853" d="M6.586 13.15c1.716 0 3.166-.573 4.218-1.56L8.753 9.975c-.575.395-1.309.62-2.167.62-1.662 0-3.068-1.14-3.572-2.665H.9v1.668a6.35 6.35 0 0 0 5.686 3.553z"/></g><g><path fill="#fbbc04" d="M3.017 7.935a3.95 3.95 0 0 1 0-2.475V3.8H.903a6.486 6.486 0 0 0 0 5.795z"/></g><g><path fill="#ea4335" d="M6.586 2.797a3.4 3.4 0 0 1 2.44.969l1.823-1.848A6.098 6.098 0 0 0 6.586.24C4.181.24 1.98 1.622.9 3.802L3.014 5.47c.504-1.534 1.91-2.673 3.572-2.673z"/></g></g></g></g></svg>