<svg width="32" height="32" viewBox="0 0 32 32" fill="none" xmlns="http://www.w3.org/2000/svg">
<path d="M16 4C9.37411 4 4 9.35814 4 15.9673C4 22.5765 9.37411 27.9316 16 27.9316C22.6259 27.9316 28 22.5735 28 15.9673C28 9.36109 22.6289 4 16 4ZM17.7401 21.47C17.7401 23.2993 16.9026 24.2258 15.9171 24.6979C14.9317 25.167 13.7983 25.1788 13.2035 25.1788H12.2328C12.1647 25.1788 12.1085 25.1228 12.1085 25.0578V22.8597C12.1085 22.7918 12.1647 22.7387 12.2328 22.7387C14.183 22.7181 14.5115 21.771 14.5115 21.1248C14.5115 20.5081 14.5322 13.5066 14.5351 12.4945C14.5351 12.4267 14.5914 12.3736 14.6594 12.3736H17.6306C17.6986 12.3736 17.7549 12.4296 17.7549 12.4945C17.7519 13.3148 17.7401 18.0887 17.7401 21.47ZM18.2609 9.28438C18.2609 10.0486 17.7874 10.736 17.0713 11.0104L14.689 11.9251C14.6298 11.9457 14.5677 11.9044 14.5677 11.8425V10.1282C14.5677 10.0486 14.615 9.97775 14.689 9.94824L18.258 8.58215V9.28438H18.2609ZM19.3411 6.35156C19.3411 7.1187 18.8646 7.80912 18.1425 8.08057L14.689 9.3847C14.6298 9.40535 14.5677 9.36404 14.5677 9.30208V7.58783C14.5677 7.50817 14.618 7.43735 14.692 7.40785L19.3381 5.65229V6.35156H19.3411Z" fill="#304FFE"/>
</svg>
