<svg xmlns="http://www.w3.org/2000/svg" width="165" height="42" viewBox="0 0 165 42"><g><g><g/><g><g/><g><g/><g><path fill="#01579b" d="M43.629 11.51h18.26L53.76 40.32H35.5zm-1.866 16.934h12.16l1.703-5.057h-12.16z"/></g><g><path fill="#01579b" d="M12.519 17.907L5.54 20.128 27.679 42l5.463-1.69L43.144 5.151 41.802 0 26.407 3.873l.862 4.914 9.206-2.32-7.552 28.762z"/></g><g><path fill="#01579b" d="M25.376 23.244l1.836-5.844L16.84 6.25 0 10.47l1.254 5.347 13.391-3.748z"/><path fill="none" stroke="#01579b" stroke-miterlimit="20" stroke-width=".08" d="M25.376 23.244v0l1.836-5.844v0L16.84 6.25v0L0 10.47v0l1.254 5.347v0l13.391-3.748v0z"/></g><g><path fill="#01579b" d="M64.45 11.5h99.739l-7.959 28.81-99.9.01zm79.575 26.544V26.269l2.543 3.187 6.869-.032c5.4-.399 7.992-13.64 0-15.647h-14.93V38.04zm7.335-19.149c1.982-.063 3.385 4.956 0 5.418l-7.335-.08v-5.306zm-39.028 1.164l6.147 17.985h6.147l6.146-17.985.066 17.953h6.02V13.777H126.51l-4.957 14.7-4.957-14.7h-10.334v24.235h6.005zm-7.342 4.808c0-2.892-.905-6.367-2.983-8.254-2.08-1.889-4.778-2.836-8.09-2.836-3.335 0-6.038.947-8.113 2.836-2.072 1.887-2.895 5.422-2.895 8.314v2.082c0 2.903.828 6.319 2.907 8.204 2.08 1.885 4.79 2.83 8.139 2.83 3.323 0 6.016-.945 8.077-2.83 2.06-1.885 2.957-5.362 2.957-8.264zm-5.978 1.859c0 1.708-.438 3.103-1.319 4.18-.883 1.08-2.129 1.62-3.738 1.62-1.653 0-2.93-.54-3.819-1.62-.887-1.077-1.33-2.472-1.33-4.18v-1.728c0-1.697.437-3.087 1.312-4.158.877-1.074 2.147-1.609 3.8-1.609 1.621 0 2.874.54 3.763 1.62.888 1.081 1.33 2.46 1.33 4.147zM82.96 38.044v-5.867H71.469c-2.238 0-5.419-9.659 0-12.95l8.72-.064 2.972-5.383h-12.66c-8.106-.264-14.131 21.092 0 24.24z"/></g></g></g></g></g></svg>