<?xml version="1.0" encoding="utf-8"?>
<!-- Generator: Adobe Illustrator 24.1.2, SVG Export Plug-In . SVG Version: 6.00 Build 0)  -->
<svg version="1.1" id="Слой_1" xmlns="http://www.w3.org/2000/svg" xmlns:xlink="http://www.w3.org/1999/xlink" x="0px" y="0px"
	 viewBox="0 0 32.3 20.1" style="enable-background:new 0 0 32.3 20.1;" xml:space="preserve">
<style type="text/css">
	.st0{fill:#FF5F00;}
	.st1{fill:#EB001B;}
	.st2{fill:#F79E1B;}
	.st3{fill:#FFFFFF;}
</style>
<path class="st0" d="M20.5,17.7h-8.7V2.4h8.7V17.7z"/>
<path class="st1" d="M12.4,10.1c0-3.1,1.5-5.8,3.8-7.6c-1.7-1.3-3.8-2.1-6.2-2.1c-5.5,0-10,4.3-10,9.7c0,5.4,4.5,9.7,10,9.7
	c2.3,0,4.5-0.8,6.2-2.1C13.9,15.9,12.4,13.2,12.4,10.1z"/>
<path class="st2" d="M32.3,10.1c0,5.4-4.5,9.7-10,9.7c-2.3,0-4.5-0.8-6.2-2.1c2.3-1.8,3.8-4.5,3.8-7.6c0-3.1-1.5-5.8-3.8-7.6
	c1.7-1.3,3.8-2.1,6.2-2.1C27.9,0.4,32.3,4.7,32.3,10.1z"/>
<path class="st3" d="M7.5,10.1c0-0.4,0.3-0.8,0.8-0.8C8.7,9.4,9,9.7,9,10.1c0,0.4-0.3,0.8-0.7,0.8C7.8,10.9,7.5,10.5,7.5,10.1z
	 M9.5,10.1V8.9H9v0.3C8.8,9,8.6,8.9,8.2,8.9C7.5,8.9,7,9.4,7,10.1c0,0.7,0.5,1.3,1.2,1.3c0.4,0,0.6-0.1,0.8-0.4v0.3h0.5V10.1z
	 M27.8,10.1c0-0.4,0.3-0.8,0.8-0.8c0.4,0,0.7,0.3,0.7,0.8c0,0.4-0.3,0.8-0.7,0.8C28.1,10.9,27.8,10.5,27.8,10.1z M29.8,10.1V8h-0.5
	v1.3c-0.2-0.2-0.4-0.4-0.8-0.4c-0.7,0-1.2,0.5-1.2,1.3c0,0.7,0.5,1.3,1.2,1.3c0.4,0,0.6-0.1,0.8-0.4v0.3h0.5V10.1z M16.2,9.3
	c0.3,0,0.6,0.2,0.6,0.6h-1.3C15.6,9.6,15.9,9.3,16.2,9.3z M16.3,8.9c-0.7,0-1.2,0.5-1.2,1.3c0,0.8,0.5,1.3,1.3,1.3
	c0.4,0,0.7-0.1,1-0.3L17,10.7c-0.2,0.2-0.5,0.3-0.7,0.3c-0.3,0-0.7-0.2-0.7-0.6h1.8c0-0.1,0-0.1,0-0.2C17.4,9.4,17,8.9,16.3,8.9z
	 M22.8,10.1c0-0.4,0.3-0.8,0.8-0.8c0.4,0,0.7,0.3,0.7,0.8c0,0.4-0.3,0.8-0.7,0.8C23.1,10.9,22.8,10.5,22.8,10.1z M24.8,10.1V8.9
	h-0.5v0.3c-0.2-0.2-0.4-0.4-0.8-0.4c-0.7,0-1.2,0.5-1.2,1.3c0,0.7,0.5,1.3,1.2,1.3c0.4,0,0.6-0.1,0.8-0.4v0.3h0.5V10.1z M19.7,10.1
	c0,0.7,0.5,1.3,1.3,1.3c0.4,0,0.6-0.1,0.9-0.3l-0.3-0.4c-0.2,0.1-0.4,0.2-0.7,0.2c-0.4,0-0.7-0.3-0.7-0.8s0.3-0.8,0.7-0.8
	c0.2,0,0.4,0.1,0.7,0.2l0.3-0.4c-0.3-0.2-0.5-0.3-0.9-0.3C20.3,8.9,19.7,9.4,19.7,10.1z M26.7,8.9c-0.3,0-0.5,0.1-0.7,0.4V8.9h-0.5
	v2.4H26V10c0-0.4,0.2-0.6,0.5-0.6c0.1,0,0.2,0,0.3,0.1l0.2-0.5C27,8.9,26.8,8.9,26.7,8.9z M12.2,9.1c-0.3-0.2-0.6-0.3-1-0.3
	c-0.6,0-1,0.3-1,0.8c0,0.4,0.3,0.6,0.9,0.7l0.3,0c0.3,0,0.4,0.1,0.4,0.3c0,0.2-0.2,0.3-0.6,0.3c-0.4,0-0.6-0.1-0.8-0.3l-0.3,0.4
	c0.3,0.2,0.7,0.3,1.1,0.3c0.7,0,1.1-0.3,1.1-0.8c0-0.4-0.3-0.6-0.9-0.7l-0.3,0c-0.2,0-0.4-0.1-0.4-0.2c0-0.2,0.2-0.3,0.5-0.3
	c0.3,0,0.6,0.1,0.8,0.2L12.2,9.1z M19.2,8.9c-0.3,0-0.5,0.1-0.7,0.4V8.9H18v2.4h0.5V10c0-0.4,0.2-0.6,0.5-0.6c0.1,0,0.2,0,0.3,0.1
	l0.2-0.5C19.4,8.9,19.3,8.9,19.2,8.9z M14.6,8.9h-0.9V8.2h-0.5v0.7h-0.5v0.5h0.5v1.1c0,0.6,0.2,0.9,0.9,0.9c0.2,0,0.5-0.1,0.7-0.2
	l-0.2-0.4c-0.2,0.1-0.3,0.1-0.5,0.1c-0.3,0-0.4-0.2-0.4-0.4V9.4h0.9V8.9z M6.5,11.3V9.8c0-0.6-0.4-1-1-1c-0.3,0-0.6,0.1-0.9,0.4
	C4.5,9,4.2,8.9,3.8,8.9c-0.3,0-0.5,0.1-0.7,0.4V8.9H2.5v2.4h0.5V10c0-0.4,0.2-0.6,0.6-0.6c0.4,0,0.5,0.2,0.5,0.6v1.3h0.5V10
	c0-0.4,0.2-0.6,0.6-0.6c0.4,0,0.5,0.2,0.5,0.6v1.3H6.5z"/>
</svg>
