<svg width="24" height="24" viewBox="0 0 24 24" fill="none" xmlns="http://www.w3.org/2000/svg">
<path fill-rule="evenodd" clip-rule="evenodd" d="M19.2307 7.00858C19.3033 6.98576 19.3988 7.0314 19.4943 7.1569C19.4943 7.1569 19.4943 7.1569 23.8108 11.3631C24.0629 11.6142 24.0629 11.9945 23.8108 12.1808C23.8108 12.1808 23.8108 12.1808 19.4943 16.4517C19.3988 16.5772 19.3033 16.6076 19.2307 16.5696C19.1581 16.5316 19.1123 16.4213 19.1123 16.2616V7.28241C19.1123 7.12648 19.1581 7.0314 19.2307 7.00858Z" fill="#ED1C24"/>
<path fill-rule="evenodd" clip-rule="evenodd" d="M11.8481 0H12.1537L12.4479 0.1217C12.4479 0.1217 12.4479 0.121699 16.8904 4.5181C17.0814 4.7691 17.0164 4.95926 16.6994 4.95926C16.6994 4.95926 16.6994 4.95926 14.8582 4.95926C14.5412 4.95926 14.289 5.21026 14.289 5.52592C14.289 5.52592 14.289 5.52592 14.289 8.78899C14.289 9.10465 14.0331 9.35565 13.6511 9.35565C13.6511 9.35565 13.6511 9.35565 10.4157 9.35565C10.0986 9.35565 9.84271 9.10465 9.84271 8.78899C9.84271 8.78899 9.84271 8.78899 9.84271 5.52592C9.84271 5.21026 9.59059 4.95926 9.26972 4.95926H7.30249C6.98544 4.95926 6.9205 4.7691 7.11149 4.5181C7.11149 4.5181 7.11149 4.5181 11.5578 0.1217L11.8481 0Z" fill="#ED1C24"/>
<path fill-rule="evenodd" clip-rule="evenodd" d="M4.88753 6.91376C4.96775 6.95179 5.01741 7.06208 5.01741 7.22181V16.3873C5.01741 16.547 4.96775 16.6421 4.88753 16.6725C4.81113 16.703 4.70036 16.6725 4.57048 16.5775C4.57048 16.5775 4.57048 16.5775 0.189084 12.1811C-0.063028 11.9947 -0.063028 11.6144 0.189084 11.3634C0.189084 11.3634 0.189084 11.3634 4.57048 7.03165C4.70036 6.90615 4.81113 6.87572 4.88753 6.91376Z" fill="#ED1C24"/>
<path fill-rule="evenodd" clip-rule="evenodd" d="M10.4152 14.1289C10.4152 14.1289 10.4152 14.1289 13.6506 14.1289C14.0326 14.1289 14.2886 14.3799 14.2886 14.6956C14.2886 14.6956 14.2886 14.6956 14.2886 18.1488C14.2886 18.5253 14.5407 18.7763 14.8577 18.7763H16.5728C16.8899 18.7763 17.0159 18.9627 16.7638 19.1528C16.7638 19.1528 16.7638 19.1528 12.4474 23.4846C12.3175 23.6101 12.1609 23.6747 12.0004 23.6747C11.8438 23.6747 11.6834 23.6101 11.5573 23.4846C11.5573 23.4846 11.5573 23.4846 7.24088 19.1528C6.98495 18.9627 7.11101 18.7763 7.42805 18.7763C7.42805 18.7763 7.42805 18.7763 9.26923 18.7763C9.5901 18.7763 9.84222 18.5253 9.84222 18.1488C9.84222 18.1488 9.84222 18.1488 9.84222 14.6956C9.84222 14.3799 10.0981 14.1289 10.4152 14.1289Z" fill="#ED1C24"/>
</svg>
