<svg xmlns="http://www.w3.org/2000/svg" width="102" height="36" viewBox="0 0 102 36"><g><g><g/><g><g><g><path fill="#ed1c24" d="M44.65 6.11h2.145c.782 0 1.176.382 1.176 1.243v3.054h4.203V7.353c0-.861.387-1.243 1.27-1.243h2.05v2.007h-.875l-.1.098v8.594h-2.345v-4.297H47.97v4.297h-2.345V8.215s0-.098-.1-.098h-.876V6.11z"/></g><g><path fill="#ed1c24" d="M61.646 5.92l.053.006v2.203l-.053-.011c-1.757 0-3.127 1.434-3.127 3.25 0 1.908 1.37 3.435 3.127 3.435l.053-.012v2.204l-.053.005c-3.127 0-5.666-2.48-5.666-5.632 0-3.06 2.54-5.448 5.666-5.448z"/></g><g><path fill="#ed1c24" d="M61.7 5.92l1.087.104c2.58.497 4.526 2.66 4.526 5.338a5.611 5.611 0 0 1-4.526 5.517l-1.087.11v-2.203l1.193-.255c1.152-.52 1.981-1.74 1.981-3.17 0-1.364-.829-2.509-1.98-2.995L61.7 8.123z"/></g><g><path fill="#ed1c24" d="M67.8 6.11h4.837v2.007H71.12v2.197h1.517v1.909h-1.516v2.388c0 .099 0 .099.1.099h1.416v2.099h-2.685c-.782 0-1.17-.382-1.17-1.244V8.117H67.8V6.11z"/></g><g><path fill="#ed1c24" d="M72.64 6.11h.047c2.151 0 3.42 1.145 3.42 2.868 0 1.047-.487 1.718-.975 2.198.882.382 1.464 1.336 1.464 2.383 0 2.006-1.564 3.25-3.81 3.25h-.146v-2.1h.241c.782 0 1.275-.48 1.275-1.243 0-.763-.493-1.243-1.275-1.243h-.241v-1.909h.047c.688 0 1.076-.48 1.076-1.145 0-.67-.388-1.052-1.076-1.052h-.047z"/></g><g><path fill="#ed1c24" d="M81.089 6.11h1.169v3.06c-.094.19-.194.474-.194.763l-.781 2.197h.975v2.001h-1.557l-.688 1.724c-.194.665-.582.954-1.364.954H77.18v-2.1h.488c.2 0 .2 0 .294-.098l3.127-8.501z"/></g><g><path fill="#ed1c24" d="M82.26 6.11h1.176l3.127 8.501c.094.099.094.099.288.099h.393v2.099h-1.37c-.78 0-1.169-.29-1.369-1.053l-.682-1.625H82.26v-2h.976l-.776-2.198c0-.29-.1-.573-.2-.764z"/></g><g><path fill="#ed1c24" d="M44.65 19.86h8.5c.781 0 1.269.382 1.269 1.243v7.258c0 .093 0 .093.1.093h.782v2.105h-2.052c-.881 0-1.27-.382-1.27-1.244v-7.35s0-.098-.1-.098h-3.908v8.692h-2.345v-8.692h-.976V19.86z"/></g><g><path fill="#ed1c24" d="M61.452 19.67l.047.006v2.203l-.047-.011c-1.763 0-3.127 1.434-3.127 3.25 0 1.908 1.364 3.435 3.127 3.435l.047-.012v2.204l-.047.006c-3.127 0-5.572-2.487-5.572-5.633 0-3.06 2.445-5.448 5.572-5.448z"/></g><g><path fill="#ed1c24" d="M61.5 19.67l1.123.104c2.627.497 4.496 2.66 4.496 5.338 0 2.753-1.869 5.002-4.496 5.517l-1.123.11v-2.203l1.24-.255c1.17-.52 1.94-1.74 1.94-3.17 0-1.364-.77-2.509-1.94-2.995l-1.24-.243z"/></g><g><path fill="#ed1c24" d="M67.61 19.86h2.151c.782 0 1.17.382 1.17 1.243v7.258c0 .093 0 .093.1.093h2.833V19.86h2.345v8.594h2.833c.1 0 .1 0 .1-.093v-7.258c0-.861.388-1.243 1.17-1.243h2.151v2.007h-.881c-.1 0-.1.098-.1.098v7.35c0 .862-.388 1.244-1.17 1.244H69.855c-.875 0-1.27-.382-1.27-1.244v-7.35s0-.098-.093-.098h-.882V19.86z"/></g><g><path fill="#ed1c24" d="M84.316 19.86h7.33c.88 0 1.175.382 1.175 1.145v1.816H90.67v-.856c0-.098 0-.098-.1-.098h-1.364v8.692h-2.351v-8.692H85.49c-.1 0-.1 0-.1.098v.856H83.24v-1.816c0-.763.294-1.145 1.076-1.145z"/></g><g><path fill="#ed1c24" d="M95.849 19.86h1.169v3.06c-.1.19-.194.473-.194.763l-.781 2.197h.975v2.001H95.455l-.682 1.625c-.194.764-.588 1.053-1.37 1.053H91.94v-2.105h.488c.2 0 .2 0 .294-.093l3.127-8.501z"/></g><g><path fill="#ed1c24" d="M97.02 19.86h1.17l3.133 8.501c.094.093.094.093.293.093h.388v2.105h-1.37c-.78 0-1.169-.29-1.369-1.053l-.682-1.625H97.02v-2h.976l-.782-2.198c0-.29-.094-.573-.194-.764z"/></g><g><path fill="#ed1c24" d="M29.592 10.659c.112-.035.259.034.406.225l6.642 6.396c.388.382.388.96 0 1.244l-6.642 6.494c-.147.191-.294.237-.406.18-.111-.058-.182-.226-.182-.469V11.075c0-.237.07-.382.182-.416z"/></g><g><path fill="#ed1c24" d="M18.233 0h.47l.453.185 6.836 6.685c.294.382.194.671-.294.671h-2.833a.864.864 0 0 0-.876.862v4.962c0 .48-.394.861-.981.861h-4.979a.869.869 0 0 1-.882-.861V8.403a.865.865 0 0 0-.881-.862h-3.027c-.488 0-.588-.289-.294-.67L17.787.184z"/></g><g><path fill="#ed1c24" d="M7.52 10.513c.124.058.2.226.2.469v13.937c0 .243-.076.387-.2.434-.117.046-.287 0-.487-.145L.29 18.523c-.388-.283-.388-.862 0-1.243l6.742-6.587c.2-.191.37-.238.488-.18z"/></g><g><path fill="#ed1c24" d="M16.025 21.48h4.979c.587 0 .981.382.981.862v5.25c0 .573.388.955.876.955H25.5c.488 0 .682.283.294.573l-6.642 6.587c-.2.19-.44.289-.688.289a.978.978 0 0 1-.681-.29L11.14 29.12c-.394-.29-.2-.573.288-.573h2.833c.493 0 .881-.382.881-.954v-5.251c0-.48.394-.862.882-.862z"/></g></g></g></g></g></svg>