<svg width="32" height="32" viewBox="0 0 32 32" fill="none" xmlns="http://www.w3.org/2000/svg">
<path fill-rule="evenodd" clip-rule="evenodd" d="M23.2307 11.0091C23.3033 10.9863 23.3988 11.0319 23.4943 11.1574C23.4943 11.1574 23.4943 11.1574 27.8108 15.3636C28.0629 15.6146 28.0629 15.9949 27.8108 16.1813C27.8108 16.1813 27.8108 16.1813 23.4943 20.4522C23.3988 20.5777 23.3033 20.6081 23.2307 20.5701C23.1581 20.5321 23.1123 20.4218 23.1123 20.262V11.2829C23.1123 11.127 23.1581 11.0319 23.2307 11.0091Z" fill="#ED1C24"/>
<path fill-rule="evenodd" clip-rule="evenodd" d="M15.8481 4H16.1537L16.4479 4.1217C16.4479 4.1217 16.4479 4.1217 20.8904 8.5181C21.0814 8.7691 21.0164 8.95926 20.6994 8.95926C20.6994 8.95926 20.6994 8.95926 18.8582 8.95926C18.5412 8.95926 18.289 9.21026 18.289 9.52592C18.289 9.52592 18.289 9.52592 18.289 12.789C18.289 13.1046 18.0331 13.3557 17.6511 13.3557C17.6511 13.3557 17.6511 13.3557 14.4157 13.3557C14.0986 13.3557 13.8427 13.1046 13.8427 12.789C13.8427 12.789 13.8427 12.789 13.8427 9.52592C13.8427 9.21026 13.5906 8.95926 13.2697 8.95926H11.3025C10.9854 8.95926 10.9205 8.7691 11.1115 8.5181C11.1115 8.5181 11.1115 8.5181 15.5578 4.1217L15.8481 4V4Z" fill="#ED1C24"/>
<path fill-rule="evenodd" clip-rule="evenodd" d="M8.88753 10.9142C8.96775 10.9523 9.01741 11.0626 9.01741 11.2223V20.3878C9.01741 20.5475 8.96775 20.6426 8.88753 20.673C8.81113 20.7035 8.70036 20.673 8.57048 20.5779C8.57048 20.5779 8.57048 20.5779 4.18908 16.1816C3.93697 15.9952 3.93697 15.6149 4.18908 15.3639C4.18908 15.3639 4.18908 15.3639 8.57048 11.0321C8.70036 10.9066 8.81113 10.8762 8.88753 10.9142Z" fill="#ED1C24"/>
<path fill-rule="evenodd" clip-rule="evenodd" d="M14.4152 18.1284C14.4152 18.1284 14.4152 18.1284 17.6506 18.1284C18.0326 18.1284 18.2886 18.3794 18.2886 18.6951C18.2886 18.6951 18.2886 18.6951 18.2886 22.1483C18.2886 22.5248 18.5407 22.7758 18.8577 22.7758H20.5728C20.8899 22.7758 21.0159 22.9622 20.7638 23.1523C20.7638 23.1523 20.7638 23.1523 16.4474 27.4841C16.3175 27.6096 16.1609 27.6742 16.0004 27.6742C15.8438 27.6742 15.6834 27.6096 15.5573 27.4841C15.5573 27.4841 15.5573 27.4841 11.2409 23.1523C10.9849 22.9622 11.111 22.7758 11.4281 22.7758C11.4281 22.7758 11.4281 22.7758 13.2692 22.7758C13.5901 22.7758 13.8422 22.5248 13.8422 22.1483C13.8422 22.1483 13.8422 22.1483 13.8422 18.6951C13.8422 18.3794 14.0981 18.1284 14.4152 18.1284V18.1284Z" fill="#ED1C24"/>
</svg>
