<svg width="32" height="32" viewBox="0 0 32 32" fill="none" xmlns="http://www.w3.org/2000/svg">
<path d="M23.6097 17.7778C23.6091 17.7777 15.7444 15.9796 15.7444 15.9796C13.4003 15.4436 11.9298 13.0892 12.4601 10.7207C12.9907 8.35219 15.3212 6.86683 17.6654 7.40263C20.0097 7.93862 21.48 10.2931 20.9497 12.6614C20.6839 13.8472 19.967 14.8107 19.023 15.411C19.0229 15.411 19.0206 15.413 19.0197 15.4134C18.992 15.4336 18.974 15.4663 18.974 15.5032C18.974 15.5549 19.0093 15.5983 19.057 15.6099C19.0571 15.61 22.5556 16.4093 22.5563 16.4093C22.6395 16.4284 22.7259 16.3959 22.7771 16.3277C22.7774 16.327 22.7772 16.3275 22.7772 16.3275C23.7411 15.039 24.32 13.4313 24.32 11.6923C24.32 7.5971 21.1532 4.25038 17.1587 4.01268C17.1231 4.01069 16.9066 4.00214 16.8335 4.00109C15.0649 3.97304 13.2717 4.48539 11.7124 5.5887C7.77449 8.37443 6.81773 13.8577 9.57474 17.836L16.5719 27.9322C16.6018 27.9733 16.6499 28 16.7039 28C16.7583 28 16.8066 27.9729 16.8363 27.9314C16.8363 27.9314 23.7074 18.0315 23.708 18.0306C23.7255 18.0044 23.736 17.9726 23.736 17.9384C23.736 17.8601 23.6821 17.7946 23.6097 17.7778" fill="#FABC26"/>
</svg>
