<?xml version="1.0" encoding="utf-8"?>
<!-- Generator: Adobe Illustrator 24.1.2, SVG Export Plug-In . SVG Version: 6.00 Build 0)  -->
<svg version="1.1" id="Слой_1" xmlns="http://www.w3.org/2000/svg" xmlns:xlink="http://www.w3.org/1999/xlink" x="0px" y="0px"
	 viewBox="0 0 36 12.1" style="enable-background:new 0 0 36 12.1;" xml:space="preserve">
<style type="text/css">
	.st0{fill:#F4F8FB;}
</style>
<path class="st0" d="M13.7,0.2L9,12H5.9L3.6,2.6C3.4,2,3.3,1.8,2.9,1.6C2.2,1.2,1,0.8,0,0.6l0.1-0.3h5c0.6,0,1.2,0.4,1.3,1.2
	l1.2,6.9l3-8L13.7,0.2L13.7,0.2z M25.7,8.2c0-3.1-4.1-3.3-4.1-4.7c0-0.4,0.4-0.9,1.2-1c0.4,0,1.6-0.1,2.9,0.5l0.5-2.5
	C25.6,0.3,24.6,0,23.5,0c-2.9,0-4.9,1.6-4.9,3.9c0,1.7,1.4,2.6,2.6,3.2c1.1,0.6,1.5,1,1.5,1.5c0,0.8-0.9,1.1-1.7,1.2
	c-1.4,0-2.3-0.4-3-0.7l-0.5,2.6c0.7,0.3,1.9,0.6,3.2,0.6C23.7,12.2,25.7,10.6,25.7,8.2z M33.3,12H36L33.6,0.2h-2.5
	c-0.6,0-1,0.3-1.2,0.9L25.6,12h3.1l0.6-1.8h3.7L33.3,12z M30.1,7.8l1.5-4.4l0.9,4.4H30.1z M17.8,0.2L15.4,12h-2.9l2.4-11.8H17.8z"/>
</svg>
