<svg width="40" height="40" viewBox="0 0 40 40" fill="none" xmlns="http://www.w3.org/2000/svg">
<path fill-rule="evenodd" clip-rule="evenodd" d="M13.7518 34.5838C13.7518 34.5836 13.7518 34.5834 13.7518 34.5832C13.7518 34.5829 13.7518 34.5827 13.7518 34.5825C13.7517 34.5823 13.7515 34.5822 13.7513 34.582C13.7512 34.5818 13.751 34.5817 13.7508 34.5815C13.7506 34.5815 13.7504 34.5815 13.7502 34.5815C13.7499 34.5815 13.7497 34.5815 13.7495 34.5815C13.7493 34.5817 13.7492 34.5818 13.749 34.582C13.7488 34.5822 13.7486 34.5823 13.7485 34.5825C13.7485 34.5827 13.7485 34.5829 13.7485 34.5832C13.7485 34.5834 13.7485 34.5836 13.7485 34.5838C13.7486 34.584 13.7488 34.5842 13.749 34.5843C13.7492 34.5845 13.7493 34.5847 13.7495 34.5848C13.7497 34.5848 13.7499 34.5848 13.7502 34.5848C13.7504 34.5848 13.7506 34.5848 13.7508 34.5848C13.751 34.5847 13.7512 34.5845 13.7513 34.5843C13.7515 34.5842 13.7517 34.584 13.7518 34.5838ZM16.6668 34.5832C16.6668 36.194 15.361 37.4998 13.7502 37.4998C12.1393 37.4998 10.8335 36.194 10.8335 34.5832C10.8335 32.9723 12.1393 31.6665 13.7502 31.6665C15.361 31.6665 16.6668 32.9723 16.6668 34.5832Z" fill="#060F42"/>
<path fill-rule="evenodd" clip-rule="evenodd" d="M30.4183 34.5838C30.4183 34.5836 30.4183 34.5834 30.4183 34.5832C30.4183 34.5829 30.4183 34.5827 30.4183 34.5825C30.4182 34.5823 30.418 34.5822 30.4178 34.582C30.4177 34.5818 30.4175 34.5817 30.4173 34.5815C30.4171 34.5815 30.4169 34.5815 30.4167 34.5815C30.4164 34.5815 30.4162 34.5815 30.416 34.5815C30.4158 34.5817 30.4157 34.5818 30.4155 34.582C30.4153 34.5822 30.4152 34.5823 30.415 34.5825C30.415 34.5827 30.415 34.5829 30.415 34.5832C30.415 34.5834 30.415 34.5836 30.415 34.5838C30.4152 34.584 30.4153 34.5842 30.4155 34.5843C30.4157 34.5845 30.4158 34.5847 30.416 34.5848C30.4162 34.5848 30.4164 34.5848 30.4167 34.5848C30.4169 34.5848 30.4171 34.5848 30.4173 34.5848C30.4175 34.5847 30.4177 34.5845 30.4178 34.5843C30.418 34.5842 30.4182 34.584 30.4183 34.5838ZM33.3333 34.5832C33.3333 36.194 32.0275 37.4998 30.4167 37.4998C28.8058 37.4998 27.5 36.194 27.5 34.5832C27.5 32.9723 28.8058 31.6665 30.4167 31.6665C32.0275 31.6665 33.3333 32.9723 33.3333 34.5832Z" fill="#060F42"/>
<path fill-rule="evenodd" clip-rule="evenodd" d="M1.97607 5C1.97607 4.44772 2.42379 4 2.97607 4H7.49988C7.93031 4 8.31245 4.27543 8.44857 4.68377L10.0841 9.59026L34.9744 11.3241C36.5009 11.4305 37.6399 12.7737 37.4953 14.297L37.0372 19.1237C36.9177 20.3826 35.9471 21.3934 34.6941 21.5639L11.9071 24.6634C11.1539 24.7659 10.6364 25.4732 10.7667 26.2221C10.8784 26.8645 11.4359 27.3333 12.0879 27.3333H34.4047C34.957 27.3333 35.4047 27.781 35.4047 28.3333C35.4047 28.8856 34.957 29.3333 34.4047 29.3333H12.0879C10.4636 29.3333 9.0747 28.1652 8.79627 26.565C8.47164 24.6992 9.76107 22.9369 11.6376 22.6817L12.3093 22.5903L6.77913 6H2.97607C2.42379 6 1.97607 5.55228 1.97607 5ZM14.3166 22.3173L34.4245 19.5821C34.7569 19.5369 35.0145 19.2687 35.0462 18.9347L35.5042 14.108C35.5426 13.7039 35.2404 13.3475 34.8354 13.3193L10.7683 11.6428L14.282 22.1838C14.2967 22.2281 14.3082 22.2726 14.3166 22.3173Z" fill="#060F42"/>
</svg>
