<?xml version="1.0" encoding="utf-8"?>
<!-- Generator: Adobe Illustrator 24.1.2, SVG Export Plug-In . SVG Version: 6.00 Build 0)  -->
<svg version="1.1" id="Слой_1" xmlns="http://www.w3.org/2000/svg" xmlns:xlink="http://www.w3.org/1999/xlink" x="0px" y="0px"
	 viewBox="0 0 32.2 30.4" style="enable-background:new 0 0 32.2 30.4;" xml:space="preserve">
<style type="text/css">
	.st0{fill:#060F42;}
	.st1{fill:none;stroke:#060F42;stroke-width:2;stroke-linecap:round;stroke-linejoin:round;}
</style>
<path class="st0" d="M10.7,30.4c1.4,0,2.6-1.2,2.6-2.6s-1.2-2.6-2.6-2.6s-2.6,1.2-2.6,2.6S9.3,30.4,10.7,30.4z"/>
<path class="st0" d="M25,30.4c1.4,0,2.6-1.2,2.6-2.6s-1.2-2.6-2.6-2.6s-2.6,1.2-2.6,2.6S23.5,30.4,25,30.4z"/>
<path class="st1" d="M1,1.1h4.1l5.3,15.8 M6.8,6.1l22.8,1.6c1,0.1,1.7,0.9,1.6,1.9l-0.4,4c-0.1,0.8-0.7,1.4-1.5,1.5L9,17.9
	c-1.2,0.2-2,1.3-1.8,2.4l0,0c0.2,1,1.1,1.7,2.1,1.7h20.1"/>
</svg>
