<?xml version="1.0" encoding="utf-8"?>
<!-- Generator: Adobe Illustrator 24.1.2, SVG Export Plug-In . SVG Version: 6.00 Build 0)  -->
<svg version="1.1" id="Слой_1" xmlns="http://www.w3.org/2000/svg" xmlns:xlink="http://www.w3.org/1999/xlink" x="0px" y="0px"
	 viewBox="0 0 21.7 20.3" style="enable-background:new 0 0 21.7 20.3;" xml:space="preserve">
<style type="text/css">
	.st0{fill:#FFFFFF;filter:url(#Adobe_OpacityMaskFilter);}
	.st1{mask:url(#path-1-inside-1_47:56530_1_);fill:none;stroke:#F4F8FB;stroke-width:3;}
	.st2{fill:#FFFFFF;filter:url(#Adobe_OpacityMaskFilter_1_);}
	.st3{mask:url(#path-2-inside-2_47:56530_1_);fill:none;stroke:#F4F8FB;stroke-width:3;}
	.st4{fill:#FFFFFF;filter:url(#Adobe_OpacityMaskFilter_2_);}
	.st5{mask:url(#path-3-inside-3_47:56530_1_);fill:none;stroke:#F4F8FB;stroke-width:3;}
	.st6{fill:none;stroke:#F4F8FB;stroke-width:1.5;}
</style>
<defs>
	<filter id="Adobe_OpacityMaskFilter" filterUnits="userSpaceOnUse" x="0.5" y="10.9" width="10.3" height="10.3">
		<feColorMatrix  type="matrix" values="1 0 0 0 0  0 1 0 0 0  0 0 1 0 0  0 0 0 1 0"/>
	</filter>
</defs>
<mask maskUnits="userSpaceOnUse" x="0.5" y="10.9" width="10.3" height="10.3" id="path-1-inside-1_47:56530_1_">
	<path class="st0" d="M3,12.4h5.3c0.6,0,1,0.4,1,1v5.3c0,0.6-0.4,1-1,1H3c-0.6,0-1-0.4-1-1v-5.3C2,12.9,2.4,12.4,3,12.4z"/>
</mask>
<path class="st1" d="M3,12.4h5.3c0.6,0,1,0.4,1,1v5.3c0,0.6-0.4,1-1,1H3c-0.6,0-1-0.4-1-1v-5.3C2,12.9,2.4,12.4,3,12.4z"/>
<defs>
	<filter id="Adobe_OpacityMaskFilter_1_" filterUnits="userSpaceOnUse" x="0.5" y="0.3" width="10.3" height="10.3">
		<feColorMatrix  type="matrix" values="1 0 0 0 0  0 1 0 0 0  0 0 1 0 0  0 0 0 1 0"/>
	</filter>
</defs>
<mask maskUnits="userSpaceOnUse" x="0.5" y="0.3" width="10.3" height="10.3" id="path-2-inside-2_47:56530_1_">
	<path class="st2" d="M3,1.8h5.3c0.6,0,1,0.4,1,1v5.3c0,0.6-0.4,1-1,1H3c-0.6,0-1-0.4-1-1V2.8C2,2.2,2.4,1.8,3,1.8z"/>
</mask>
<path class="st3" d="M3,1.8h5.3c0.6,0,1,0.4,1,1v5.3c0,0.6-0.4,1-1,1H3c-0.6,0-1-0.4-1-1V2.8C2,2.2,2.4,1.8,3,1.8z"/>
<defs>
	<filter id="Adobe_OpacityMaskFilter_2_" filterUnits="userSpaceOnUse" x="11.1" y="10.9" width="10.3" height="10.3">
		<feColorMatrix  type="matrix" values="1 0 0 0 0  0 1 0 0 0  0 0 1 0 0  0 0 0 1 0"/>
	</filter>
</defs>
<mask maskUnits="userSpaceOnUse" x="11.1" y="10.9" width="10.3" height="10.3" id="path-3-inside-3_47:56530_1_">
	<path class="st4" d="M13.6,12.4H19c0.6,0,1,0.4,1,1v5.3c0,0.6-0.4,1-1,1h-5.3c-0.6,0-1-0.4-1-1v-5.3C12.6,12.9,13.1,12.4,13.6,12.4
		z"/>
</mask>
<path class="st5" d="M13.6,12.4H19c0.6,0,1,0.4,1,1v5.3c0,0.6-0.4,1-1,1h-5.3c-0.6,0-1-0.4-1-1v-5.3C12.6,12.9,13.1,12.4,13.6,12.4z
	"/>
<path class="st6" d="M12.1,5.5c-0.1-0.1-0.1-0.3,0-0.4L16.2,1c0.1-0.1,0.3-0.1,0.4,0l4.2,4.2c0.1,0.1,0.1,0.3,0,0.4l-4.2,4.2
	c-0.1,0.1-0.3,0.1-0.4,0l-2.1-2.1L12.1,5.5z"/>
</svg>
