<?xml version="1.0" encoding="utf-8"?>
<!-- Generator: Adobe Illustrator 24.1.2, SVG Export Plug-In . SVG Version: 6.00 Build 0)  -->
<svg version="1.1" id="Слой_1" xmlns="http://www.w3.org/2000/svg" xmlns:xlink="http://www.w3.org/1999/xlink" x="0px" y="0px"
	 viewBox="0 0 21.7 21.2" style="enable-background:new 0 0 21.7 21.2;" xml:space="preserve">
<style type="text/css">
	.st0{fill:none;stroke:#F4F8FB;stroke-width:3;}
	.st1{fill:none;stroke:#F4F8FB;stroke-width:1.5;}
</style>
<path class="st0" d="M3,12.4h5.3c0.6,0,1,0.4,1,1v5.3c0,0.6-0.4,1-1,1H3c-0.6,0-1-0.4-1-1v-5.3C2,12.9,2.4,12.4,3,12.4z"/>
<path class="st0" d="M3,1.8h5.3c0.6,0,1,0.4,1,1v5.3c0,0.6-0.4,1-1,1H3c-0.6,0-1-0.4-1-1V2.8C2,2.2,2.4,1.8,3,1.8z"/>
<path class="st0" d="M13.6,12.4H19c0.6,0,1,0.4,1,1v5.3c0,0.6-0.4,1-1,1h-5.3c-0.6,0-1-0.4-1-1v-5.3C12.6,12.9,13.1,12.4,13.6,12.4z
	"/>
<path class="st1" d="M12.1,5.5c-0.1-0.1-0.1-0.3,0-0.4L16.2,1c0.1-0.1,0.3-0.1,0.4,0l4.2,4.2c0.1,0.1,0.1,0.3,0,0.4l-4.2,4.2
	c-0.1,0.1-0.3,0.1-0.4,0l-2.1-2.1L12.1,5.5z"/>
</svg>
