<svg width="24" height="24" viewBox="0 0 24 24" fill="none" xmlns="http://www.w3.org/2000/svg">
<path fill-rule="evenodd" clip-rule="evenodd" d="M3.5 16.153V20.4999H7.84697V16.153H3.5ZM3 14.653C2.44772 14.653 2 15.1007 2 15.653V20.9999C2 21.5522 2.44771 21.9999 3 21.9999H8.34697C8.89925 21.9999 9.34697 21.5522 9.34697 20.9999V15.653C9.34697 15.1007 8.89925 14.653 8.34697 14.653H3Z" fill="#F4F8FB"/>
<path fill-rule="evenodd" clip-rule="evenodd" d="M3.5 5.54065V9.88761H7.84697V5.54065H3.5ZM3 4.04065C2.44772 4.04065 2 4.48836 2 5.04065V10.3876C2 10.9399 2.44771 11.3876 3 11.3876H8.34697C8.89925 11.3876 9.34697 10.9399 9.34697 10.3876V5.04065C9.34697 4.48836 8.89925 4.04065 8.34697 4.04065H3Z" fill="#F4F8FB"/>
<path fill-rule="evenodd" clip-rule="evenodd" d="M14.1123 16.153V20.4999H18.4593V16.153H14.1123ZM13.6123 14.653C13.06 14.653 12.6123 15.1007 12.6123 15.653V20.9999C12.6123 21.5522 13.06 21.9999 13.6123 21.9999H18.9593C19.5116 21.9999 19.9593 21.5522 19.9593 20.9999V15.653C19.9593 15.1007 19.5116 14.653 18.9593 14.653H13.6123Z" fill="#F4F8FB"/>
<path fill-rule="evenodd" clip-rule="evenodd" d="M12.9617 7.57941L16.4201 11.0378L19.8785 7.57941L16.4201 4.12098L12.9617 7.57941ZM11.5474 6.8723C11.1569 7.26282 11.1569 7.89599 11.5474 8.28651L15.713 12.452C16.1035 12.8426 16.7367 12.8426 17.1272 12.452L21.2927 8.28651C21.6832 7.89599 21.6832 7.26282 21.2927 6.8723L17.1272 2.70677C16.7367 2.31625 16.1035 2.31625 15.713 2.70677L11.5474 6.8723Z" fill="#F4F8FB"/>
</svg>
