<svg width="26" height="26" viewBox="0 0 26 26" fill="none" xmlns="http://www.w3.org/2000/svg">
<path d="M17.9932 5.6748H7.89404C7.34176 5.6748 6.89404 6.12252 6.89404 6.6748V22.4611C6.89404 23.5657 7.78947 24.4611 8.89404 24.4611H16.9932C18.0978 24.4611 18.9932 23.5657 18.9932 22.4611V6.6748C18.9932 6.12252 18.5455 5.6748 17.9932 5.6748Z" stroke="#01579B" stroke-width="1.2"/>
<path d="M12.9005 16.2445C15.0601 16.2445 16.8108 14.8617 16.8108 13.1559C16.8108 11.4502 15.0601 10.0674 12.9005 10.0674C10.7409 10.0674 8.99023 11.4502 8.99023 13.1559C8.99023 14.8617 10.7409 16.2445 12.9005 16.2445Z" stroke="#01579B" stroke-width="1.3"/>
<path d="M12.9009 8.13972C13.4486 8.13972 13.8927 7.6957 13.8927 7.14798C13.8927 6.60026 13.4486 6.15625 12.9009 6.15625C12.3532 6.15625 11.9092 6.60026 11.9092 7.14798C11.9092 7.6957 12.3532 8.13972 12.9009 8.13972Z" stroke="#01579B" stroke-width="1.2"/>
<path d="M12.9859 19.7579C13.5336 19.7579 13.9776 19.3139 13.9776 18.7661C13.9776 18.2184 13.5336 17.7744 12.9859 17.7744C12.4382 17.7744 11.9941 18.2184 11.9941 18.7661C11.9941 19.3139 12.4382 19.7579 12.9859 19.7579Z" stroke="#01579B" stroke-width="1.2"/>
<path d="M11.4844 24.4615C11.4844 24.4048 11.4844 24.3765 11.4844 24.3198C11.4844 21.798 9.44422 19.7295 6.89404 19.7295V22.4615C6.89404 23.5661 7.78947 24.4615 8.89404 24.4615H11.4844Z" stroke="#01579B" stroke-width="1.2"/>
<path d="M18.9927 19.7578C18.9644 19.7578 18.9644 19.7578 18.936 19.7578C16.4142 19.7578 14.3457 21.798 14.3457 24.3481C14.3457 24.4048 14.3457 24.4331 14.3457 24.4898H16.9644C18.0689 24.4898 18.9644 23.5944 18.9644 22.4898V19.7578H18.9927Z" stroke="#01579B" stroke-width="1.2"/>
<path d="M6.89408 5.6748H4.06055V9.16005H6.89408V5.6748Z" stroke="#01579B" stroke-width="1.2"/>
<path d="M21.7417 5.6748H18.9932V9.16005H21.7417V5.6748Z" stroke="#01579B" stroke-width="1.2"/>
<path d="M3.4248 1.4248C2.32023 1.4248 1.4248 2.32024 1.4248 3.4248V10.7589C1.4248 11.8635 2.32024 12.7589 3.4248 12.7589H5.89352C6.4458 12.7589 6.89352 12.3112 6.89352 11.7589V6.6751C6.89352 6.12281 7.34123 5.6751 7.89352 5.6751H17.9927C18.545 5.6751 18.9927 6.12282 18.9927 6.6751V11.7589C18.9927 12.3112 19.4404 12.7589 19.9927 12.7589H22.5747C23.6793 12.7589 24.5747 11.8635 24.5747 10.7589V3.42481C24.5747 2.32024 23.6793 1.4248 22.5747 1.4248H3.4248Z" stroke="#01579B" stroke-width="1.2"/>
</svg>
