<svg width="32" height="32" viewBox="0 0 32 32" fill="none" xmlns="http://www.w3.org/2000/svg">
<path d="M20.9932 8.6748H10.894C10.3418 8.6748 9.89404 9.12252 9.89404 9.6748V25.4611C9.89404 26.5657 10.7895 27.4611 11.894 27.4611H19.9932C21.0978 27.4611 21.9932 26.5657 21.9932 25.4611V9.6748C21.9932 9.12252 21.5455 8.6748 20.9932 8.6748Z" stroke="#01579B" stroke-width="1.2"/>
<path d="M15.9005 19.2445C18.0601 19.2445 19.8108 17.8617 19.8108 16.1559C19.8108 14.4502 18.0601 13.0674 15.9005 13.0674C13.7409 13.0674 11.9902 14.4502 11.9902 16.1559C11.9902 17.8617 13.7409 19.2445 15.9005 19.2445Z" stroke="#01579B" stroke-width="1.3"/>
<path d="M15.9009 11.1402C16.4486 11.1402 16.8927 10.6962 16.8927 10.1485C16.8927 9.60075 16.4486 9.15674 15.9009 9.15674C15.3532 9.15674 14.9092 9.60075 14.9092 10.1485C14.9092 10.6962 15.3532 11.1402 15.9009 11.1402Z" stroke="#01579B" stroke-width="1.2"/>
<path d="M15.9859 22.7579C16.5336 22.7579 16.9776 22.3139 16.9776 21.7661C16.9776 21.2184 16.5336 20.7744 15.9859 20.7744C15.4382 20.7744 14.9941 21.2184 14.9941 21.7661C14.9941 22.3139 15.4382 22.7579 15.9859 22.7579Z" stroke="#01579B" stroke-width="1.2"/>
<path d="M14.4844 27.4615C14.4844 27.4048 14.4844 27.3765 14.4844 27.3198C14.4844 24.798 12.4442 22.7295 9.89404 22.7295V25.4615C9.89404 26.5661 10.7895 27.4615 11.894 27.4615H14.4844Z" stroke="#01579B" stroke-width="1.2"/>
<path d="M21.9927 22.7578C21.9644 22.7578 21.9644 22.7578 21.936 22.7578C19.4142 22.7578 17.3457 24.798 17.3457 27.3481C17.3457 27.4048 17.3457 27.4331 17.3457 27.4898H19.9644C21.0689 27.4898 21.9644 26.5944 21.9644 25.4898V22.7578H21.9927Z" stroke="#01579B" stroke-width="1.2"/>
<path d="M9.89408 8.6748H7.06055V12.16H9.89408V8.6748Z" stroke="#01579B" stroke-width="1.2"/>
<path d="M24.7417 8.6748H21.9932V12.16H24.7417V8.6748Z" stroke="#01579B" stroke-width="1.2"/>
<path d="M6.4248 4.4248C5.32023 4.4248 4.4248 5.32024 4.4248 6.4248V13.7589C4.4248 14.8635 5.32024 15.7589 6.4248 15.7589H8.89352C9.4458 15.7589 9.89352 15.3112 9.89352 14.7589V9.6751C9.89352 9.12281 10.3412 8.6751 10.8935 8.6751H20.9927C21.545 8.6751 21.9927 9.12282 21.9927 9.6751V14.7589C21.9927 15.3112 22.4404 15.7589 22.9927 15.7589H25.5747C26.6793 15.7589 27.5747 14.8635 27.5747 13.7589V6.42481C27.5747 5.32024 26.6793 4.4248 25.5747 4.4248H6.4248Z" stroke="#01579B" stroke-width="1.2"/>
</svg>
