<svg width="24" height="22" viewBox="0 0 24 22" fill="none" xmlns="http://www.w3.org/2000/svg">
<path d="M22.0835 3.66699V9.16699H16.5835" stroke="#01579B" stroke-width="2" stroke-linecap="round" stroke-linejoin="round"/>
<path d="M1.9165 18.333V12.833H7.4165" stroke="#01579B" stroke-width="2" stroke-linecap="round" stroke-linejoin="round"/>
<path d="M4.21734 8.24978C4.68224 6.936 5.47238 5.7614 6.51401 4.83558C7.55565 3.90977 8.81485 3.2629 10.1741 2.95535C11.5334 2.64781 12.9484 2.6896 14.2871 3.07683C15.6258 3.46406 16.8447 4.18411 17.8298 5.16978L22.0832 9.16645M1.9165 12.8331L6.16984 16.8298C7.15502 17.8155 8.37385 18.5355 9.71258 18.9227C11.0513 19.31 12.4663 19.3518 13.8256 19.0442C15.1848 18.7367 16.444 18.0898 17.4857 17.164C18.5273 16.2382 19.3174 15.0636 19.7823 13.7498" stroke="#01579B" stroke-width="2" stroke-linecap="round" stroke-linejoin="round"/>
</svg>
