<svg width="32" height="32" viewBox="0 0 32 32" fill="none" xmlns="http://www.w3.org/2000/svg">
<path fill-rule="evenodd" clip-rule="evenodd" d="M26.0835 7.6665C26.6358 7.6665 27.0835 8.11422 27.0835 8.6665V14.1665C27.0835 14.7188 26.6358 15.1665 26.0835 15.1665H20.5835C20.0312 15.1665 19.5835 14.7188 19.5835 14.1665C19.5835 13.6142 20.0312 13.1665 20.5835 13.1665H25.0835V8.6665C25.0835 8.11422 25.5312 7.6665 26.0835 7.6665Z" fill="#01579B"/>
<path fill-rule="evenodd" clip-rule="evenodd" d="M4.9165 17.8335C4.9165 17.2812 5.36422 16.8335 5.9165 16.8335H11.4165C11.9688 16.8335 12.4165 17.2812 12.4165 17.8335C12.4165 18.3858 11.9688 18.8335 11.4165 18.8335H6.9165V23.3335C6.9165 23.8858 6.46879 24.3335 5.9165 24.3335C5.36422 24.3335 4.9165 23.8858 4.9165 23.3335V17.8335Z" fill="#01579B"/>
<path fill-rule="evenodd" clip-rule="evenodd" d="M18.0092 9.03794C16.8328 8.69764 15.5893 8.66092 14.3948 8.93119C13.2003 9.20146 12.0937 9.76991 11.1783 10.5835C10.263 11.3971 9.56861 12.4293 9.16006 13.5839C8.97582 14.1045 8.40439 14.3772 7.88374 14.193C7.3631 14.0087 7.09038 13.4373 7.27462 12.9167C7.79588 11.4437 8.68179 10.1267 9.84969 9.08863C11.0176 8.05059 12.4294 7.32532 13.9534 6.9805C15.4774 6.63567 17.064 6.68253 18.565 7.11669C20.0608 7.54937 21.4231 8.35263 22.5257 9.45194L26.768 13.4382C27.1704 13.8164 27.1901 14.4492 26.8119 14.8517C26.4337 15.2542 25.8009 15.2739 25.3984 14.8957L21.1451 10.899C21.1374 10.8919 21.1299 10.8846 21.1226 10.8772C20.2568 10.011 19.1857 9.37823 18.0092 9.03794ZM5.18775 17.1488C5.56595 16.7464 6.1988 16.7267 6.60128 17.1049L10.8546 21.1015C10.8622 21.1087 10.8697 21.116 10.8771 21.1233C11.7429 21.9895 12.814 22.6223 13.9904 22.9626C15.1669 23.3029 16.4104 23.3396 17.6049 23.0694C18.7994 22.7991 19.906 22.2306 20.8213 21.417C21.7367 20.6034 22.4311 19.5712 22.8396 18.4167C23.0239 17.896 23.5953 17.6233 24.1159 17.8076C24.6366 17.9918 24.9093 18.5632 24.7251 19.0839C24.2038 20.5569 23.3179 21.8739 22.15 22.9119C20.9821 23.95 19.5703 24.6752 18.0463 25.02C16.5223 25.3649 14.9357 25.318 13.4347 24.8839C11.9389 24.4512 10.5766 23.6479 9.47397 22.5486L5.23173 18.5624C4.82925 18.1842 4.80956 17.5513 5.18775 17.1488Z" fill="#01579B"/>
</svg>
