<svg xmlns="http://www.w3.org/2000/svg" width="20" height="18" viewBox="0 0 20 18"><g><g><g><path fill="#01579b" d="M3.625 17.1c-.508-.068.142-3.202.142-3.202h-1.1A1.66 1.66 0 0 1 1 12.215v-9.63A1.66 1.66 0 0 1 2.667.9h14.666A1.66 1.66 0 0 1 19 2.585v9.629a1.66 1.66 0 0 1-1.667 1.685h-8.9s-4.3 3.268-4.808 3.2zM2.667 1.573c-.567 0-1 .438-1 1.01v9.63a.987.987 0 0 0 1 1.01h2l-.292 2.292L8.2 13.225h9.134c.566 0 1-.438 1-1.011v-9.63a.987.987 0 0 0-1-1.01z"/><path fill="none" stroke="#01579b" stroke-miterlimit="20" stroke-width=".5" d="M3.625 17.1c-.508-.068.142-3.202.142-3.202h-1.1A1.66 1.66 0 0 1 1 12.215v-9.63A1.66 1.66 0 0 1 2.667.9h14.666A1.66 1.66 0 0 1 19 2.585v9.629a1.66 1.66 0 0 1-1.667 1.685h-8.9s-4.3 3.268-4.808 3.2zM2.667 1.573c-.567 0-1 .438-1 1.01v9.63a.987.987 0 0 0 1 1.01h2l-.292 2.292L8.2 13.225h9.134c.566 0 1-.438 1-1.011v-9.63a.987.987 0 0 0-1-1.01z"/></g><g><path fill="#01579b" d="M6.4 8.1a.9.9 0 1 0 0-1.8.9.9 0 0 0 0 1.8z"/></g><g><path fill="#01579b" d="M10 8.1a.9.9 0 1 0 0-1.8.9.9 0 0 0 0 1.8z"/></g><g><path fill="#01579b" d="M13.6 8.1a.9.9 0 1 0 0-1.8.9.9 0 0 0 0 1.8z"/></g></g></g></svg>