<svg width="18" height="24" viewBox="0 0 18 24" fill="none" xmlns="http://www.w3.org/2000/svg">
<path d="M17.25 8.47059C17.25 9.26711 16.9256 10.3694 16.3323 11.6806C15.7481 12.9718 14.9401 14.3874 14.0543 15.7852C12.2836 18.5795 10.2404 21.2432 9.16495 22.6003C9.07619 22.7123 8.92381 22.7123 8.83504 22.6003C7.75961 21.2432 5.71641 18.5795 3.94568 15.7852C3.05991 14.3874 2.25185 12.9718 1.66766 11.6806C1.07443 10.3694 0.75 9.26711 0.75 8.47059C0.75 4.24881 4.40017 0.75 9 0.75C13.5998 0.75 17.25 4.24881 17.25 8.47059Z" stroke="white" stroke-width="1.5"/>
<circle cx="9" cy="8" r="3.25" stroke="white" stroke-width="1.5"/>
</svg>
