<svg xmlns="http://www.w3.org/2000/svg" width="17" height="16" viewBox="0 0 17 16"><g><g><g/><g><g/><g><path fill="#fff" d="M16.504 8.182a9.69 9.69 0 0 0-.136-1.622H8.67v3.078h4.41a3.7 3.7 0 0 1-1.632 2.433v2h2.63c1.542-1.389 2.426-3.444 2.426-5.889z"/></g><g><path fill="#fff" d="M8.67 15.996c2.2 0 4.059-.71 5.408-1.933l-2.63-2c-.737.49-1.678.767-2.778.767-2.131 0-3.934-1.411-4.58-3.3H1.38v2.067c1.383 2.7 4.206 4.4 7.29 4.4z"/></g><g><path fill="#fff" d="M4.085 9.532a4.736 4.736 0 0 1 0-3.067V4.41h-2.71a7.79 7.79 0 0 0 0 7.178z"/></g><g><path fill="#fff" d="M8.67 3.167a4.442 4.442 0 0 1 3.13 1.2l2.335-2.289A7.97 7.97 0 0 0 8.67 0C5.586 0 2.763 1.712 1.38 4.411l2.71 2.067c.646-1.9 2.449-3.31 4.58-3.31z"/></g></g></g></g></svg>