<svg width="30" height="30" viewBox="0 0 30 30" fill="none" xmlns="http://www.w3.org/2000/svg">
<path fill-rule="evenodd" clip-rule="evenodd" d="M6.75 2.75H3.25C2.97386 2.75 2.75 2.97386 2.75 3.25V6.75C2.75 7.02614 2.97386 7.25 3.25 7.25H6.75C7.02614 7.25 7.25 7.02614 7.25 6.75V3.25C7.25 2.97386 7.02614 2.75 6.75 2.75ZM3.25 1.25C2.14543 1.25 1.25 2.14543 1.25 3.25V6.75C1.25 7.85457 2.14543 8.75 3.25 8.75H6.75C7.85457 8.75 8.75 7.85457 8.75 6.75V3.25C8.75 2.14543 7.85457 1.25 6.75 1.25H3.25Z" fill="#01579B"/>
<path fill-rule="evenodd" clip-rule="evenodd" d="M16.75 2.75H13.25C12.9739 2.75 12.75 2.97386 12.75 3.25V6.75C12.75 7.02614 12.9739 7.25 13.25 7.25H16.75C17.0261 7.25 17.25 7.02614 17.25 6.75V3.25C17.25 2.97386 17.0261 2.75 16.75 2.75ZM13.25 1.25C12.1454 1.25 11.25 2.14543 11.25 3.25V6.75C11.25 7.85457 12.1454 8.75 13.25 8.75H16.75C17.8546 8.75 18.75 7.85457 18.75 6.75V3.25C18.75 2.14543 17.8546 1.25 16.75 1.25H13.25Z" fill="#01579B"/>
<path fill-rule="evenodd" clip-rule="evenodd" d="M26.75 2.75H23.25C22.9739 2.75 22.75 2.97386 22.75 3.25V6.75C22.75 7.02614 22.9739 7.25 23.25 7.25H26.75C27.0261 7.25 27.25 7.02614 27.25 6.75V3.25C27.25 2.97386 27.0261 2.75 26.75 2.75ZM23.25 1.25C22.1454 1.25 21.25 2.14543 21.25 3.25V6.75C21.25 7.85457 22.1454 8.75 23.25 8.75H26.75C27.8546 8.75 28.75 7.85457 28.75 6.75V3.25C28.75 2.14543 27.8546 1.25 26.75 1.25H23.25Z" fill="#01579B"/>
<path fill-rule="evenodd" clip-rule="evenodd" d="M6.75 12.75H3.25C2.97386 12.75 2.75 12.9739 2.75 13.25V16.75C2.75 17.0261 2.97386 17.25 3.25 17.25H6.75C7.02614 17.25 7.25 17.0261 7.25 16.75V13.25C7.25 12.9739 7.02614 12.75 6.75 12.75ZM3.25 11.25C2.14543 11.25 1.25 12.1454 1.25 13.25V16.75C1.25 17.8546 2.14543 18.75 3.25 18.75H6.75C7.85457 18.75 8.75 17.8546 8.75 16.75V13.25C8.75 12.1454 7.85457 11.25 6.75 11.25H3.25Z" fill="#01579B"/>
<path fill-rule="evenodd" clip-rule="evenodd" d="M6.75 22.75H3.25C2.97386 22.75 2.75 22.9739 2.75 23.25V26.75C2.75 27.0261 2.97386 27.25 3.25 27.25H6.75C7.02614 27.25 7.25 27.0261 7.25 26.75V23.25C7.25 22.9739 7.02614 22.75 6.75 22.75ZM3.25 21.25C2.14543 21.25 1.25 22.1454 1.25 23.25V26.75C1.25 27.8546 2.14543 28.75 3.25 28.75H6.75C7.85457 28.75 8.75 27.8546 8.75 26.75V23.25C8.75 22.1454 7.85457 21.25 6.75 21.25H3.25Z" fill="#01579B"/>
<path fill-rule="evenodd" clip-rule="evenodd" d="M16.75 12.75H13.25C12.9739 12.75 12.75 12.9739 12.75 13.25V16.75C12.75 17.0261 12.9739 17.25 13.25 17.25H16.75C17.0261 17.25 17.25 17.0261 17.25 16.75V13.25C17.25 12.9739 17.0261 12.75 16.75 12.75ZM13.25 11.25C12.1454 11.25 11.25 12.1454 11.25 13.25V16.75C11.25 17.8546 12.1454 18.75 13.25 18.75H16.75C17.8546 18.75 18.75 17.8546 18.75 16.75V13.25C18.75 12.1454 17.8546 11.25 16.75 11.25H13.25Z" fill="#01579B"/>
<path fill-rule="evenodd" clip-rule="evenodd" d="M16.75 22.75H13.25C12.9739 22.75 12.75 22.9739 12.75 23.25V26.75C12.75 27.0261 12.9739 27.25 13.25 27.25H16.75C17.0261 27.25 17.25 27.0261 17.25 26.75V23.25C17.25 22.9739 17.0261 22.75 16.75 22.75ZM13.25 21.25C12.1454 21.25 11.25 22.1454 11.25 23.25V26.75C11.25 27.8546 12.1454 28.75 13.25 28.75H16.75C17.8546 28.75 18.75 27.8546 18.75 26.75V23.25C18.75 22.1454 17.8546 21.25 16.75 21.25H13.25Z" fill="#01579B"/>
<path fill-rule="evenodd" clip-rule="evenodd" d="M26.75 12.75H23.25C22.9739 12.75 22.75 12.9739 22.75 13.25V16.75C22.75 17.0261 22.9739 17.25 23.25 17.25H26.75C27.0261 17.25 27.25 17.0261 27.25 16.75V13.25C27.25 12.9739 27.0261 12.75 26.75 12.75ZM23.25 11.25C22.1454 11.25 21.25 12.1454 21.25 13.25V16.75C21.25 17.8546 22.1454 18.75 23.25 18.75H26.75C27.8546 18.75 28.75 17.8546 28.75 16.75V13.25C28.75 12.1454 27.8546 11.25 26.75 11.25H23.25Z" fill="#01579B"/>
<path fill-rule="evenodd" clip-rule="evenodd" d="M26.75 22.75H23.25C22.9739 22.75 22.75 22.9739 22.75 23.25V26.75C22.75 27.0261 22.9739 27.25 23.25 27.25H26.75C27.0261 27.25 27.25 27.0261 27.25 26.75V23.25C27.25 22.9739 27.0261 22.75 26.75 22.75ZM23.25 21.25C22.1454 21.25 21.25 22.1454 21.25 23.25V26.75C21.25 27.8546 22.1454 28.75 23.25 28.75H26.75C27.8546 28.75 28.75 27.8546 28.75 26.75V23.25C28.75 22.1454 27.8546 21.25 26.75 21.25H23.25Z" fill="#01579B"/>
</svg>
