<svg xmlns="http://www.w3.org/2000/svg" width="38" height="32" viewBox="0 0 38 32"><defs><clipPath id="ufzha"><path fill="#fff" d="M34.51 2.8A9.654 9.654 0 0 0 31.378.728a9.73 9.73 0 0 0-7.386 0 9.656 9.656 0 0 0-3.13 2.072l-1.86 1.84-1.86-1.84A9.699 9.699 0 0 0 10.32 0a9.699 9.699 0 0 0-6.824 2.8A9.508 9.508 0 0 0 .67 9.556a9.508 9.508 0 0 0 2.826 6.757l1.86 1.84 13.647 13.514L32.65 18.154l1.86-1.841a9.547 9.547 0 0 0 2.092-3.1 9.47 9.47 0 0 0 0-7.314 9.546 9.546 0 0 0-2.093-3.1z"/></clipPath></defs><g><g><path fill="none" stroke="#060f42" stroke-miterlimit="20" stroke-width="4" d="M34.51 2.8A9.654 9.654 0 0 0 31.378.728a9.73 9.73 0 0 0-7.386 0 9.656 9.656 0 0 0-3.13 2.072l-1.86 1.84v0l-1.86-1.84A9.699 9.699 0 0 0 10.32 0a9.699 9.699 0 0 0-6.824 2.8A9.508 9.508 0 0 0 .67 9.556a9.508 9.508 0 0 0 2.826 6.757l1.86 1.84v0l13.647 13.514v0L32.65 18.154v0l1.86-1.841a9.547 9.547 0 0 0 2.092-3.1 9.47 9.47 0 0 0 0-7.314 9.546 9.546 0 0 0-2.093-3.1z" clip-path="url(&quot;#ufzha&quot;)"/></g></g></svg>