<svg width="40" height="40" viewBox="0 0 40 40" fill="none" xmlns="http://www.w3.org/2000/svg">
<path fill-rule="evenodd" clip-rule="evenodd" d="M23.266 9.22074L21.4066 11.0618C20.6272 11.8336 19.3716 11.8336 18.5922 11.0618L16.7328 9.22074C15.2996 7.80166 13.3517 7.00093 11.3165 7.00093C9.28122 7.00093 7.33328 7.80166 5.90012 9.22074C4.46763 10.6392 3.6665 12.5587 3.6665 14.5561C3.6665 16.5534 4.46763 18.473 5.90012 19.8914L19.9994 33.8521L34.0986 19.8914C34.8082 19.1891 35.3704 18.356 35.7534 17.4408C36.1363 16.5256 36.3332 15.5455 36.3332 14.5561C36.3332 13.5667 36.1363 12.5865 35.7534 11.6713C35.3704 10.7562 34.8086 9.92338 34.0989 9.22107C33.3896 8.5184 32.5457 7.95929 31.6162 7.57792C30.6866 7.19654 29.6896 7 28.6823 7C27.6749 7 26.6779 7.19654 25.7484 7.57792C24.8189 7.95929 23.9753 8.51806 23.266 9.22074ZM19.9994 36.6667L4.49291 21.3126C2.68319 19.5206 1.6665 17.0902 1.6665 14.5561C1.6665 12.0219 2.68319 9.5915 4.49291 7.79956C6.30262 6.00763 8.75713 5.00093 11.3165 5.00093C13.8758 5.00093 16.3303 6.00763 18.14 7.79956L19.9994 9.64067L21.8587 7.79956C22.7547 6.91202 23.8184 6.20796 24.9892 5.7276C26.16 5.24724 27.415 5 28.6823 5C29.9496 5 31.2045 5.24724 32.3753 5.7276C33.5461 6.20796 34.6099 6.91202 35.5058 7.79956C36.4022 8.68669 37.1132 9.73999 37.5983 10.8993C38.0835 12.0586 38.3332 13.3012 38.3332 14.5561C38.3332 15.8109 38.0835 17.0535 37.5983 18.2128C37.1132 19.3721 36.4022 20.4254 35.5058 21.3126L19.9994 36.6667Z" fill="#060F42"/>
</svg>
