<?xml version="1.0" encoding="utf-8"?>
<!-- Generator: Adobe Illustrator 24.1.2, SVG Export Plug-In . SVG Version: 6.00 Build 0)  -->
<svg version="1.1" id="Слой_1" xmlns="http://www.w3.org/2000/svg" xmlns:xlink="http://www.w3.org/1999/xlink" x="0px" y="0px"
	 viewBox="0 0 37.6 31.8" style="enable-background:new 0 0 37.6 31.8;" xml:space="preserve">
<style type="text/css">
	.st0{fill:none;stroke:#060F42;stroke-width:2;stroke-linecap:round;stroke-linejoin:round;}
</style>
<path class="st0" d="M33.6,3.8L33.6,3.8c0.8,0.8,1.4,1.7,1.9,2.8c0.4,1,0.7,2.1,0.7,3.3c0,1.1-0.2,2.2-0.7,3.3c-0.4,1-1.1,2-1.9,2.8
	l0,0l-1.9,1.8L18.8,30.5L5.9,17.7L4,15.9c-1.6-1.6-2.5-3.8-2.5-6c0-2.3,0.9-4.4,2.5-6s3.8-2.5,6.1-2.5s4.5,0.9,6.1,2.5l1.9,1.8
	c0.4,0.4,1,0.4,1.4,0l1.9-1.8l0,0c0.8-0.8,1.8-1.4,2.8-1.9c1.1-0.4,2.2-0.7,3.3-0.7c1.1,0,2.3,0.2,3.3,0.7C31.9,2.4,32.8,3,33.6,3.8
	z"/>
</svg>
