<svg xmlns="http://www.w3.org/2000/svg" width="20" height="20" viewBox="0 0 20 20"><g><g><path fill="#060f42" d="M6.667 10a3.333 3.333 0 1 1 6.667 0 3.333 3.333 0 0 1-6.667 0zm-1.802 0a5.135 5.135 0 1 0 10.27 0 5.135 5.135 0 0 0-10.27 0zm9.273-5.338a1.2 1.2 0 1 0 1.2-1.2 1.2 1.2 0 0 0-1.2 1.2zM5.96 18.14c-.975-.045-1.505-.207-1.857-.344a3.11 3.11 0 0 1-1.15-.748 3.086 3.086 0 0 1-.748-1.15c-.138-.352-.3-.882-.344-1.857-.049-1.054-.058-1.37-.058-4.04 0-2.671.01-2.987.058-4.042.044-.975.208-1.504.344-1.857.181-.467.398-.8.748-1.15.35-.35.682-.567 1.15-.748.352-.138.882-.3 1.857-.344C7.014 1.81 7.33 1.8 10 1.8s2.986.01 4.041.059c.975.044 1.504.208 1.857.344.467.18.8.398 1.15.748.35.35.567.683.749 1.15.137.352.3.882.344 1.857.048 1.055.058 1.37.058 4.041 0 2.67-.01 2.986-.058 4.041-.045.975-.208 1.505-.344 1.857a3.1 3.1 0 0 1-.748 1.15 3.11 3.11 0 0 1-1.15.748c-.353.137-.883.3-1.858.344-1.054.048-1.37.058-4.041.058-2.67 0-2.986-.01-4.04-.058zM5.877.06C4.813.11 4.085.279 3.45.526a4.905 4.905 0 0 0-1.772 1.153A4.886 4.886 0 0 0 .525 3.45C.278 4.086.109 4.813.061 5.877.01 6.943 0 7.284 0 10s.011 3.057.06 4.123c.049 1.064.218 1.791.465 2.427a4.888 4.888 0 0 0 1.153 1.771 4.916 4.916 0 0 0 1.772 1.154c.636.247 1.363.416 2.427.464C6.944 19.988 7.284 20 10 20s3.057-.011 4.123-.06c1.064-.049 1.791-.218 2.427-.465a4.917 4.917 0 0 0 1.771-1.154 4.899 4.899 0 0 0 1.154-1.77c.247-.637.417-1.364.464-2.428.049-1.067.06-1.407.06-4.123s-.011-3.057-.06-4.123c-.048-1.064-.217-1.792-.464-2.427a4.918 4.918 0 0 0-1.153-1.772A4.893 4.893 0 0 0 16.55.525c-.637-.247-1.364-.417-2.427-.464C13.057.012 12.716 0 10 0 7.285 0 6.944.011 5.877.06z"/></g></g></svg>