<?xml version="1.0" encoding="utf-8"?>
<!-- Generator: Adobe Illustrator 24.1.2, SVG Export Plug-In . SVG Version: 6.00 Build 0)  -->
<svg version="1.1" id="Слой_1" xmlns="http://www.w3.org/2000/svg" xmlns:xlink="http://www.w3.org/1999/xlink" x="0px" y="0px"
	 viewBox="0 0 17 17.2" style="enable-background:new 0 0 17 17.2;" xml:space="preserve">
<style type="text/css">
	.st0{fill:none;}
</style>
<path class="st0" d="M10.4,2.7v3.3h4.7c0.2,0,0.5,0,0.7,0.1c0.2,0.1,0.4,0.2,0.6,0.4c0.2,0.2,0.3,0.4,0.3,0.6c0.1,0.2,0.1,0.5,0,0.7
	l-1.2,7.5c-0.1,0.4-0.3,0.8-0.6,1c-0.3,0.3-0.7,0.4-1.1,0.4H5.6V7.7C5.6,7.3,5.3,7,5,6.8l2.9-6.6c0.7,0,1.3,0.3,1.8,0.7
	C10.2,1.4,10.4,2.1,10.4,2.7z M3.6,7.7H2.1c-0.4,0-0.9,0.2-1.2,0.5C0.6,8.5,0.4,9,0.4,9.4v5.8c0,0.4,0.2,0.9,0.5,1.2
	c0.3,0.3,0.7,0.5,1.2,0.5h1.5V7.7z"/>
</svg>
