<svg width="30" height="30" viewBox="0 0 30 30" fill="none" xmlns="http://www.w3.org/2000/svg">
<path fill-rule="evenodd" clip-rule="evenodd" d="M6.75 2.75H3.25C2.97386 2.75 2.75 2.97386 2.75 3.25V6.75C2.75 7.02614 2.97386 7.25 3.25 7.25H6.75C7.02614 7.25 7.25 7.02614 7.25 6.75V3.25C7.25 2.97386 7.02614 2.75 6.75 2.75ZM3.25 1.25C2.14543 1.25 1.25 2.14543 1.25 3.25V6.75C1.25 7.85457 2.14543 8.75 3.25 8.75H6.75C7.85457 8.75 8.75 7.85457 8.75 6.75V3.25C8.75 2.14543 7.85457 1.25 6.75 1.25H3.25Z" fill="#060F42"/>
<path fill-rule="evenodd" clip-rule="evenodd" d="M10.5 5C10.5 4.58579 10.8358 4.25 11.25 4.25H27.5C27.9142 4.25 28.25 4.58579 28.25 5C28.25 5.41421 27.9142 5.75 27.5 5.75H11.25C10.8358 5.75 10.5 5.41421 10.5 5Z" fill="#060F42"/>
<path fill-rule="evenodd" clip-rule="evenodd" d="M6.75 12.75H3.25C2.97386 12.75 2.75 12.9739 2.75 13.25V16.75C2.75 17.0261 2.97386 17.25 3.25 17.25H6.75C7.02614 17.25 7.25 17.0261 7.25 16.75V13.25C7.25 12.9739 7.02614 12.75 6.75 12.75ZM3.25 11.25C2.14543 11.25 1.25 12.1454 1.25 13.25V16.75C1.25 17.8546 2.14543 18.75 3.25 18.75H6.75C7.85457 18.75 8.75 17.8546 8.75 16.75V13.25C8.75 12.1454 7.85457 11.25 6.75 11.25H3.25Z" fill="#060F42"/>
<path fill-rule="evenodd" clip-rule="evenodd" d="M10.5 15C10.5 14.5858 10.8358 14.25 11.25 14.25H27.5C27.9142 14.25 28.25 14.5858 28.25 15C28.25 15.4142 27.9142 15.75 27.5 15.75H11.25C10.8358 15.75 10.5 15.4142 10.5 15Z" fill="#060F42"/>
<path fill-rule="evenodd" clip-rule="evenodd" d="M6.75 22.75H3.25C2.97386 22.75 2.75 22.9739 2.75 23.25V26.75C2.75 27.0261 2.97386 27.25 3.25 27.25H6.75C7.02614 27.25 7.25 27.0261 7.25 26.75V23.25C7.25 22.9739 7.02614 22.75 6.75 22.75ZM3.25 21.25C2.14543 21.25 1.25 22.1454 1.25 23.25V26.75C1.25 27.8546 2.14543 28.75 3.25 28.75H6.75C7.85457 28.75 8.75 27.8546 8.75 26.75V23.25C8.75 22.1454 7.85457 21.25 6.75 21.25H3.25Z" fill="#060F42"/>
<path fill-rule="evenodd" clip-rule="evenodd" d="M10.5 25C10.5 24.5858 10.8358 24.25 11.25 24.25H27.5C27.9142 24.25 28.25 24.5858 28.25 25C28.25 25.4142 27.9142 25.75 27.5 25.75H11.25C10.8358 25.75 10.5 25.4142 10.5 25Z" fill="#060F42"/>
</svg>
