<svg width="22" height="22" viewBox="0 0 22 22" fill="none" xmlns="http://www.w3.org/2000/svg">
<path d="M9.8889 11.5827C10.2884 12.1121 10.7981 12.5502 11.3835 12.8672C11.9688 13.1842 12.6161 13.3727 13.2814 13.4199C13.9467 13.4672 14.6144 13.372 15.2394 13.1409C15.8643 12.9099 16.4318 12.5482 16.9034 12.0806L19.6943 9.31411C20.5416 8.44449 21.0104 7.27977 20.9998 6.07081C20.9892 4.86186 20.5 3.70539 19.6376 2.8505C18.7752 1.9956 17.6085 1.51068 16.3889 1.50017C15.1693 1.48967 13.9943 1.95442 13.117 2.79433L11.5169 4.37125M12.1111 10.4173C11.7116 9.88789 11.2019 9.4498 10.6165 9.1328C10.0312 8.8158 9.38392 8.62728 8.71862 8.58005C8.05332 8.53282 7.38556 8.62798 6.76062 8.85906C6.13568 9.09014 5.56819 9.45175 5.09663 9.91936L2.30573 12.6859C1.45842 13.5555 0.989578 14.7202 1.00018 15.9292C1.01077 17.1381 1.49997 18.2946 2.36239 19.1495C3.22482 20.0044 4.39148 20.4893 5.61108 20.4998C6.83069 20.5103 8.00567 20.0456 8.88296 19.2057L10.4738 17.6288" stroke="#01579B" stroke-width="1.5" stroke-linecap="round" stroke-linejoin="round"/>
</svg>
