<svg xmlns="http://www.w3.org/2000/svg" width="16" height="16" viewBox="0 0 16 16"><g><g><path fill="#060f42" d="M16 16h-3.43v-5.776c0-1.45-.495-2.441-1.737-2.441-.948 0-1.511.667-1.76 1.312-.09.231-.113.552-.113.875V16H5.53s.045-9.783 0-10.796h3.43v1.53c-.007.012-.017.024-.023.035h.023v-.035C9.416 6 10.229 4.95 12.051 4.95 14.308 4.95 16 6.493 16 9.81zM3.859 1.865c0 1.037-.744 1.866-1.94 1.866h-.023C.746 3.73 0 2.9 0 1.865 0 .806.768 0 1.941 0c1.174 0 1.895.806 1.918 1.865zM.204 5.204h3.429V16H.203z"/></g></g></svg>