<svg width="161" height="41" viewBox="0 0 161 41" fill="none" xmlns="http://www.w3.org/2000/svg">
<path fill-rule="evenodd" clip-rule="evenodd" d="M35.4551 39.135H53.1795L61.07 11.1694H43.3455L35.4551 39.135ZM41.5341 27.6064H53.3383L54.9907 22.698H43.1866L41.5341 27.6064Z" fill="#D9D9D9"/>
<path fill-rule="evenodd" clip-rule="evenodd" d="M13.1548 17.3817L6.38086 19.538L27.8706 40.7682L33.1735 39.1272L42.8822 5.0007L41.5798 0L26.6357 3.7599L27.4729 8.529L36.4082 6.2772L29.0785 34.1961L13.1548 17.3817Z" fill="#D9D9D9"/>
<path fill-rule="evenodd" clip-rule="evenodd" d="M25.6318 22.5665L27.4139 16.8941L17.3462 6.07129L1 10.1682L2.2169 15.3575L15.2155 11.7194L25.6318 22.5665Z" fill="#D9D9D9" stroke="#D9D9D9" stroke-width="0.0762" stroke-miterlimit="22.9256"/>
<path fill-rule="evenodd" clip-rule="evenodd" d="M55.6758 39.1351L152.646 39.1252L160.372 11.1597H63.5584L55.6758 39.1351ZM135.442 36.921V13.3701H149.935C157.693 15.3187 155.176 28.171 149.935 28.5577L143.267 28.5886L140.798 25.4955V36.9249L135.442 36.921ZM147.919 18.3382C149.842 18.2763 151.205 23.1481 147.919 23.5966L140.798 23.5194V18.3691L147.919 18.3382ZM109.971 36.8938H104.142V13.3701H114.173L118.985 27.6391L123.797 13.3701H133.843V36.8938H127.999L127.935 19.4677L121.968 36.9249H118.985H116.002L110.035 19.4677L109.971 36.8938ZM102.908 26.1553C102.908 28.9728 102.038 32.347 100.037 34.177C98.0367 36.0072 95.4233 36.9249 92.1973 36.9249C88.9471 36.9249 86.3157 36.0072 84.2971 34.177C82.2786 32.347 81.4753 29.0313 81.4753 26.2138V24.1929C81.4753 21.3859 82.274 17.9547 84.2852 16.1232C86.2991 14.2893 88.9232 13.3701 92.1613 13.3701C95.3753 13.3701 97.9933 14.2893 100.013 16.1232C102.03 17.9547 102.908 21.3274 102.908 24.1342V26.1553ZM97.1055 24.2619C97.1055 22.6251 96.6758 21.2857 95.8138 20.2368C94.9515 19.1874 93.7352 18.6643 92.1613 18.6643C90.5571 18.6643 89.3238 19.1835 88.4725 20.2261C87.6236 21.2658 87.1988 22.6143 87.1988 24.2619V25.939C87.1988 27.5973 87.6296 28.9512 88.4905 29.9962C89.3538 31.0443 90.5932 31.5688 92.1973 31.5688C93.7592 31.5688 94.9686 31.0443 95.826 29.9962C96.6808 28.9512 97.1055 27.5973 97.1055 25.939V24.2619ZM81.5255 36.9249V31.2303H70.3709C68.1984 31.2303 65.1108 21.8548 70.3709 18.6601L78.8342 18.5976L81.72 13.3725H69.4305C61.5633 13.1169 55.7145 33.8466 69.4305 36.9013L81.5255 36.9249Z" fill="#D9D9D9"/>
</svg>
