<svg xmlns="http://www.w3.org/2000/svg" width="18" height="25" viewBox="0 0 18 25"><defs><clipPath id="5st2a"><path fill="#fff" d="M0 3.8a3 3 0 0 1 3-3h12a3 3 0 0 1 3 3v18a3 3 0 0 1-3 3H3a3 3 0 0 1-3-3z"/></clipPath></defs><g><g><g/><g><g/><g><g><g><path fill="none" stroke="#060f42" stroke-miterlimit="20" stroke-width="3" d="M0 3.8a3 3 0 0 1 3-3h12a3 3 0 0 1 3 3v18a3 3 0 0 1-3 3H3a3 3 0 0 1-3-3z" clip-path="url(&quot;#5st2a&quot;)"/></g><g><path fill="#060f42" d="M10 21.8a1 1 0 1 0-2 0 1 1 0 0 0 2 0z"/></g><g><path fill="#060f42" d="M1 18.8h16v1.5H1z"/></g><g transform="rotate(135 4 5)"/><g transform="rotate(135 6 7)"/></g></g></g></g></g></svg>