<svg width="24" height="24" viewBox="0 0 24 24" fill="none" xmlns="http://www.w3.org/2000/svg">
<path fill-rule="evenodd" clip-rule="evenodd" d="M16.5 6H7.5C6.67157 6 6 6.67157 6 7.5V16.5C6 17.3284 6.67157 18 7.5 18H16.5C17.3284 18 18 17.3284 18 16.5V7.5C18 6.67157 17.3284 6 16.5 6ZM7.5 4.5C5.84315 4.5 4.5 5.84315 4.5 7.5V16.5C4.5 18.1569 5.84315 19.5 7.5 19.5H16.5C18.1569 19.5 19.5 18.1569 19.5 16.5V7.5C19.5 5.84315 18.1569 4.5 16.5 4.5H7.5Z" fill="#333333"/>
<path fill-rule="evenodd" clip-rule="evenodd" d="M10.5 10.5V13.5H13.5V10.5H10.5ZM10 9C9.44772 9 9 9.44772 9 10V14C9 14.5523 9.44772 15 10 15H14C14.5523 15 15 14.5523 15 14V10C15 9.44772 14.5523 9 14 9H10Z" fill="#333333"/>
<path fill-rule="evenodd" clip-rule="evenodd" d="M19 9.25391C19 8.83969 19.3358 8.50391 19.75 8.50391H21.25C21.6642 8.50391 22 8.83969 22 9.25391C22 9.66812 21.6642 10.0039 21.25 10.0039H19.75C19.3358 10.0039 19 9.66812 19 9.25391Z" fill="#333333"/>
<path fill-rule="evenodd" clip-rule="evenodd" d="M19 14.2539C19 13.8397 19.3358 13.5039 19.75 13.5039H21.25C21.6642 13.5039 22 13.8397 22 14.2539C22 14.6681 21.6642 15.0039 21.25 15.0039H19.75C19.3358 15.0039 19 14.6681 19 14.2539Z" fill="#333333"/>
<path fill-rule="evenodd" clip-rule="evenodd" d="M2 9.40088C2 8.98667 2.33579 8.65088 2.75 8.65088H4.25C4.66421 8.65088 5 8.98667 5 9.40088C5 9.81509 4.66421 10.1509 4.25 10.1509H2.75C2.33579 10.1509 2 9.81509 2 9.40088Z" fill="#333333"/>
<path fill-rule="evenodd" clip-rule="evenodd" d="M2 14.4009C2 13.9867 2.33579 13.6509 2.75 13.6509H4.25C4.66421 13.6509 5 13.9867 5 14.4009C5 14.8151 4.66421 15.1509 4.25 15.1509H2.75C2.33579 15.1509 2 14.8151 2 14.4009Z" fill="#333333"/>
<path fill-rule="evenodd" clip-rule="evenodd" d="M14.75 1.99609C15.1642 1.99609 15.5 2.33188 15.5 2.74609L15.5 4.24609C15.5 4.66031 15.1642 4.99609 14.75 4.99609C14.3358 4.99609 14 4.66031 14 4.24609L14 2.74609C14 2.33188 14.3358 1.99609 14.75 1.99609Z" fill="#333333"/>
<path fill-rule="evenodd" clip-rule="evenodd" d="M9.75 1.99609C10.1642 1.99609 10.5 2.33188 10.5 2.74609L10.5 4.24609C10.5 4.66031 10.1642 4.99609 9.75 4.99609C9.33579 4.99609 9 4.66031 9 4.24609L9 2.74609C9 2.33188 9.33579 1.99609 9.75 1.99609Z" fill="#333333"/>
<path fill-rule="evenodd" clip-rule="evenodd" d="M14.75 19C15.1642 19 15.5 19.3358 15.5 19.75L15.5 21.25C15.5 21.6642 15.1642 22 14.75 22C14.3358 22 14 21.6642 14 21.25L14 19.75C14 19.3358 14.3358 19 14.75 19Z" fill="#333333"/>
<path fill-rule="evenodd" clip-rule="evenodd" d="M9.75 19.0039C10.1642 19.0039 10.5 19.3397 10.5 19.7539L10.5 21.2539C10.5 21.6681 10.1642 22.0039 9.75 22.0039C9.33579 22.0039 9 21.6681 9 21.2539L9 19.7539C9 19.3397 9.33579 19.0039 9.75 19.0039Z" fill="#333333"/>
</svg>
