<svg xmlns="http://www.w3.org/2000/svg" width="24" height="18" viewBox="0 0 24 18"><defs><clipPath id="1lxma"><path fill="#fff" d="M23.714 11.91s-2.422-7.047-2.656-7.367C20.668 2.381 18.636.7 16.214.7H7.619C5.197.7 3.166 2.381 2.775 4.543c-.156.32-2.5 7.206-2.5 7.206-.781 2.402.156 4.964 2.11 5.605 1.953.72 4.219-.72 5.078-3.123l1.094-2.363h6.797l1.172 2.523c.782 2.402 3.047 3.843 5.079 3.123 2.031-.72 2.89-3.203 2.11-5.605z"/></clipPath></defs><g><g><g/><g><g/><g><g/><g><path fill="none" stroke="#060f42" stroke-miterlimit="20" stroke-width="3" d="M23.714 11.91s-2.422-7.047-2.656-7.367C20.668 2.381 18.636.7 16.214.7H7.619C5.197.7 3.166 2.381 2.775 4.543c-.156.32-2.5 7.206-2.5 7.206-.781 2.402.156 4.964 2.11 5.605 1.953.72 4.219-.72 5.078-3.123l1.094-2.363v0h6.797v0l1.172 2.523c.782 2.402 3.047 3.843 5.079 3.123 2.031-.72 2.89-3.203 2.11-5.605z" clip-path="url(&quot;#1lxma&quot;)"/></g><g><g><path fill="#060f42" d="M13 6.2a1 1 0 0 1 2 0 1 1 0 0 1-2 0z"/></g><g><path fill="#060f42" d="M17 6.2a1 1 0 0 1 2 0 1 1 0 0 1-2 0z"/></g><g><path fill="#060f42" d="M15 4.2a1 1 0 0 1 2 0 1 1 0 0 1-2 0z"/></g><g><path fill="#060f42" d="M15 8.2a1 1 0 0 1 2 0 1 1 0 0 1-2 0z"/></g></g><g><g transform="rotate(90 8 6)"/><g transform="rotate(180 8 6)"/></g></g></g></g></g></svg>