<svg width="24" height="26" viewBox="0 0 24 26" fill="none" xmlns="http://www.w3.org/2000/svg">
<path d="M21 1.6377C22.2923 2.76074 23 4.17611 23 5.6377C23 7.09928 22.2923 8.51465 21 9.6377" stroke="#060F42" stroke-width="1.5" stroke-linecap="round" stroke-linejoin="round"/>
<path d="M12 9.6377C10.7077 8.51465 10 7.09928 10 5.6377C10 4.17611 10.7077 2.76074 12 1.6377" stroke="#060F42" stroke-width="1.5" stroke-linecap="round" stroke-linejoin="round"/>
<path d="M19 3.6377C19.6505 4.22198 20 4.92096 20 5.6377C20 6.35443 19.6505 7.05341 19 7.6377" stroke="#060F42" stroke-width="1.5" stroke-linecap="round" stroke-linejoin="round"/>
<path d="M14 7.6377C13.3495 7.05341 13 6.35443 13 5.6377C13 4.92096 13.3495 4.22198 14 3.6377" stroke="#060F42" stroke-width="1.5" stroke-linecap="round" stroke-linejoin="round"/>
<rect x="0.75" y="13.3877" width="22.5" height="8.5" rx="3.25" stroke="#060F42" stroke-width="1.5"/>
<line x1="16.5" y1="12.8877" x2="16.5" y2="6.3877" stroke="#060F42" stroke-width="1.5" stroke-linecap="round"/>
<rect x="4" y="16.6377" width="2" height="2" rx="1" fill="#060F42"/>
<rect x="4" y="21.7627" width="2" height="3" rx="1" fill="#060F42"/>
<rect x="18" y="21.7598" width="2" height="3" rx="1" fill="#060F42"/>
<rect x="7" y="16.6377" width="2" height="2" rx="1" fill="#060F42"/>
</svg>
