<svg width="24" height="25" viewBox="0 0 24 25" fill="none" xmlns="http://www.w3.org/2000/svg">
<g clip-path="url(#clip0_47:31277)">
<path d="M12.9992 1.39941H20.9992C22.1992 1.39941 23.2992 2.39941 23.2992 3.69941V21.6994C23.2992 22.8994 22.2992 23.9994 20.9992 23.9994H12.9992C11.7992 23.9994 10.6992 22.9994 10.6992 21.6994V3.59941C10.7992 2.39941 11.7992 1.39941 12.9992 1.39941Z" stroke="#060F42" stroke-width="1.5"/>
<path d="M20.6992 6.09961H13.6992V7.59961H20.6992V6.09961Z" fill="#060F42"/>
<path d="M20.6992 9.09961H13.6992V10.5996H20.6992V9.09961Z" fill="#060F42"/>
<path d="M17 19.5996C17.5523 19.5996 18 19.1519 18 18.5996C18 18.0473 17.5523 17.5996 17 17.5996C16.4477 17.5996 16 18.0473 16 18.5996C16 19.1519 16.4477 19.5996 17 19.5996Z" fill="#060F42"/>
<path d="M10.499 7.89941H2.99922C1.79922 7.89941 0.699219 8.89941 0.699219 10.1994V17.0994C0.699219 18.2994 1.69922 19.3994 2.99922 19.3994H10.499V7.89941Z" stroke="#060F42" stroke-width="1.5"/>
<path d="M10.6996 21.5996V19.5996H10.1184H8.37461H7.59961V20.3996V21.3996V22.1996H8.37461H10.1184H10.6996C10.6996 21.8996 10.6996 21.7996 10.6996 21.5996Z" stroke="#060F42" stroke-width="1.5"/>
<path d="M10.8 21.5996H5.8C5.3 21.5996 5 21.8996 5 22.3996C5 22.8996 5.3 23.1996 5.8 23.1996H11.4C11 22.6996 10.8 22.1996 10.8 21.5996Z" fill="#060F42"/>
</g>
<defs>
<clipPath id="clip0_47:31277">
<rect width="24" height="24" fill="white" transform="translate(0 0.599609)"/>
</clipPath>
</defs>
</svg>
