<svg xmlns="http://www.w3.org/2000/svg" width="24" height="22" viewBox="0 0 24 22"><defs><clipPath id="4o4ga"><path fill="#fff" d="M0 3.55a3 3 0 0 1 3-3h18a3 3 0 0 1 3 3v11a3 3 0 0 1-3 3H3a3 3 0 0 1-3-3z"/></clipPath><clipPath id="4o4gb"><path fill="#fff" d="M7.5 21.5v-6h9v6zM9 19.55h6v-2H9z"/></clipPath></defs><g><g><g/><g><g/><g><g><g><path fill="none" stroke="#060f42" stroke-miterlimit="20" stroke-width="3" d="M0 3.55a3 3 0 0 1 3-3h18a3 3 0 0 1 3 3v11a3 3 0 0 1-3 3H3a3 3 0 0 1-3-3z" clip-path="url(&quot;#4o4ga&quot;)"/></g><g><path fill="#060f42" d="M0 12.55h24v1.5H0z"/></g><g transform="rotate(135 4 5)"/><g transform="rotate(135 6.5 6.5)"/><g><path fill="#060f42" d="M5 20.3a.75.75 0 0 1 .75-.75h12.5a.75.75 0 0 1 0 1.5H5.75A.75.75 0 0 1 5 20.3z"/></g><g><path fill="none" stroke="#060f42" stroke-miterlimit="20" stroke-width="3" d="M9 17.55v0h6v2H9v0z" clip-path="url(&quot;#4o4gb&quot;)"/></g></g></g></g></g></g></svg>