<svg xmlns="http://www.w3.org/2000/svg" width="24" height="24" viewBox="0 0 24 24"><defs><clipPath id="5n1ca"><path fill="#fff" d="M0 15.64a4 4 0 0 1 4-4h16a4 4 0 0 1 4 4v2a4 4 0 0 1-4 4H4a4 4 0 0 1-4-4z"/></clipPath></defs><g><g><g/><g><g transform="rotate(90 22 4.5)"/><g transform="rotate(90 11 4.5)"/><g transform="rotate(90 19.5 4.5)"/><g transform="rotate(90 13.5 4.5)"/><g><path fill="none" stroke="#060f42" stroke-miterlimit="20" stroke-width="3" d="M0 15.64a4 4 0 0 1 4-4h16a4 4 0 0 1 4 4v2a4 4 0 0 1-4 4H4a4 4 0 0 1-4-4z" clip-path="url(&quot;#5n1ca&quot;)"/></g><g transform="rotate(90 16.5 8.5)"/><g><path fill="#060f42" d="M4 16.64a1 1 0 0 1 2 0 1 1 0 0 1-2 0z"/></g><g><path fill="#060f42" d="M4 21.76a1 1 0 0 1 2 0v1a1 1 0 0 1-2 0z"/></g><g><path fill="#060f42" d="M18 21.76a1 1 0 0 1 2 0v1a1 1 0 0 1-2 0z"/></g><g><path fill="#060f42" d="M7 16.64a1 1 0 0 1 2 0 1 1 0 0 1-2 0z"/></g></g></g></g></svg>