<svg width="24" height="24" viewBox="0 0 24 24" fill="none" xmlns="http://www.w3.org/2000/svg">
<path d="M13.3752 6.96552L13.3753 6.96539C13.7141 6.62977 14.1167 6.36315 14.5604 6.18111C15.0041 5.99907 15.48 5.90527 15.9607 5.90527C16.4414 5.90527 16.9173 5.99907 17.361 6.18111C17.8047 6.36315 18.2073 6.62977 18.5461 6.96539L19.0734 6.43309L18.5464 6.96564C18.8853 7.30108 19.1538 7.69896 19.3368 8.13634C19.5198 8.57371 19.6139 9.04224 19.6139 9.51522C19.6139 9.98821 19.5198 10.4567 19.3368 10.8941C19.1538 11.3315 18.8853 11.7294 18.5464 12.0648L18.5462 12.0649L17.6979 12.9049L11.9991 18.5477L6.30035 12.9049L5.45202 12.0649C4.76779 11.3874 4.38477 10.4701 4.38477 9.51522C4.38477 8.56032 4.76779 7.64302 5.45202 6.96552C6.13649 6.28777 7.0664 5.9057 8.03755 5.9057C9.00871 5.9057 9.93861 6.28777 10.6231 6.96552L11.4714 7.80552C11.7637 8.09493 12.2346 8.09493 12.5268 7.80552L13.3752 6.96552Z" stroke="#060F42" stroke-width="1.5" stroke-linecap="round" stroke-linejoin="round"/>
</svg>
