<svg xmlns="http://www.w3.org/2000/svg" width="20" height="20" viewBox="0 0 20 20"><defs><clipPath id="jd7ma"><path fill="#fff" d="M2.5 5.5a3 3 0 0 1 3-3h9a3 3 0 0 1 3 3v9a3 3 0 0 1-3 3h-9a3 3 0 0 1-3-3z"/></clipPath><clipPath id="jd7mb"><path fill="#fff" d="M7 8a1 1 0 0 1 1-1h4a1 1 0 0 1 1 1v4a1 1 0 0 1-1 1H8a1 1 0 0 1-1-1z"/></clipPath></defs><g><g><g><g><path fill="none" stroke="#060f42" stroke-miterlimit="20" stroke-width="3" d="M2.5 5.5a3 3 0 0 1 3-3h9a3 3 0 0 1 3 3v9a3 3 0 0 1-3 3h-9a3 3 0 0 1-3-3z" clip-path="url(&quot;#jd7ma&quot;)"/></g><g><path fill="none" stroke="#060f42" stroke-miterlimit="20" stroke-width="3" d="M7 8a1 1 0 0 1 1-1h4a1 1 0 0 1 1 1v4a1 1 0 0 1-1 1H8a1 1 0 0 1-1-1z" clip-path="url(&quot;#jd7mb&quot;)"/></g><g/><g/><g/><g/><g transform="rotate(90 13 1.5)"/><g transform="rotate(90 8 1.5)"/><g transform="rotate(90 13 18.5)"/><g transform="rotate(90 8 18.5)"/></g></g></g></svg>