<svg width="24" height="25" viewBox="0 0 24 25" fill="none" xmlns="http://www.w3.org/2000/svg">
<path d="M20.3198 7.67673L20.3506 7.84682L20.4254 7.94901C20.4292 7.95718 20.4342 7.96814 20.4405 7.98231C20.4654 8.03869 20.4994 8.12062 20.5422 8.22857C20.6275 8.44322 20.7388 8.7379 20.8681 9.08876C21.1262 9.78923 21.4495 10.696 21.7666 11.5958C22.0834 12.4949 22.3931 13.3843 22.6236 14.0492C22.7388 14.3816 22.8342 14.6577 22.9008 14.8507L22.9779 15.0744L22.9981 15.1332L23.0029 15.1471C23.7033 17.3082 22.8695 19.2696 21.354 19.8072C19.8466 20.342 17.9359 19.3004 17.2395 17.1595L17.2256 17.1165L17.2065 17.0755L16.0346 14.5526L15.8329 14.1186H15.3544H8.55704H8.07778L7.87644 14.5535L6.78261 16.9163L6.76843 16.9469L6.75706 16.9787C5.97788 19.1564 4.05718 20.1715 2.64435 19.6503L2.63149 19.6455L2.61846 19.6413C1.20146 19.1766 0.284527 17.1524 0.986929 14.986L0.99194 14.9713L1.01155 14.9137L1.08615 14.6948L1.35367 13.9108C1.57576 13.2605 1.87346 12.3903 2.17599 11.5102C2.47862 10.6299 2.78572 9.74073 3.02673 9.05217C3.14732 8.70764 3.25075 8.41511 3.32855 8.19963C3.39184 8.02433 3.4284 7.92814 3.44266 7.89063C3.44813 7.87623 3.45031 7.87048 3.44946 7.87223L3.49499 7.77891L3.51346 7.67673C3.83522 5.89617 5.535 4.4502 7.61948 4.4502H16.2138C18.2983 4.4502 19.9981 5.89618 20.3198 7.67673Z" stroke="#060F42" stroke-width="1.5" stroke-miterlimit="10"/>
<rect x="13" y="8.2002" width="2" height="2" rx="1" fill="#060F42"/>
<rect x="17" y="8.2002" width="2" height="2" rx="1" fill="#060F42"/>
<rect x="15" y="6.2002" width="2" height="2" rx="1" fill="#060F42"/>
<rect x="15" y="10.2002" width="2" height="2" rx="1" fill="#060F42"/>
<line x1="8" y1="7.2002" x2="8" y2="10.7002" stroke="#060F42" stroke-width="1.5" stroke-linecap="round"/>
<line x1="9.75" y1="8.9502" x2="6.25" y2="8.9502" stroke="#060F42" stroke-width="1.5" stroke-linecap="round"/>
</svg>
