<svg width="24" height="25" viewBox="0 0 24 25" fill="none" xmlns="http://www.w3.org/2000/svg">
<path d="M6.99922 1.2002H16.9992C18.1992 1.2002 19.2992 2.2002 19.2992 3.5002V19.5002C19.2992 20.7002 18.2992 21.8002 16.9992 21.8002H6.99922C5.79922 21.8002 4.69922 20.8002 4.69922 19.5002V3.4002C4.79922 2.2002 5.79922 1.2002 6.99922 1.2002Z" stroke="#060F42" stroke-width="1.5"/>
<path d="M11.9992 11.2002C13.7992 11.2002 15.2992 12.7002 15.2992 14.5002C15.2992 16.3002 13.7992 17.8002 11.9992 17.8002C10.1992 17.8002 8.69922 16.3002 8.69922 14.5002C8.79922 12.6002 10.1992 11.2002 11.9992 11.2002Z" stroke="#060F42" stroke-width="1.5"/>
<path d="M11.9992 4.2002C13.1992 4.2002 14.2992 5.2002 14.2992 6.5002C14.2992 7.7002 13.2992 8.80019 11.9992 8.80019C10.7992 8.80019 9.69922 7.8002 9.69922 6.5002C9.79922 5.2002 10.7992 4.2002 11.9992 4.2002Z" stroke="#060F42" stroke-width="1.5"/>
<path d="M17.4008 21.8037H13.8008V22.4001C13.8008 23.1001 14.4008 23.7001 15.1008 23.7001H16.1008C16.8008 23.7001 17.4008 23.1001 17.4008 22.4001V21.8037ZM17.4008 21.8037C17.2008 21.8037 17.5008 21.8037 17.4008 21.8037Z" stroke="#060F42" stroke-width="1.5"/>
<path d="M10.6 21.8008H7V22.3972C7 23.0972 7.6 23.6972 8.3 23.6972H9.3C10 23.6972 10.6 23.0972 10.6 22.3972V21.8008ZM10.6 21.8008C10.4 21.8008 10.7 21.8008 10.6 21.8008Z" stroke="#060F42" stroke-width="1.5"/>
</svg>
