<svg width="40" height="40" viewBox="0 0 40 40" fill="none" xmlns="http://www.w3.org/2000/svg">
<path fill-rule="evenodd" clip-rule="evenodd" d="M31.0521 5.25328C31.4822 5.21845 31.8861 5.46342 32.054 5.8609L39.6712 23.8937C39.7232 24.0168 39.75 24.1491 39.75 24.2828C39.75 26.9639 38.7186 29.0455 37.1199 30.4451C35.5406 31.8275 33.4658 32.4959 31.4258 32.4959C29.3857 32.4959 27.3109 31.8275 25.7317 30.4451C24.133 29.0455 23.1016 26.9639 23.1016 24.2828C23.1016 24.1585 23.1247 24.0353 23.1699 23.9195L29.6205 7.37577L10.3266 8.93838L17.4056 25.697C17.4576 25.8201 17.4844 25.9524 17.4844 26.0861C17.4844 28.91 16.4222 31.1024 14.7706 32.5794C13.1371 34.0404 10.9862 34.75 8.86719 34.75C6.74816 34.75 4.59731 34.0404 2.96374 32.5794C1.31222 31.1024 0.25 28.91 0.25 26.0861C0.25 25.9524 0.276799 25.8201 0.328812 25.697L7.946 7.66418C8.09103 7.32084 8.41497 7.08665 8.78646 7.05656L31.0521 5.25328ZM8.86719 10.6232L15.4823 26.2836C15.4351 28.4663 14.6073 30.0423 13.4374 31.0886C12.2145 32.1823 10.5568 32.75 8.86719 32.75C7.17762 32.75 5.51987 32.1823 4.297 31.0886C3.12708 30.0423 2.29923 28.4663 2.25212 26.2836L8.86719 10.6232ZM31.1699 8.90769L25.1036 24.4658C25.1481 26.4981 25.9344 27.9644 27.0491 28.9402C28.2164 29.9621 29.8037 30.4959 31.4258 30.4959C33.0479 30.4959 34.6351 29.9621 35.8025 28.9402C36.9146 27.9667 37.6998 26.5049 37.7477 24.4799L31.1699 8.90769Z" fill="#060F42"/>
<path fill-rule="evenodd" clip-rule="evenodd" d="M20 8.5C19.8619 8.5 19.75 8.61193 19.75 8.75C19.75 8.88807 19.8619 9 20 9C20.1381 9 20.25 8.88807 20.25 8.75C20.25 8.61193 20.1381 8.5 20 8.5ZM17.75 8.75C17.75 7.50736 18.7574 6.5 20 6.5C21.2426 6.5 22.25 7.50736 22.25 8.75C22.25 9.99264 21.2426 11 20 11C18.7574 11 17.75 9.99264 17.75 8.75Z" fill="#060F42"/>
<path fill-rule="evenodd" clip-rule="evenodd" d="M1.6665 25.6665C1.6665 25.1142 2.11422 24.6665 2.6665 24.6665H15.6665C16.2188 24.6665 16.6665 25.1142 16.6665 25.6665C16.6665 26.2188 16.2188 26.6665 15.6665 26.6665H2.6665C2.11422 26.6665 1.6665 26.2188 1.6665 25.6665Z" fill="#060F42"/>
<path fill-rule="evenodd" clip-rule="evenodd" d="M23.3335 24C23.3335 23.4477 23.7812 23 24.3335 23H37.3335C37.8858 23 38.3335 23.4477 38.3335 24C38.3335 24.5523 37.8858 25 37.3335 25H24.3335C23.7812 25 23.3335 24.5523 23.3335 24Z" fill="#060F42"/>
</svg>
