<svg width="24" height="24" viewBox="0 0 24 24" fill="none" xmlns="http://www.w3.org/2000/svg">
<path fill-rule="evenodd" clip-rule="evenodd" d="M11.1665 16.6667C14.2041 16.6667 16.6665 14.2043 16.6665 11.1667C16.6665 8.12912 14.2041 5.66669 11.1665 5.66669C8.12894 5.66669 5.6665 8.12912 5.6665 11.1667C5.6665 14.2043 8.12894 16.6667 11.1665 16.6667ZM18.6665 11.1667C18.6665 15.3088 15.3086 18.6667 11.1665 18.6667C7.02437 18.6667 3.6665 15.3088 3.6665 11.1667C3.6665 7.02455 7.02437 3.66669 11.1665 3.66669C15.3086 3.66669 18.6665 7.02455 18.6665 11.1667Z" fill="#F4F8FB"/>
<path fill-rule="evenodd" clip-rule="evenodd" d="M15.8764 15.8762C16.2669 15.4857 16.9001 15.4857 17.2906 15.8762L20.6239 19.2095C21.0145 19.6001 21.0145 20.2332 20.6239 20.6238C20.2334 21.0143 19.6002 21.0143 19.2097 20.6238L15.8764 17.2904C15.4859 16.8999 15.4859 16.2667 15.8764 15.8762Z" fill="#F4F8FB"/>
</svg>
