<svg width="21" height="22" viewBox="0 0 21 22" fill="none" xmlns="http://www.w3.org/2000/svg">
<path d="M7.01548 12.3043L13.9852 16.6522M13.9852 5.34783L7.01548 9.69565M20.0837 4.04348C20.0837 5.72434 18.7185 7.08696 17.0344 7.08696C15.3504 7.08696 13.9852 5.72434 13.9852 4.04348C13.9852 2.36261 15.3504 1 17.0344 1C18.7185 1 20.0837 2.36261 20.0837 4.04348ZM7.01548 11C7.01548 12.6809 5.65028 14.0435 3.96623 14.0435C2.28218 14.0435 0.916992 12.6809 0.916992 11C0.916992 9.31913 2.28218 7.95652 3.96623 7.95652C5.65028 7.95652 7.01548 9.31913 7.01548 11ZM20.0837 17.9565C20.0837 19.6374 18.7185 21 17.0344 21C15.3504 21 13.9852 19.6374 13.9852 17.9565C13.9852 16.2757 15.3504 14.913 17.0344 14.913C18.7185 14.913 20.0837 16.2757 20.0837 17.9565Z" stroke="#01579B" stroke-width="1.5" stroke-linecap="round" stroke-linejoin="round"/>
</svg>
