<svg width="32" height="32" viewBox="0 0 32 32" fill="none" xmlns="http://www.w3.org/2000/svg">
<g clip-path="url(#clip0_2392_100902)">
<path fill-rule="evenodd" clip-rule="evenodd" d="M6.15475 6.1182C7.62658 4.7445 9.5871 3.96094 11.6443 3.96094C12.9004 3.96094 14.1008 4.21141 15.225 4.80538C15.2883 4.83884 15.342 4.84983 15.3813 4.84983H15.9998C17.5087 4.84983 19.0297 5.13154 20.3757 5.70687C21.8086 6.28142 23.0452 7.14006 24.0857 8.18061C25.1263 9.22124 25.9824 10.4553 26.5559 11.7933C27.1312 13.1358 27.4165 14.5701 27.4165 16.0887V16.1069C27.4165 16.4208 27.4165 16.7369 27.3762 17.0815C27.3635 17.1902 27.3811 17.2631 27.4019 17.3046L27.4833 17.4675C27.5202 17.5413 27.5522 17.6183 27.5787 17.6982C27.8364 18.4768 28.1276 19.4431 28.1276 20.3554C28.1276 21.4258 27.9325 22.4201 27.5296 23.3267C27.1397 24.2041 26.5558 25.0823 25.8635 25.7746C25.1712 26.4669 24.293 27.0508 23.4155 27.4407L23.4026 27.4465L23.3895 27.4517C22.4189 27.84 21.4357 28.0387 20.4443 28.0387C19.3246 28.0387 18.1947 27.8109 17.1886 27.3447C17.1062 27.3065 16.9905 27.2858 16.8472 27.3005C16.5815 27.3276 16.3216 27.3276 16.1034 27.3276H16.0887C14.5799 27.3276 13.0588 27.0459 11.7129 26.4706C10.28 25.896 9.04339 25.0374 8.00283 23.9968C6.9622 22.9562 6.1061 21.7221 5.53269 20.3842C4.95734 19.0417 4.67205 17.6073 4.67205 16.0887L4.67205 16.0724C4.67204 15.758 4.67202 15.3995 4.71098 15.0347C4.7225 14.9268 4.70483 14.8304 4.66871 14.7545C4.19524 13.7608 3.96094 12.6911 3.96094 11.5554C3.96094 9.48846 4.75133 7.61926 6.1182 6.15475L6.13585 6.13585L6.15475 6.1182ZM7.19712 7.19722C6.08614 8.39627 5.46094 9.89774 5.46094 11.5554C5.46094 12.4784 5.64986 13.3265 6.02286 14.1094C6.18857 14.4572 6.2408 14.8353 6.20249 15.194C6.17275 15.4725 6.17205 15.7574 6.17205 16.0887C6.17205 17.4146 6.42009 18.6469 6.91141 19.7933C7.40467 20.9442 8.14856 22.0212 9.06349 22.9362C9.97644 23.8491 11.0481 24.5891 12.2784 25.0812L12.2869 25.0846L12.2953 25.0882C13.4361 25.5772 14.7563 25.8276 16.0887 25.8276C16.3224 25.8276 16.5116 25.827 16.6946 25.8082C17.0507 25.7718 17.4463 25.8109 17.8193 25.9837C18.61 26.3501 19.522 26.5387 20.4443 26.5387C21.2263 26.5387 22.0166 26.3836 22.8192 26.0643C23.5375 25.7431 24.254 25.2628 24.8028 24.7139C25.355 24.1618 25.8378 23.44 26.1589 22.7174C26.4671 22.024 26.6276 21.2405 26.6276 20.3554C26.6276 19.7125 26.4149 18.9556 26.1547 18.1696C26.1514 18.1596 26.1471 18.1492 26.1417 18.1383L26.0602 17.9755C25.8821 17.6192 25.8474 17.2403 25.8864 16.9072C25.9157 16.6567 25.9165 16.4215 25.9165 16.0887C25.9165 14.7628 25.6685 13.5306 25.1771 12.3842C24.6839 11.2332 23.94 10.1562 23.0251 9.24127C22.1121 8.32831 21.0404 7.58829 19.8102 7.09618L19.8017 7.09279L19.7933 7.08919C18.6525 6.60027 17.3323 6.34983 15.9998 6.34983H15.3813C15.0664 6.34983 14.774 6.2636 14.5242 6.13163C13.6474 5.66836 12.6943 5.46094 11.6443 5.46094C9.97693 5.46094 8.38986 6.09289 7.19712 7.19722Z" fill="white"/>
<path d="M13.2445 15.7333C12.8 15.4666 12.5334 15.1111 12.2667 14.6666C12 14.2222 11.9111 13.7777 11.9111 13.2444C11.9111 12.6222 12.0889 12 12.5334 11.5555C12.9778 11.1111 13.5111 10.7555 14.1334 10.4889C14.7556 10.2222 15.4667 10.1333 16.1778 10.1333C16.6222 10.1333 17.0667 10.1333 17.5111 10.2222C17.8667 10.3111 18.1334 10.3111 18.4889 10.4889C18.7556 10.5777 19.0222 10.7555 19.2 10.9333C19.3778 11.1111 19.4667 11.3777 19.4667 11.5555C19.4667 11.6444 19.4667 11.8222 19.3778 11.9111C19.3778 12 19.2889 12.0889 19.2 12.1777C19.1111 12.2666 19.0222 12.3555 18.9334 12.3555C18.8445 12.3555 18.7556 12.4444 18.5778 12.4444C18.4 12.4444 18.3111 12.4444 18.1334 12.3555C17.7778 12.1777 17.4222 12.0889 17.0667 12C16.7111 11.9111 16.3556 11.9111 16 11.9111C15.5556 11.9111 15.1111 12 14.6667 12.2666C14.4889 12.3555 14.4 12.5333 14.3111 12.7111C14.2222 12.8889 14.1334 13.0666 14.2222 13.2444C14.2222 13.5111 14.3111 13.7777 14.4889 13.9555C14.6667 14.1333 14.9334 14.3111 15.2 14.4889C15.4667 14.6666 16 14.8444 16.5334 15.1111C16.6222 15.1111 16.6222 15.2 16.7111 15.2C17.3334 15.4666 17.8667 15.7333 18.4 16.0889C18.8445 16.3555 19.2 16.7111 19.4667 17.1555C19.7334 17.6 19.8222 18.1333 19.8222 18.6666C19.8222 19.2889 19.6445 19.9111 19.2889 20.4444C18.9334 20.9777 18.4 21.3333 17.8667 21.5111C17.1556 21.7777 16.4445 21.8666 15.6445 21.8666C14.6667 21.8666 13.6 21.6889 12.7111 21.3333C12.4445 21.2444 12.2667 21.0666 12.0889 20.8889C12 20.4444 11.9111 20.1777 11.9111 20C11.9111 19.9111 11.9111 19.7333 12 19.6444C12.0889 19.5555 12.0889 19.4666 12.1778 19.3777C12.3556 19.1111 12.6222 19.1111 12.8889 19.1111C13.1556 19.1111 13.4222 19.2 13.6889 19.2889C13.9556 19.4666 14.2222 19.5555 14.4 19.6444C14.5778 19.7333 14.8445 19.8222 15.0222 19.8222C15.2889 19.9111 15.5556 19.9111 15.8222 19.9111C16.2667 19.9111 16.8 19.8222 17.1556 19.5555C17.3334 19.4666 17.4222 19.2889 17.5111 19.1111C17.6 18.9333 17.6 18.7555 17.6 18.5777C17.6 18.3111 17.5111 18.0444 17.3334 17.8666C17.0667 17.6 16.8 17.4222 16.5334 17.2444C16.1778 17.0666 15.6445 16.8 15.0222 16.5333C14.3111 16.3555 13.7778 16.0889 13.2445 15.7333Z" fill="white"/>
</g>
<defs>
<clipPath id="clip0_2392_100902">
<rect width="24" height="24" fill="white" transform="translate(4 4)"/>
</clipPath>
</defs>
</svg>
