<svg width="24" height="24" viewBox="0 0 24 24" fill="none" xmlns="http://www.w3.org/2000/svg">
<g clip-path="url(#clip0_271:28822)">
<path d="M22.8667 13.9339C22.8518 13.889 22.8337 13.8453 22.8125 13.8029C22.7853 13.7486 22.7582 13.6943 22.731 13.64C22.6316 13.4411 22.6055 13.2152 22.6313 12.9943C22.6665 12.6935 22.6665 12.4151 22.6665 12.0887C22.6665 10.6665 22.3998 9.33316 21.8665 8.08872C21.3332 6.84427 20.5332 5.68872 19.5554 4.71094C18.5776 3.73316 17.422 2.93316 16.0887 2.39983C14.8443 1.86649 13.422 1.59983 11.9998 1.59983C11.8164 1.59983 11.591 1.59983 11.3813 1.59983C11.2042 1.59983 11.0311 1.55122 10.8746 1.4685C9.87413 0.939888 8.79736 0.710938 7.64427 0.710938C5.7776 0.710938 3.99983 1.42205 2.66649 2.66649C1.42205 3.99983 0.710938 5.68872 0.710938 7.55538C0.710938 8.58477 0.922553 9.54363 1.34578 10.4319C1.4467 10.6438 1.48165 10.8811 1.45674 11.1144C1.42205 11.4392 1.42205 11.7639 1.42205 12.0887C1.42205 13.5109 1.68872 14.8443 2.22205 16.0887C2.75538 17.3332 3.55538 18.4887 4.53316 19.4665C5.51094 20.4443 6.66649 21.2443 7.99983 21.7776C9.24427 22.3109 10.6665 22.5776 12.0887 22.5776C12.3161 22.5776 12.5435 22.5776 12.7709 22.5544C13.0206 22.5288 13.2762 22.5587 13.504 22.6642C14.4023 23.0805 15.4233 23.2887 16.4443 23.2887C17.3332 23.2887 18.222 23.1109 19.1109 22.7554C19.9109 22.3998 20.7109 21.8665 21.3332 21.2443C21.9554 20.622 22.4887 19.822 22.8443 19.022C23.1998 18.222 23.3776 17.3332 23.3776 16.3554C23.3776 15.5778 23.1257 14.7162 22.8667 13.9339Z" stroke="white" stroke-width="1.5"/>
<path d="M9.24447 11.7338C8.80002 11.4671 8.53336 11.1116 8.26669 10.6671C8.00002 10.2227 7.91113 9.77823 7.91113 9.2449C7.91113 8.62268 8.08891 8.00046 8.53336 7.55601C8.9778 7.11157 9.51113 6.75601 10.1334 6.48934C10.7556 6.22268 11.4667 6.13379 12.1778 6.13379C12.6222 6.13379 13.0667 6.13379 13.5111 6.22268C13.8667 6.31157 14.1334 6.31157 14.4889 6.48934C14.7556 6.57823 15.0222 6.75601 15.2 6.93379C15.3778 7.11157 15.4667 7.37823 15.4667 7.55601C15.4667 7.6449 15.4667 7.82268 15.3778 7.91157C15.3778 8.00046 15.2889 8.08934 15.2 8.17823C15.1111 8.26712 15.0222 8.35601 14.9334 8.35601C14.8445 8.35601 14.7556 8.4449 14.5778 8.4449C14.4 8.4449 14.3111 8.4449 14.1334 8.35601C13.7778 8.17823 13.4222 8.08934 13.0667 8.00046C12.7111 7.91157 12.3556 7.91157 12 7.91157C11.5556 7.91157 11.1111 8.00046 10.6667 8.26712C10.4889 8.35601 10.4 8.53379 10.3111 8.71157C10.2222 8.88934 10.1334 9.06712 10.2222 9.2449C10.2222 9.51157 10.3111 9.77823 10.4889 9.95601C10.6667 10.1338 10.9334 10.3116 11.2 10.4893C11.4667 10.6671 12 10.8449 12.5334 11.1116C12.6222 11.1116 12.6222 11.2005 12.7111 11.2005C13.3334 11.4671 13.8667 11.7338 14.4 12.0893C14.8445 12.356 15.2 12.7116 15.4667 13.156C15.7334 13.6005 15.8222 14.1338 15.8222 14.6671C15.8222 15.2893 15.6445 15.9116 15.2889 16.4449C14.9334 16.9782 14.4 17.3338 13.8667 17.5116C13.1556 17.7782 12.4445 17.8671 11.6445 17.8671C10.6667 17.8671 9.60002 17.6893 8.71113 17.3338C8.44447 17.2449 8.26669 17.0671 8.08891 16.8893C8.00002 16.4449 7.91113 16.1782 7.91113 16.0005C7.91113 15.9116 7.91113 15.7338 8.00002 15.6449C8.08891 15.556 8.08891 15.4671 8.1778 15.3782C8.35558 15.1116 8.62224 15.1116 8.88891 15.1116C9.15558 15.1116 9.42224 15.2005 9.68891 15.2893C9.95558 15.4671 10.2222 15.556 10.4 15.6449C10.5778 15.7338 10.8445 15.8227 11.0222 15.8227C11.2889 15.9116 11.5556 15.9116 11.8222 15.9116C12.2667 15.9116 12.8 15.8227 13.1556 15.556C13.3334 15.4671 13.4222 15.2893 13.5111 15.1116C13.6 14.9338 13.6 14.756 13.6 14.5782C13.6 14.3116 13.5111 14.0449 13.3334 13.8671C13.0667 13.6005 12.8 13.4227 12.5334 13.2449C12.1778 13.0671 11.6445 12.8005 11.0222 12.5338C10.3111 12.356 9.7778 12.0893 9.24447 11.7338Z" fill="white"/>
</g>
<defs>
<clipPath id="clip0_271:28822">
<rect width="24" height="24" fill="white"/>
</clipPath>
</defs>
</svg>
