<?xml version="1.0" encoding="utf-8"?>
<!-- Generator: Adobe Illustrator 24.1.2, SVG Export Plug-In . SVG Version: 6.00 Build 0)  -->
<svg version="1.1" id="Слой_1" xmlns="http://www.w3.org/2000/svg" xmlns:xlink="http://www.w3.org/1999/xlink" x="0px" y="0px"
	 viewBox="0 0 12.2 11.6" style="enable-background:new 0 0 12.2 11.6;" xml:space="preserve">
<style type="text/css">
	.st0{fill:#D9D9D9;}
	.st1{fill:none;stroke:#D9D9D9;stroke-miterlimit:20;}
</style>
<g>
	<g>
		<path class="st0" d="M6.1,1.1l1.5,3.1l3.5,0.5L8.6,7.2l0.6,3.4L6.1,9L3,10.6l0.6-3.4L1.1,4.8l3.5-0.5L6.1,1.1z"/>
		<path class="st1" d="M6.1,1.1L6.1,1.1l1.5,3.1l0,0l3.5,0.5l0,0L8.6,7.2l0,0l0.6,3.4l0,0L6.1,9l0,0L3,10.6l0,0l0.6-3.4l0,0L1.1,4.8
			l0,0l3.5-0.5l0,0L6.1,1.1z"/>
	</g>
</g>
</svg>
