<svg xmlns="http://www.w3.org/2000/svg" width="13" height="12" viewBox="0 0 13 12"><g><g><path fill="#fff" d="M12.154.742a.593.593 0 0 1 .796.673l-1.967 9.4a.62.62 0 0 1-.972.373l-2.97-2.18-1.513 1.546a.503.503 0 0 1-.838-.2L3.598 6.886.671 6.023a.42.42 0 0 1-.034-.794zm-1.443 2.085c.128-.113-.021-.313-.166-.223L4.228 6.522a.287.287 0 0 0-.123.33l.861 3.783c.017.058.1.05.107-.01l.193-2.883a.285.285 0 0 1 .095-.184z"/></g><g><path fill="#9ec2e5" d="M10.543 2.603c.145-.09.294.11.166.223l-5.35 4.73a.285.285 0 0 0-.094.184l-.193 2.883c-.007.06-.09.068-.107.01L4.103 6.85a.287.287 0 0 1 .123-.33z"/></g><g><path fill="#fff" d="M4.997 10.674a.494.494 0 0 1-.307-.32L3.598 6.886.671 6.023a.42.42 0 0 1-.034-.794L12.154.74a.59.59 0 0 1 .622.123L4.962 7.242v.28L4.92 7.49l.043 1.759v1.41l.035.014v.001z"/></g><g><g><path fill="#dadde0" d="M5.491 10.59a.52.52 0 0 0 0 0z"/></g><g><path fill="#dadde0" d="M5.45 10.62z"/></g><g><path fill="#dadde0" d="M5.36 10.667a.525.525 0 0 0 .088-.047"/></g><g><path fill="#dadde0" d="M5.12 10.698z"/></g></g><g><g><path fill="#fff" d="M5.174 10.702c-.015 0-.03 0-.044-.002"/></g><g><path fill="#fff" d="M5.116 10.694c.003.002.005.002.008.002a.29.29 0 0 1-.008-.002z"/></g></g><g><g><path fill="#dadde0" d="M5.12 10.697z"/></g><g><path fill="#dadde0" d="M5.01 10.67l.049.014-.02-.004-.008-.003a.113.113 0 0 1-.021-.007z"/></g></g><g><g><path fill="#fff" d="M5.04 10.68l.017.004"/></g><g><path fill="#fff" d="M5.013 10.674A.196.196 0 0 1 5 10.67l.013.004z"/></g></g><g><path fill="#dadde0" d="M4.963 7.521V9.25L4.92 7.49z"/></g><g><path fill="#adbcc9" d="M10.71 2.826l-5.35 4.73a.285.285 0 0 0-.095.184l-.193 2.883c-.007.06-.09.068-.108.01l-.86-3.783a.287.287 0 0 1 .122-.33l6.317-3.917c.145-.09.294.11.166.223z"/></g></g></svg>