<?xml version="1.0" encoding="utf-8"?>
<!-- Generator: Adobe Illustrator 24.1.2, SVG Export Plug-In . SVG Version: 6.00 Build 0)  -->
<svg version="1.1" id="Слой_1" xmlns="http://www.w3.org/2000/svg" xmlns:xlink="http://www.w3.org/1999/xlink" x="0px" y="0px"
	 viewBox="0 0 18.8 15.9" style="enable-background:new 0 0 18.8 15.9;" xml:space="preserve">
<style type="text/css">
	.st0{fill:#060F42;}
	.st1{fill:#9EC2E5;}
	.st2{fill:#DADDE0;}
	.st3{fill:#FFFFFF;}
	.st4{fill:#D1D1D1;}
</style>
<path class="st0" d="M17.3,0.3c0.6-0.2,1.3,0.3,1.2,1L15.6,15c-0.1,0.6-0.9,0.9-1.4,0.5l-4.3-3.2l-2.2,2.2c-0.4,0.4-1.1,0.2-1.2-0.3
	l-1.6-5L0.6,8c-0.6-0.2-0.6-0.9,0-1.2L17.3,0.3z M15.2,3.4c0.2-0.2,0-0.5-0.2-0.3L5.8,8.7C5.7,8.8,5.6,9,5.6,9.2l1.3,5.5
	c0,0.1,0.1,0.1,0.2,0l0.3-4.2c0-0.1,0.1-0.2,0.1-0.3L15.2,3.4z"/>
<path class="st1" d="M15,3c0.2-0.1,0.4,0.2,0.2,0.3l-7.8,6.9c-0.1,0.1-0.1,0.2-0.1,0.3L7,14.7c0,0.1-0.1,0.1-0.2,0L5.6,9.2
	C5.6,9,5.7,8.8,5.8,8.7L15,3z"/>
<path class="st0" d="M6.9,14.8c-0.2-0.1-0.4-0.2-0.4-0.5l-1.6-5L0.6,8c-0.6-0.2-0.6-0.9,0-1.2l16.8-6.5c0.4-0.2,0.8,0,1,0.3
	c0-0.1-0.1-0.1-0.1-0.2L6.9,9.8v0.4l-0.1,0l0.1,2.6L6.9,14.8C6.9,14.8,6.9,14.8,6.9,14.8L6.9,14.8L6.9,14.8z"/>
<path class="st2" d="M7.7,14.7C7.6,14.7,7.6,14.7,7.7,14.7L7.7,14.7C7.6,14.7,7.6,14.7,7.7,14.7z"/>
<path class="st2" d="M7.6,14.7L7.6,14.7C7.6,14.7,7.6,14.7,7.6,14.7C7.6,14.7,7.6,14.7,7.6,14.7z"/>
<path class="st2" d="M7.5,14.8c0,0,0.1,0,0.1-0.1C7.6,14.7,7.5,14.8,7.5,14.8z"/>
<path class="st2" d="M7.1,14.8c0.1,0,0.2,0,0.3,0C7.3,14.8,7.3,14.8,7.1,14.8C7.2,14.8,7.1,14.8,7.1,14.8
	C7.1,14.8,7.1,14.8,7.1,14.8z"/>
<path class="st3" d="M7.2,14.8C7.2,14.8,7.1,14.8,7.2,14.8C7.1,14.8,7.2,14.8,7.2,14.8z"/>
<path class="st3" d="M7.1,14.8C7.1,14.8,7.1,14.8,7.1,14.8C7.1,14.8,7.1,14.8,7.1,14.8C7.1,14.8,7.1,14.8,7.1,14.8z"/>
<path class="st2" d="M7.1,14.8C7.1,14.8,7.1,14.8,7.1,14.8C7.1,14.8,7,14.8,7.1,14.8C7.1,14.8,7.1,14.8,7.1,14.8z"/>
<path class="st2" d="M7,14.8C7,14.8,7,14.8,7,14.8C7,14.8,7,14.8,7,14.8C7,14.8,7,14.8,7,14.8C7,14.8,7,14.8,7,14.8z"/>
<path class="st3" d="M7,14.8C7,14.8,7,14.8,7,14.8C7,14.8,7,14.8,7,14.8z"/>
<path class="st3" d="M7,14.8C7,14.8,7,14.8,7,14.8C7,14.8,7,14.8,7,14.8C6.9,14.8,7,14.8,7,14.8z"/>
<path class="st2" d="M7,14.8C7,14.8,6.9,14.8,7,14.8C6.9,14.8,6.9,14.8,7,14.8L7,14.8C6.9,14.8,7,14.8,7,14.8z"/>
<path class="st4" d="M6.9,12.7l0.1,2.1c0,0,0,0-0.1,0V12.7z"/>
<path class="st2" d="M6.9,10.2v2.5V10.2L6.9,10.2z"/>
<path class="st3" d="M15.2,3.4l-7.8,6.9c-0.1,0.1-0.1,0.2-0.1,0.3L7,14.7c0,0.1-0.1,0.1-0.2,0L5.6,9.2C5.6,9,5.7,8.8,5.8,8.7L15,3
	C15.2,2.9,15.4,3.2,15.2,3.4z"/>
</svg>
