<svg xmlns="http://www.w3.org/2000/svg" width="13" height="14" viewBox="0 0 13 14"><g><g><g><path fill="#fff" d="M12.49 3.727c.364 1.66.364 3.343 0 5.002l-.003.014c-.294 1.189-1.619 2.464-2.836 2.729l-.014.003a15.813 15.813 0 0 1-3.84.256l-1.344 1.397a.533.533 0 0 1-.918-.37v-1.326C2.364 11.097 1.138 9.88.855 8.743L.854 8.73a11.61 11.61 0 0 1 0-5.002l.003-.014C1.15 2.525 2.476 1.25 3.692.984l.014-.002a15.76 15.76 0 0 1 5.931 0l.014.002c1.217.266 2.542 1.54 2.836 2.729zm-1.063.241c-.196-.775-1.202-1.739-2.002-1.917a14.677 14.677 0 0 0-5.508 0c-.8.178-1.805 1.142-2.001 1.917-.327 1.5-.327 3.02 0 4.52.196.775 1.202 1.74 2.001 1.917a.076.076 0 0 1 .062.074v2.198c0 .11.134.164.21.084l1.044-1.071.982-1.007a.074.074 0 0 1 .055-.023c1.054.03 2.109-.056 3.155-.255.8-.178 1.806-1.142 2.002-1.917.327-1.5.327-3.02 0-4.52z"/></g><g><path fill="#fff" d="M8.41 9.503c-.122-.038-.24-.063-.348-.108-1.127-.467-2.165-1.07-2.986-1.996-.468-.525-.833-1.12-1.142-1.747-.147-.298-.27-.608-.396-.916-.115-.28.054-.57.232-.781.167-.199.382-.35.615-.462.182-.088.361-.037.494.117.287.333.55.683.764 1.07.131.237.095.527-.143.688-.058.04-.11.086-.164.13a.539.539 0 0 0-.124.131.358.358 0 0 0-.024.315c.293.806.787 1.433 1.599 1.77.13.054.26.117.41.1.25-.03.331-.304.507-.448a.478.478 0 0 1 .576-.025c.185.117.364.243.542.37.175.124.349.246.51.388.155.137.209.316.121.501-.16.34-.392.622-.728.802-.095.051-.208.068-.315.1.107-.032-.122-.037 0 0z"/></g><g><path fill="#fff" d="M6.666 3.11C8.14 3.153 9.35 4.13 9.61 5.589c.045.248.06.502.08.754.008.106-.052.207-.166.208-.118.002-.172-.097-.18-.203-.014-.21-.025-.42-.054-.629A2.634 2.634 0 0 0 7.17 3.517c-.165-.03-.333-.037-.5-.055-.105-.011-.243-.017-.266-.148-.02-.11.073-.198.177-.203.029-.002.057 0 .086 0-.029 0 1.474.04 0 0z"/></g><g><path fill="#fff" d="M8.905 6.017c-.002.018-.003.062-.014.102-.04.148-.264.167-.315.018a.444.444 0 0 1-.018-.143c0-.312-.068-.624-.226-.896a1.668 1.668 0 0 0-.699-.656 2.01 2.01 0 0 0-.557-.17c-.084-.015-.17-.023-.254-.035-.102-.014-.157-.08-.152-.18.005-.095.074-.163.177-.157.338.02.665.093.966.252.611.324.96.835 1.063 1.518.004.03.012.061.014.093.006.076.01.153.015.254-.005-.101-.002.018 0 0z"/></g><g><path fill="#fff" d="M7.994 5.974c-.123.002-.189-.066-.202-.18-.008-.078-.015-.158-.034-.235a.663.663 0 0 0-.245-.384.64.64 0 0 0-.199-.096c-.09-.026-.184-.019-.275-.04-.098-.025-.152-.104-.136-.196a.177.177 0 0 1 .186-.143c.572.042.98.337 1.039 1.01.004.048.009.098-.002.143-.018.078-.075.117-.132.12.057-.003-.123.003 0 0z"/></g></g><g><g><path fill="#fff" d="M6.676 3.11H6.67"/></g><g><path fill="#fff" d="M6.67 3.11h.004"/></g></g></g></svg>