<?xml version="1.0" encoding="utf-8"?>
<!-- Generator: Adobe Illustrator 24.1.2, SVG Export Plug-In . SVG Version: 6.00 Build 0)  -->
<svg version="1.1" id="Слой_1" xmlns="http://www.w3.org/2000/svg" xmlns:xlink="http://www.w3.org/1999/xlink" x="0px" y="0px"
	 viewBox="0 0 18.3 18.8" style="enable-background:new 0 0 18.3 18.8;" xml:space="preserve">
<style type="text/css">
	.st0{fill:#060F42;}
	.st1{fill:#FFFFFF;}
</style>
<path class="st0" d="M17.6,4.7L17.6,4.7c-0.4-1.7-2.4-3.6-4.1-4l0,0c-2.9-0.5-5.8-0.5-8.6,0l0,0c-1.8,0.4-3.7,2.2-4.1,4l0,0
	c-0.5,2.4-0.5,4.9,0,7.3l0,0c0.4,1.7,2.2,3.4,3.9,3.9v1.9c0,0.7,0.9,1,1.3,0.5l2-2c0.4,0,0.8,0,1.3,0c1.4,0,2.9-0.1,4.3-0.4l0,0
	c1.8-0.4,3.7-2.2,4.1-4l0,0C18.2,9.5,18.2,7.1,17.6,4.7z M16.1,11.6c-0.3,1.1-1.7,2.5-2.9,2.8c-1.5,0.3-3.1,0.4-4.6,0.4
	c0,0-0.1,0-0.1,0c-0.2,0.2-1.4,1.5-1.4,1.5l-1.5,1.6c-0.1,0.1-0.3,0-0.3-0.1v-3.2c0-0.1,0-0.1-0.1-0.1c0,0,0,0,0,0
	c-1.2-0.3-2.6-1.7-2.9-2.8C1.8,9.4,1.8,7.2,2.3,5C2.5,3.9,4,2.5,5.2,2.2c2.7-0.5,5.4-0.5,8,0c1.2,0.3,2.6,1.7,2.9,2.8
	C16.6,7.2,16.6,9.4,16.1,11.6z"/>
<path class="st0" d="M11.7,13.1c-0.2-0.1-0.3-0.1-0.5-0.2C9.6,12.2,8,11.3,6.8,10C6.2,9.2,5.6,8.4,5.2,7.5C5,7,4.8,6.6,4.6,6.1
	C4.4,5.7,4.7,5.3,4.9,5c0.2-0.3,0.6-0.5,0.9-0.7c0.3-0.1,0.5-0.1,0.7,0.2C7,5,7.4,5.5,7.7,6c0.2,0.3,0.1,0.8-0.2,1
	C7.4,7.1,7.3,7.2,7.2,7.2C7.2,7.3,7.1,7.3,7,7.4C7,7.6,7,7.7,7,7.9c0.4,1.2,1.1,2.1,2.3,2.6c0.2,0.1,0.4,0.2,0.6,0.1
	c0.4,0,0.5-0.4,0.7-0.7c0.2-0.2,0.6-0.2,0.8,0c0.3,0.2,0.5,0.4,0.8,0.5c0.3,0.2,0.5,0.4,0.7,0.6c0.2,0.2,0.3,0.5,0.2,0.7
	c-0.2,0.5-0.6,0.9-1.1,1.2C12,13,11.9,13,11.7,13.1C11.9,13,11.5,13,11.7,13.1z"/>
<path class="st0" d="M9.2,3.8c2.1,0.1,3.9,1.5,4.3,3.6c0.1,0.4,0.1,0.7,0.1,1.1c0,0.2-0.1,0.3-0.2,0.3c-0.2,0-0.2-0.1-0.3-0.3
	c0-0.3,0-0.6-0.1-0.9c-0.2-1.6-1.5-2.9-3.1-3.2c-0.2,0-0.5-0.1-0.7-0.1C9,4.2,8.8,4.2,8.8,4c0-0.2,0.1-0.3,0.3-0.3
	C9.1,3.8,9.1,3.8,9.2,3.8C9.1,3.8,11.3,3.8,9.2,3.8z"/>
<path class="st0" d="M12.4,8c0,0,0,0.1,0,0.1c-0.1,0.2-0.4,0.2-0.5,0c0-0.1,0-0.1,0-0.2c0-0.5-0.1-0.9-0.3-1.3c-0.2-0.4-0.6-0.7-1-1
	C10.3,5.6,10,5.5,9.8,5.4c-0.1,0-0.2,0-0.4,0c-0.1,0-0.2-0.1-0.2-0.3c0-0.1,0.1-0.2,0.3-0.2c0.5,0,1,0.1,1.4,0.4
	c0.9,0.5,1.4,1.2,1.5,2.2c0,0,0,0.1,0,0.1C12.4,7.7,12.4,7.8,12.4,8C12.4,7.8,12.4,8,12.4,8z"/>
<path class="st0" d="M11.1,7.9c-0.2,0-0.3-0.1-0.3-0.3c0-0.1,0-0.2-0.1-0.3c-0.1-0.2-0.2-0.4-0.4-0.6c-0.1-0.1-0.2-0.1-0.3-0.1
	c-0.1,0-0.3,0-0.4-0.1c-0.1,0-0.2-0.2-0.2-0.3c0-0.1,0.1-0.2,0.3-0.2c0.8,0.1,1.4,0.5,1.5,1.5c0,0.1,0,0.1,0,0.2
	C11.3,7.9,11.2,7.9,11.1,7.9C11.2,7.9,10.9,7.9,11.1,7.9z"/>
<path class="st1" d="M11.7,13.1C11.9,13,11.5,13,11.7,13.1L11.7,13.1z"/>
<path class="st1" d="M9.2,3.8C9.2,3.8,9.2,3.8,9.2,3.8C9.2,3.8,9.2,3.8,9.2,3.8z"/>
<path class="st1" d="M9.2,3.8C9.2,3.8,9.2,3.8,9.2,3.8C9.3,3.8,11.2,3.8,9.2,3.8z"/>
<path class="st1" d="M12.4,8C12.4,7.8,12.4,8,12.4,8L12.4,8z"/>
<path class="st1" d="M11.1,7.9C11.1,7.9,11.1,7.9,11.1,7.9C11.1,7.9,11.1,7.9,11.1,7.9C11.1,7.9,11.1,7.9,11.1,7.9z"/>
<path class="st1" d="M11.1,7.9C11.1,7.9,11.1,7.9,11.1,7.9C11,7.9,11,7.9,11.1,7.9z"/>
<path class="st1" d="M11.1,7.9C11.1,7.9,11.1,7.9,11.1,7.9C11.1,7.9,11.1,7.9,11.1,7.9z"/>
</svg>
